%FSLAX45Y45*%
G04 Gerber Fmt 4.5, Leading zero omitted, Abs format (unit mm)*
G04 Created by KiCad (PCBNEW (6.0.5)) date 2024-04-06 13:46:18*
%MOMM*%
%LPD*%
G01*
G04 APERTURE LIST*
%TA.AperFunction,Profile*%
%ADD10C,0.100000*%
%TD*%
%ADD11C,0.200000*%
%ADD12C,0.040000*%
%ADD13C,0.080000*%
%ADD14C,0.100000*%
G04 APERTURE END LIST*
D10*
X16764000Y-8559800D02*
X16764000Y-12623800D01*
X16764000Y-12623800D02*
X10896600Y-12623800D01*
X10896600Y-8559800D02*
X16764000Y-8559800D01*
X10896600Y-12623800D02*
X10896600Y-8559800D01*
D11*
D12*
X11565430Y-12110630D02*
X11605430Y-12150630D01*
X11605430Y-12110630D02*
X11565430Y-12150630D01*
X11575360Y-11302790D02*
X11615360Y-11342790D01*
X11615360Y-11302790D02*
X11575360Y-11342790D01*
X12448740Y-10802660D02*
X12488740Y-10842660D01*
X12488740Y-10802660D02*
X12448740Y-10842660D01*
X13915730Y-9446030D02*
X13955730Y-9486030D01*
X13955730Y-9446030D02*
X13915730Y-9486030D01*
X13949950Y-9214610D02*
X13989950Y-9254610D01*
X13989950Y-9214610D02*
X13949950Y-9254610D01*
X14220760Y-10755930D02*
X14260760Y-10795930D01*
X14260760Y-10755930D02*
X14220760Y-10795930D01*
X14273790Y-12021100D02*
X14313790Y-12061100D01*
X14313790Y-12021100D02*
X14273790Y-12061100D01*
X14689850Y-11113820D02*
X14729850Y-11153820D01*
X14729850Y-11113820D02*
X14689850Y-11153820D01*
X15230640Y-10683240D02*
X15270640Y-10723240D01*
X15270640Y-10683240D02*
X15230640Y-10723240D01*
X15309700Y-11615910D02*
X15349700Y-11655910D01*
X15349700Y-11615910D02*
X15309700Y-11655910D01*
D13*
X11138800Y-9297400D02*
G75*
G03*
X11138800Y-9297400I-40000J0D01*
G01*
X11138800Y-9551400D02*
G75*
G03*
X11138800Y-9551400I-40000J0D01*
G01*
X11138800Y-9805400D02*
G75*
G03*
X11138800Y-9805400I-40000J0D01*
G01*
X11138800Y-10059400D02*
G75*
G03*
X11138800Y-10059400I-40000J0D01*
G01*
X11138800Y-10313400D02*
G75*
G03*
X11138800Y-10313400I-40000J0D01*
G01*
X11138800Y-10567400D02*
G75*
G03*
X11138800Y-10567400I-40000J0D01*
G01*
X11138800Y-10821400D02*
G75*
G03*
X11138800Y-10821400I-40000J0D01*
G01*
X11138800Y-11075400D02*
G75*
G03*
X11138800Y-11075400I-40000J0D01*
G01*
X11900800Y-9297400D02*
G75*
G03*
X11900800Y-9297400I-40000J0D01*
G01*
X11900800Y-9551400D02*
G75*
G03*
X11900800Y-9551400I-40000J0D01*
G01*
X11900800Y-9805400D02*
G75*
G03*
X11900800Y-9805400I-40000J0D01*
G01*
X11900800Y-10059400D02*
G75*
G03*
X11900800Y-10059400I-40000J0D01*
G01*
X11900800Y-10313400D02*
G75*
G03*
X11900800Y-10313400I-40000J0D01*
G01*
X11900800Y-10567400D02*
G75*
G03*
X11900800Y-10567400I-40000J0D01*
G01*
X11900800Y-10821400D02*
G75*
G03*
X11900800Y-10821400I-40000J0D01*
G01*
X11900800Y-11075400D02*
G75*
G03*
X11900800Y-11075400I-40000J0D01*
G01*
X12283300Y-8866100D02*
G75*
G03*
X12283300Y-8866100I-40000J0D01*
G01*
X12283300Y-9120100D02*
G75*
G03*
X12283300Y-9120100I-40000J0D01*
G01*
X12283300Y-9374100D02*
G75*
G03*
X12283300Y-9374100I-40000J0D01*
G01*
X12283300Y-9628100D02*
G75*
G03*
X12283300Y-9628100I-40000J0D01*
G01*
X12283300Y-9882100D02*
G75*
G03*
X12283300Y-9882100I-40000J0D01*
G01*
X12283300Y-10136100D02*
G75*
G03*
X12283300Y-10136100I-40000J0D01*
G01*
X12283300Y-10390100D02*
G75*
G03*
X12283300Y-10390100I-40000J0D01*
G01*
X12283300Y-10644100D02*
G75*
G03*
X12283300Y-10644100I-40000J0D01*
G01*
X12283300Y-10898100D02*
G75*
G03*
X12283300Y-10898100I-40000J0D01*
G01*
X12283300Y-11152100D02*
G75*
G03*
X12283300Y-11152100I-40000J0D01*
G01*
X12283300Y-11406100D02*
G75*
G03*
X12283300Y-11406100I-40000J0D01*
G01*
X12283300Y-11660100D02*
G75*
G03*
X12283300Y-11660100I-40000J0D01*
G01*
X12283300Y-11914100D02*
G75*
G03*
X12283300Y-11914100I-40000J0D01*
G01*
X12283300Y-12168100D02*
G75*
G03*
X12283300Y-12168100I-40000J0D01*
G01*
X13807300Y-8866100D02*
G75*
G03*
X13807300Y-8866100I-40000J0D01*
G01*
X13807300Y-9120100D02*
G75*
G03*
X13807300Y-9120100I-40000J0D01*
G01*
X13807300Y-9374100D02*
G75*
G03*
X13807300Y-9374100I-40000J0D01*
G01*
X13807300Y-9628100D02*
G75*
G03*
X13807300Y-9628100I-40000J0D01*
G01*
X13807300Y-9882100D02*
G75*
G03*
X13807300Y-9882100I-40000J0D01*
G01*
X13807300Y-10136100D02*
G75*
G03*
X13807300Y-10136100I-40000J0D01*
G01*
X13807300Y-10390100D02*
G75*
G03*
X13807300Y-10390100I-40000J0D01*
G01*
X13807300Y-10644100D02*
G75*
G03*
X13807300Y-10644100I-40000J0D01*
G01*
X13807300Y-10898100D02*
G75*
G03*
X13807300Y-10898100I-40000J0D01*
G01*
X13807300Y-11152100D02*
G75*
G03*
X13807300Y-11152100I-40000J0D01*
G01*
X13807300Y-11406100D02*
G75*
G03*
X13807300Y-11406100I-40000J0D01*
G01*
X13807300Y-11660100D02*
G75*
G03*
X13807300Y-11660100I-40000J0D01*
G01*
X13807300Y-11914100D02*
G75*
G03*
X13807300Y-11914100I-40000J0D01*
G01*
X13807300Y-12168100D02*
G75*
G03*
X13807300Y-12168100I-40000J0D01*
G01*
X14162900Y-8866100D02*
G75*
G03*
X14162900Y-8866100I-40000J0D01*
G01*
X14162900Y-9120100D02*
G75*
G03*
X14162900Y-9120100I-40000J0D01*
G01*
X14162900Y-9374100D02*
G75*
G03*
X14162900Y-9374100I-40000J0D01*
G01*
X14162900Y-9628100D02*
G75*
G03*
X14162900Y-9628100I-40000J0D01*
G01*
X14162900Y-9882100D02*
G75*
G03*
X14162900Y-9882100I-40000J0D01*
G01*
X14162900Y-10136100D02*
G75*
G03*
X14162900Y-10136100I-40000J0D01*
G01*
X14162900Y-10390100D02*
G75*
G03*
X14162900Y-10390100I-40000J0D01*
G01*
X14162900Y-10644100D02*
G75*
G03*
X14162900Y-10644100I-40000J0D01*
G01*
X14162900Y-10898100D02*
G75*
G03*
X14162900Y-10898100I-40000J0D01*
G01*
X14162900Y-11152100D02*
G75*
G03*
X14162900Y-11152100I-40000J0D01*
G01*
X14162900Y-11406100D02*
G75*
G03*
X14162900Y-11406100I-40000J0D01*
G01*
X14162900Y-11660100D02*
G75*
G03*
X14162900Y-11660100I-40000J0D01*
G01*
X14162900Y-11914100D02*
G75*
G03*
X14162900Y-11914100I-40000J0D01*
G01*
X14162900Y-12168100D02*
G75*
G03*
X14162900Y-12168100I-40000J0D01*
G01*
X14528100Y-8866100D02*
G75*
G03*
X14528100Y-8866100I-40000J0D01*
G01*
X14528100Y-9120100D02*
G75*
G03*
X14528100Y-9120100I-40000J0D01*
G01*
X14528100Y-9374100D02*
G75*
G03*
X14528100Y-9374100I-40000J0D01*
G01*
X14528100Y-9628100D02*
G75*
G03*
X14528100Y-9628100I-40000J0D01*
G01*
X14528100Y-9882100D02*
G75*
G03*
X14528100Y-9882100I-40000J0D01*
G01*
X14528100Y-10136100D02*
G75*
G03*
X14528100Y-10136100I-40000J0D01*
G01*
X14528100Y-10390100D02*
G75*
G03*
X14528100Y-10390100I-40000J0D01*
G01*
X14528100Y-10644100D02*
G75*
G03*
X14528100Y-10644100I-40000J0D01*
G01*
X14528100Y-10898100D02*
G75*
G03*
X14528100Y-10898100I-40000J0D01*
G01*
X14528100Y-11152100D02*
G75*
G03*
X14528100Y-11152100I-40000J0D01*
G01*
X14528100Y-11406100D02*
G75*
G03*
X14528100Y-11406100I-40000J0D01*
G01*
X14528100Y-11660100D02*
G75*
G03*
X14528100Y-11660100I-40000J0D01*
G01*
X14528100Y-11914100D02*
G75*
G03*
X14528100Y-11914100I-40000J0D01*
G01*
X14528100Y-12168100D02*
G75*
G03*
X14528100Y-12168100I-40000J0D01*
G01*
X15686900Y-8866100D02*
G75*
G03*
X15686900Y-8866100I-40000J0D01*
G01*
X15686900Y-9120100D02*
G75*
G03*
X15686900Y-9120100I-40000J0D01*
G01*
X15686900Y-9374100D02*
G75*
G03*
X15686900Y-9374100I-40000J0D01*
G01*
X15686900Y-9628100D02*
G75*
G03*
X15686900Y-9628100I-40000J0D01*
G01*
X15686900Y-9882100D02*
G75*
G03*
X15686900Y-9882100I-40000J0D01*
G01*
X15686900Y-10136100D02*
G75*
G03*
X15686900Y-10136100I-40000J0D01*
G01*
X15686900Y-10390100D02*
G75*
G03*
X15686900Y-10390100I-40000J0D01*
G01*
X15686900Y-10644100D02*
G75*
G03*
X15686900Y-10644100I-40000J0D01*
G01*
X15686900Y-10898100D02*
G75*
G03*
X15686900Y-10898100I-40000J0D01*
G01*
X15686900Y-11152100D02*
G75*
G03*
X15686900Y-11152100I-40000J0D01*
G01*
X15686900Y-11406100D02*
G75*
G03*
X15686900Y-11406100I-40000J0D01*
G01*
X15686900Y-11660100D02*
G75*
G03*
X15686900Y-11660100I-40000J0D01*
G01*
X15686900Y-11914100D02*
G75*
G03*
X15686900Y-11914100I-40000J0D01*
G01*
X15686900Y-12168100D02*
G75*
G03*
X15686900Y-12168100I-40000J0D01*
G01*
X16052100Y-8866100D02*
G75*
G03*
X16052100Y-8866100I-40000J0D01*
G01*
X16052100Y-9120100D02*
G75*
G03*
X16052100Y-9120100I-40000J0D01*
G01*
X16052100Y-9374100D02*
G75*
G03*
X16052100Y-9374100I-40000J0D01*
G01*
X16052100Y-9628100D02*
G75*
G03*
X16052100Y-9628100I-40000J0D01*
G01*
X16052100Y-9882100D02*
G75*
G03*
X16052100Y-9882100I-40000J0D01*
G01*
X16052100Y-10136100D02*
G75*
G03*
X16052100Y-10136100I-40000J0D01*
G01*
X16052100Y-10390100D02*
G75*
G03*
X16052100Y-10390100I-40000J0D01*
G01*
X16052100Y-10644100D02*
G75*
G03*
X16052100Y-10644100I-40000J0D01*
G01*
X16052100Y-10898100D02*
G75*
G03*
X16052100Y-10898100I-40000J0D01*
G01*
X16052100Y-11152100D02*
G75*
G03*
X16052100Y-11152100I-40000J0D01*
G01*
X16052100Y-11406100D02*
G75*
G03*
X16052100Y-11406100I-40000J0D01*
G01*
X16052100Y-11660100D02*
G75*
G03*
X16052100Y-11660100I-40000J0D01*
G01*
X16052100Y-11914100D02*
G75*
G03*
X16052100Y-11914100I-40000J0D01*
G01*
X16052100Y-12168100D02*
G75*
G03*
X16052100Y-12168100I-40000J0D01*
G01*
X16423000Y-10363200D02*
G75*
G03*
X16423000Y-10363200I-40000J0D01*
G01*
X16423000Y-11125200D02*
G75*
G03*
X16423000Y-11125200I-40000J0D01*
G01*
X16423000Y-11379200D02*
G75*
G03*
X16423000Y-11379200I-40000J0D01*
G01*
X16423000Y-12141200D02*
G75*
G03*
X16423000Y-12141200I-40000J0D01*
G01*
D14*
X11303000Y-11531900D02*
X11303000Y-11631900D01*
X11253000Y-11581900D02*
X11353000Y-11581900D01*
X11303000Y-11785900D02*
X11303000Y-11885900D01*
X11253000Y-11835900D02*
X11353000Y-11835900D01*
X11353800Y-12345200D02*
X11353800Y-12445200D01*
X11303800Y-12395200D02*
X11403800Y-12395200D01*
X11607800Y-12345200D02*
X11607800Y-12445200D01*
X11557800Y-12395200D02*
X11657800Y-12395200D01*
X11684000Y-11531900D02*
X11684000Y-11631900D01*
X11634000Y-11581900D02*
X11734000Y-11581900D01*
X11684000Y-11785900D02*
X11684000Y-11885900D01*
X11634000Y-11835900D02*
X11734000Y-11835900D01*
X16383000Y-8814600D02*
X16383000Y-8914600D01*
X16333000Y-8864600D02*
X16433000Y-8864600D01*
X16383000Y-9068600D02*
X16383000Y-9168600D01*
X16333000Y-9118600D02*
X16433000Y-9118600D01*
X16383000Y-9577100D02*
X16383000Y-9677100D01*
X16333000Y-9627100D02*
X16433000Y-9627100D01*
X16383000Y-9831100D02*
X16383000Y-9931100D01*
X16333000Y-9881100D02*
X16433000Y-9881100D01*
D11*
X11149219Y-12939276D02*
X11149219Y-12739276D01*
X11196838Y-12739276D01*
X11225409Y-12748800D01*
X11244457Y-12767848D01*
X11253981Y-12786895D01*
X11263505Y-12824990D01*
X11263505Y-12853562D01*
X11253981Y-12891657D01*
X11244457Y-12910705D01*
X11225409Y-12929752D01*
X11196838Y-12939276D01*
X11149219Y-12939276D01*
X11349219Y-12939276D02*
X11349219Y-12805943D01*
X11349219Y-12844038D02*
X11358743Y-12824990D01*
X11368267Y-12815467D01*
X11387314Y-12805943D01*
X11406362Y-12805943D01*
X11473028Y-12939276D02*
X11473028Y-12805943D01*
X11473028Y-12739276D02*
X11463505Y-12748800D01*
X11473028Y-12758324D01*
X11482552Y-12748800D01*
X11473028Y-12739276D01*
X11473028Y-12758324D01*
X11596838Y-12939276D02*
X11577790Y-12929752D01*
X11568267Y-12910705D01*
X11568267Y-12739276D01*
X11701600Y-12939276D02*
X11682552Y-12929752D01*
X11673028Y-12910705D01*
X11673028Y-12739276D01*
X11930171Y-12939276D02*
X11930171Y-12739276D01*
X11996838Y-12882133D01*
X12063505Y-12739276D01*
X12063505Y-12939276D01*
X12244457Y-12939276D02*
X12244457Y-12834514D01*
X12234933Y-12815467D01*
X12215886Y-12805943D01*
X12177790Y-12805943D01*
X12158743Y-12815467D01*
X12244457Y-12929752D02*
X12225409Y-12939276D01*
X12177790Y-12939276D01*
X12158743Y-12929752D01*
X12149219Y-12910705D01*
X12149219Y-12891657D01*
X12158743Y-12872609D01*
X12177790Y-12863086D01*
X12225409Y-12863086D01*
X12244457Y-12853562D01*
X12339695Y-12805943D02*
X12339695Y-13005943D01*
X12339695Y-12815467D02*
X12358743Y-12805943D01*
X12396838Y-12805943D01*
X12415886Y-12815467D01*
X12425409Y-12824990D01*
X12434933Y-12844038D01*
X12434933Y-12901181D01*
X12425409Y-12920228D01*
X12415886Y-12929752D01*
X12396838Y-12939276D01*
X12358743Y-12939276D01*
X12339695Y-12929752D01*
X12520648Y-12920228D02*
X12530171Y-12929752D01*
X12520648Y-12939276D01*
X12511124Y-12929752D01*
X12520648Y-12920228D01*
X12520648Y-12939276D01*
X12520648Y-12815467D02*
X12530171Y-12824990D01*
X12520648Y-12834514D01*
X12511124Y-12824990D01*
X12520648Y-12815467D01*
X12520648Y-12834514D01*
D12*
X10851600Y-13248800D02*
X10891600Y-13288800D01*
X10891600Y-13248800D02*
X10851600Y-13288800D01*
D11*
X11187314Y-13159276D02*
X11206362Y-13159276D01*
X11225409Y-13168800D01*
X11234933Y-13178324D01*
X11244457Y-13197371D01*
X11253981Y-13235467D01*
X11253981Y-13283086D01*
X11244457Y-13321181D01*
X11234933Y-13340228D01*
X11225409Y-13349752D01*
X11206362Y-13359276D01*
X11187314Y-13359276D01*
X11168267Y-13349752D01*
X11158743Y-13340228D01*
X11149219Y-13321181D01*
X11139695Y-13283086D01*
X11139695Y-13235467D01*
X11149219Y-13197371D01*
X11158743Y-13178324D01*
X11168267Y-13168800D01*
X11187314Y-13159276D01*
X11339695Y-13340228D02*
X11349219Y-13349752D01*
X11339695Y-13359276D01*
X11330171Y-13349752D01*
X11339695Y-13340228D01*
X11339695Y-13359276D01*
X11520648Y-13225943D02*
X11520648Y-13359276D01*
X11473028Y-13149752D02*
X11425409Y-13292609D01*
X11549219Y-13292609D01*
X11663505Y-13159276D02*
X11682552Y-13159276D01*
X11701600Y-13168800D01*
X11711124Y-13178324D01*
X11720648Y-13197371D01*
X11730171Y-13235467D01*
X11730171Y-13283086D01*
X11720648Y-13321181D01*
X11711124Y-13340228D01*
X11701600Y-13349752D01*
X11682552Y-13359276D01*
X11663505Y-13359276D01*
X11644457Y-13349752D01*
X11634933Y-13340228D01*
X11625409Y-13321181D01*
X11615886Y-13283086D01*
X11615886Y-13235467D01*
X11625409Y-13197371D01*
X11634933Y-13178324D01*
X11644457Y-13168800D01*
X11663505Y-13159276D01*
X11853981Y-13159276D02*
X11873028Y-13159276D01*
X11892076Y-13168800D01*
X11901600Y-13178324D01*
X11911124Y-13197371D01*
X11920648Y-13235467D01*
X11920648Y-13283086D01*
X11911124Y-13321181D01*
X11901600Y-13340228D01*
X11892076Y-13349752D01*
X11873028Y-13359276D01*
X11853981Y-13359276D01*
X11834933Y-13349752D01*
X11825409Y-13340228D01*
X11815886Y-13321181D01*
X11806362Y-13283086D01*
X11806362Y-13235467D01*
X11815886Y-13197371D01*
X11825409Y-13178324D01*
X11834933Y-13168800D01*
X11853981Y-13159276D01*
X12006362Y-13359276D02*
X12006362Y-13225943D01*
X12006362Y-13244990D02*
X12015886Y-13235467D01*
X12034933Y-13225943D01*
X12063505Y-13225943D01*
X12082552Y-13235467D01*
X12092076Y-13254514D01*
X12092076Y-13359276D01*
X12092076Y-13254514D02*
X12101600Y-13235467D01*
X12120648Y-13225943D01*
X12149219Y-13225943D01*
X12168267Y-13235467D01*
X12177790Y-13254514D01*
X12177790Y-13359276D01*
X12273028Y-13359276D02*
X12273028Y-13225943D01*
X12273028Y-13244990D02*
X12282552Y-13235467D01*
X12301600Y-13225943D01*
X12330171Y-13225943D01*
X12349219Y-13235467D01*
X12358743Y-13254514D01*
X12358743Y-13359276D01*
X12358743Y-13254514D02*
X12368267Y-13235467D01*
X12387314Y-13225943D01*
X12415886Y-13225943D01*
X12434933Y-13235467D01*
X12444457Y-13254514D01*
X12444457Y-13359276D01*
X12834933Y-13149752D02*
X12663505Y-13406895D01*
X13092076Y-13159276D02*
X13111124Y-13159276D01*
X13130171Y-13168800D01*
X13139695Y-13178324D01*
X13149219Y-13197371D01*
X13158743Y-13235467D01*
X13158743Y-13283086D01*
X13149219Y-13321181D01*
X13139695Y-13340228D01*
X13130171Y-13349752D01*
X13111124Y-13359276D01*
X13092076Y-13359276D01*
X13073028Y-13349752D01*
X13063505Y-13340228D01*
X13053981Y-13321181D01*
X13044457Y-13283086D01*
X13044457Y-13235467D01*
X13053981Y-13197371D01*
X13063505Y-13178324D01*
X13073028Y-13168800D01*
X13092076Y-13159276D01*
X13244457Y-13340228D02*
X13253981Y-13349752D01*
X13244457Y-13359276D01*
X13234933Y-13349752D01*
X13244457Y-13340228D01*
X13244457Y-13359276D01*
X13377790Y-13159276D02*
X13396838Y-13159276D01*
X13415886Y-13168800D01*
X13425409Y-13178324D01*
X13434933Y-13197371D01*
X13444457Y-13235467D01*
X13444457Y-13283086D01*
X13434933Y-13321181D01*
X13425409Y-13340228D01*
X13415886Y-13349752D01*
X13396838Y-13359276D01*
X13377790Y-13359276D01*
X13358743Y-13349752D01*
X13349219Y-13340228D01*
X13339695Y-13321181D01*
X13330171Y-13283086D01*
X13330171Y-13235467D01*
X13339695Y-13197371D01*
X13349219Y-13178324D01*
X13358743Y-13168800D01*
X13377790Y-13159276D01*
X13634933Y-13359276D02*
X13520648Y-13359276D01*
X13577790Y-13359276D02*
X13577790Y-13159276D01*
X13558743Y-13187848D01*
X13539695Y-13206895D01*
X13520648Y-13216419D01*
X13815886Y-13159276D02*
X13720648Y-13159276D01*
X13711124Y-13254514D01*
X13720648Y-13244990D01*
X13739695Y-13235467D01*
X13787314Y-13235467D01*
X13806362Y-13244990D01*
X13815886Y-13254514D01*
X13825409Y-13273562D01*
X13825409Y-13321181D01*
X13815886Y-13340228D01*
X13806362Y-13349752D01*
X13787314Y-13359276D01*
X13739695Y-13359276D01*
X13720648Y-13349752D01*
X13711124Y-13340228D01*
X13892076Y-13159276D02*
X14025409Y-13159276D01*
X13939695Y-13359276D01*
X14092076Y-13159276D02*
X14092076Y-13197371D01*
X14168267Y-13159276D02*
X14168267Y-13197371D01*
X14463505Y-13435467D02*
X14453981Y-13425943D01*
X14434933Y-13397371D01*
X14425409Y-13378324D01*
X14415886Y-13349752D01*
X14406362Y-13302133D01*
X14406362Y-13264038D01*
X14415886Y-13216419D01*
X14425409Y-13187848D01*
X14434933Y-13168800D01*
X14453981Y-13140228D01*
X14463505Y-13130705D01*
X14644457Y-13359276D02*
X14530171Y-13359276D01*
X14587314Y-13359276D02*
X14587314Y-13159276D01*
X14568267Y-13187848D01*
X14549219Y-13206895D01*
X14530171Y-13216419D01*
X14768267Y-13159276D02*
X14787314Y-13159276D01*
X14806362Y-13168800D01*
X14815886Y-13178324D01*
X14825409Y-13197371D01*
X14834933Y-13235467D01*
X14834933Y-13283086D01*
X14825409Y-13321181D01*
X14815886Y-13340228D01*
X14806362Y-13349752D01*
X14787314Y-13359276D01*
X14768267Y-13359276D01*
X14749219Y-13349752D01*
X14739695Y-13340228D01*
X14730171Y-13321181D01*
X14720648Y-13283086D01*
X14720648Y-13235467D01*
X14730171Y-13197371D01*
X14739695Y-13178324D01*
X14749219Y-13168800D01*
X14768267Y-13159276D01*
X15073028Y-13359276D02*
X15073028Y-13159276D01*
X15158743Y-13359276D02*
X15158743Y-13254514D01*
X15149219Y-13235467D01*
X15130171Y-13225943D01*
X15101600Y-13225943D01*
X15082552Y-13235467D01*
X15073028Y-13244990D01*
X15282552Y-13359276D02*
X15263505Y-13349752D01*
X15253981Y-13340228D01*
X15244457Y-13321181D01*
X15244457Y-13264038D01*
X15253981Y-13244990D01*
X15263505Y-13235467D01*
X15282552Y-13225943D01*
X15311124Y-13225943D01*
X15330171Y-13235467D01*
X15339695Y-13244990D01*
X15349219Y-13264038D01*
X15349219Y-13321181D01*
X15339695Y-13340228D01*
X15330171Y-13349752D01*
X15311124Y-13359276D01*
X15282552Y-13359276D01*
X15463505Y-13359276D02*
X15444457Y-13349752D01*
X15434933Y-13330705D01*
X15434933Y-13159276D01*
X15615886Y-13349752D02*
X15596838Y-13359276D01*
X15558743Y-13359276D01*
X15539695Y-13349752D01*
X15530171Y-13330705D01*
X15530171Y-13254514D01*
X15539695Y-13235467D01*
X15558743Y-13225943D01*
X15596838Y-13225943D01*
X15615886Y-13235467D01*
X15625409Y-13254514D01*
X15625409Y-13273562D01*
X15530171Y-13292609D01*
X15701600Y-13349752D02*
X15720648Y-13359276D01*
X15758743Y-13359276D01*
X15777790Y-13349752D01*
X15787314Y-13330705D01*
X15787314Y-13321181D01*
X15777790Y-13302133D01*
X15758743Y-13292609D01*
X15730171Y-13292609D01*
X15711124Y-13283086D01*
X15701600Y-13264038D01*
X15701600Y-13254514D01*
X15711124Y-13235467D01*
X15730171Y-13225943D01*
X15758743Y-13225943D01*
X15777790Y-13235467D01*
X15853981Y-13435467D02*
X15863505Y-13425943D01*
X15882552Y-13397371D01*
X15892076Y-13378324D01*
X15901600Y-13349752D01*
X15911124Y-13302133D01*
X15911124Y-13264038D01*
X15901600Y-13216419D01*
X15892076Y-13187848D01*
X15882552Y-13168800D01*
X15863505Y-13140228D01*
X15853981Y-13130705D01*
D13*
X10891600Y-13532800D02*
G75*
G03*
X10891600Y-13532800I-40000J0D01*
G01*
D11*
X11187314Y-13423276D02*
X11206362Y-13423276D01*
X11225409Y-13432800D01*
X11234933Y-13442324D01*
X11244457Y-13461371D01*
X11253981Y-13499467D01*
X11253981Y-13547086D01*
X11244457Y-13585181D01*
X11234933Y-13604228D01*
X11225409Y-13613752D01*
X11206362Y-13623276D01*
X11187314Y-13623276D01*
X11168267Y-13613752D01*
X11158743Y-13604228D01*
X11149219Y-13585181D01*
X11139695Y-13547086D01*
X11139695Y-13499467D01*
X11149219Y-13461371D01*
X11158743Y-13442324D01*
X11168267Y-13432800D01*
X11187314Y-13423276D01*
X11339695Y-13604228D02*
X11349219Y-13613752D01*
X11339695Y-13623276D01*
X11330171Y-13613752D01*
X11339695Y-13604228D01*
X11339695Y-13623276D01*
X11463505Y-13508990D02*
X11444457Y-13499467D01*
X11434933Y-13489943D01*
X11425409Y-13470895D01*
X11425409Y-13461371D01*
X11434933Y-13442324D01*
X11444457Y-13432800D01*
X11463505Y-13423276D01*
X11501600Y-13423276D01*
X11520648Y-13432800D01*
X11530171Y-13442324D01*
X11539695Y-13461371D01*
X11539695Y-13470895D01*
X11530171Y-13489943D01*
X11520648Y-13499467D01*
X11501600Y-13508990D01*
X11463505Y-13508990D01*
X11444457Y-13518514D01*
X11434933Y-13528038D01*
X11425409Y-13547086D01*
X11425409Y-13585181D01*
X11434933Y-13604228D01*
X11444457Y-13613752D01*
X11463505Y-13623276D01*
X11501600Y-13623276D01*
X11520648Y-13613752D01*
X11530171Y-13604228D01*
X11539695Y-13585181D01*
X11539695Y-13547086D01*
X11530171Y-13528038D01*
X11520648Y-13518514D01*
X11501600Y-13508990D01*
X11663505Y-13423276D02*
X11682552Y-13423276D01*
X11701600Y-13432800D01*
X11711124Y-13442324D01*
X11720648Y-13461371D01*
X11730171Y-13499467D01*
X11730171Y-13547086D01*
X11720648Y-13585181D01*
X11711124Y-13604228D01*
X11701600Y-13613752D01*
X11682552Y-13623276D01*
X11663505Y-13623276D01*
X11644457Y-13613752D01*
X11634933Y-13604228D01*
X11625409Y-13585181D01*
X11615886Y-13547086D01*
X11615886Y-13499467D01*
X11625409Y-13461371D01*
X11634933Y-13442324D01*
X11644457Y-13432800D01*
X11663505Y-13423276D01*
X11853981Y-13423276D02*
X11873028Y-13423276D01*
X11892076Y-13432800D01*
X11901600Y-13442324D01*
X11911124Y-13461371D01*
X11920648Y-13499467D01*
X11920648Y-13547086D01*
X11911124Y-13585181D01*
X11901600Y-13604228D01*
X11892076Y-13613752D01*
X11873028Y-13623276D01*
X11853981Y-13623276D01*
X11834933Y-13613752D01*
X11825409Y-13604228D01*
X11815886Y-13585181D01*
X11806362Y-13547086D01*
X11806362Y-13499467D01*
X11815886Y-13461371D01*
X11825409Y-13442324D01*
X11834933Y-13432800D01*
X11853981Y-13423276D01*
X12006362Y-13623276D02*
X12006362Y-13489943D01*
X12006362Y-13508990D02*
X12015886Y-13499467D01*
X12034933Y-13489943D01*
X12063505Y-13489943D01*
X12082552Y-13499467D01*
X12092076Y-13518514D01*
X12092076Y-13623276D01*
X12092076Y-13518514D02*
X12101600Y-13499467D01*
X12120648Y-13489943D01*
X12149219Y-13489943D01*
X12168267Y-13499467D01*
X12177790Y-13518514D01*
X12177790Y-13623276D01*
X12273028Y-13623276D02*
X12273028Y-13489943D01*
X12273028Y-13508990D02*
X12282552Y-13499467D01*
X12301600Y-13489943D01*
X12330171Y-13489943D01*
X12349219Y-13499467D01*
X12358743Y-13518514D01*
X12358743Y-13623276D01*
X12358743Y-13518514D02*
X12368267Y-13499467D01*
X12387314Y-13489943D01*
X12415886Y-13489943D01*
X12434933Y-13499467D01*
X12444457Y-13518514D01*
X12444457Y-13623276D01*
X12834933Y-13413752D02*
X12663505Y-13670895D01*
X13092076Y-13423276D02*
X13111124Y-13423276D01*
X13130171Y-13432800D01*
X13139695Y-13442324D01*
X13149219Y-13461371D01*
X13158743Y-13499467D01*
X13158743Y-13547086D01*
X13149219Y-13585181D01*
X13139695Y-13604228D01*
X13130171Y-13613752D01*
X13111124Y-13623276D01*
X13092076Y-13623276D01*
X13073028Y-13613752D01*
X13063505Y-13604228D01*
X13053981Y-13585181D01*
X13044457Y-13547086D01*
X13044457Y-13499467D01*
X13053981Y-13461371D01*
X13063505Y-13442324D01*
X13073028Y-13432800D01*
X13092076Y-13423276D01*
X13244457Y-13604228D02*
X13253981Y-13613752D01*
X13244457Y-13623276D01*
X13234933Y-13613752D01*
X13244457Y-13604228D01*
X13244457Y-13623276D01*
X13377790Y-13423276D02*
X13396838Y-13423276D01*
X13415886Y-13432800D01*
X13425409Y-13442324D01*
X13434933Y-13461371D01*
X13444457Y-13499467D01*
X13444457Y-13547086D01*
X13434933Y-13585181D01*
X13425409Y-13604228D01*
X13415886Y-13613752D01*
X13396838Y-13623276D01*
X13377790Y-13623276D01*
X13358743Y-13613752D01*
X13349219Y-13604228D01*
X13339695Y-13585181D01*
X13330171Y-13547086D01*
X13330171Y-13499467D01*
X13339695Y-13461371D01*
X13349219Y-13442324D01*
X13358743Y-13432800D01*
X13377790Y-13423276D01*
X13511124Y-13423276D02*
X13634933Y-13423276D01*
X13568267Y-13499467D01*
X13596838Y-13499467D01*
X13615886Y-13508990D01*
X13625409Y-13518514D01*
X13634933Y-13537562D01*
X13634933Y-13585181D01*
X13625409Y-13604228D01*
X13615886Y-13613752D01*
X13596838Y-13623276D01*
X13539695Y-13623276D01*
X13520648Y-13613752D01*
X13511124Y-13604228D01*
X13825409Y-13623276D02*
X13711124Y-13623276D01*
X13768267Y-13623276D02*
X13768267Y-13423276D01*
X13749219Y-13451848D01*
X13730171Y-13470895D01*
X13711124Y-13480419D01*
X14006362Y-13423276D02*
X13911124Y-13423276D01*
X13901600Y-13518514D01*
X13911124Y-13508990D01*
X13930171Y-13499467D01*
X13977790Y-13499467D01*
X13996838Y-13508990D01*
X14006362Y-13518514D01*
X14015886Y-13537562D01*
X14015886Y-13585181D01*
X14006362Y-13604228D01*
X13996838Y-13613752D01*
X13977790Y-13623276D01*
X13930171Y-13623276D01*
X13911124Y-13613752D01*
X13901600Y-13604228D01*
X14092076Y-13423276D02*
X14092076Y-13461371D01*
X14168267Y-13423276D02*
X14168267Y-13461371D01*
X14463505Y-13699467D02*
X14453981Y-13689943D01*
X14434933Y-13661371D01*
X14425409Y-13642324D01*
X14415886Y-13613752D01*
X14406362Y-13566133D01*
X14406362Y-13528038D01*
X14415886Y-13480419D01*
X14425409Y-13451848D01*
X14434933Y-13432800D01*
X14453981Y-13404228D01*
X14463505Y-13394705D01*
X14644457Y-13623276D02*
X14530171Y-13623276D01*
X14587314Y-13623276D02*
X14587314Y-13423276D01*
X14568267Y-13451848D01*
X14549219Y-13470895D01*
X14530171Y-13480419D01*
X14768267Y-13423276D02*
X14787314Y-13423276D01*
X14806362Y-13432800D01*
X14815886Y-13442324D01*
X14825409Y-13461371D01*
X14834933Y-13499467D01*
X14834933Y-13547086D01*
X14825409Y-13585181D01*
X14815886Y-13604228D01*
X14806362Y-13613752D01*
X14787314Y-13623276D01*
X14768267Y-13623276D01*
X14749219Y-13613752D01*
X14739695Y-13604228D01*
X14730171Y-13585181D01*
X14720648Y-13547086D01*
X14720648Y-13499467D01*
X14730171Y-13461371D01*
X14739695Y-13442324D01*
X14749219Y-13432800D01*
X14768267Y-13423276D01*
X15006362Y-13489943D02*
X15006362Y-13623276D01*
X14958743Y-13413752D02*
X14911124Y-13556609D01*
X15034933Y-13556609D01*
X15263505Y-13623276D02*
X15263505Y-13423276D01*
X15349219Y-13623276D02*
X15349219Y-13518514D01*
X15339695Y-13499467D01*
X15320648Y-13489943D01*
X15292076Y-13489943D01*
X15273028Y-13499467D01*
X15263505Y-13508990D01*
X15473028Y-13623276D02*
X15453981Y-13613752D01*
X15444457Y-13604228D01*
X15434933Y-13585181D01*
X15434933Y-13528038D01*
X15444457Y-13508990D01*
X15453981Y-13499467D01*
X15473028Y-13489943D01*
X15501600Y-13489943D01*
X15520648Y-13499467D01*
X15530171Y-13508990D01*
X15539695Y-13528038D01*
X15539695Y-13585181D01*
X15530171Y-13604228D01*
X15520648Y-13613752D01*
X15501600Y-13623276D01*
X15473028Y-13623276D01*
X15653981Y-13623276D02*
X15634933Y-13613752D01*
X15625409Y-13594705D01*
X15625409Y-13423276D01*
X15806362Y-13613752D02*
X15787314Y-13623276D01*
X15749219Y-13623276D01*
X15730171Y-13613752D01*
X15720648Y-13594705D01*
X15720648Y-13518514D01*
X15730171Y-13499467D01*
X15749219Y-13489943D01*
X15787314Y-13489943D01*
X15806362Y-13499467D01*
X15815886Y-13518514D01*
X15815886Y-13537562D01*
X15720648Y-13556609D01*
X15892076Y-13613752D02*
X15911124Y-13623276D01*
X15949219Y-13623276D01*
X15968267Y-13613752D01*
X15977790Y-13594705D01*
X15977790Y-13585181D01*
X15968267Y-13566133D01*
X15949219Y-13556609D01*
X15920648Y-13556609D01*
X15901600Y-13547086D01*
X15892076Y-13528038D01*
X15892076Y-13518514D01*
X15901600Y-13499467D01*
X15920648Y-13489943D01*
X15949219Y-13489943D01*
X15968267Y-13499467D01*
X16044457Y-13699467D02*
X16053981Y-13689943D01*
X16073028Y-13661371D01*
X16082552Y-13642324D01*
X16092076Y-13613752D01*
X16101600Y-13566133D01*
X16101600Y-13528038D01*
X16092076Y-13480419D01*
X16082552Y-13451848D01*
X16073028Y-13432800D01*
X16053981Y-13404228D01*
X16044457Y-13394705D01*
D14*
X10841600Y-13746800D02*
X10841600Y-13846800D01*
X10791600Y-13796800D02*
X10891600Y-13796800D01*
D11*
X11253981Y-13887276D02*
X11139695Y-13887276D01*
X11196838Y-13887276D02*
X11196838Y-13687276D01*
X11177790Y-13715848D01*
X11158743Y-13734895D01*
X11139695Y-13744419D01*
X11339695Y-13868228D02*
X11349219Y-13877752D01*
X11339695Y-13887276D01*
X11330171Y-13877752D01*
X11339695Y-13868228D01*
X11339695Y-13887276D01*
X11473028Y-13687276D02*
X11492076Y-13687276D01*
X11511124Y-13696800D01*
X11520648Y-13706324D01*
X11530171Y-13725371D01*
X11539695Y-13763467D01*
X11539695Y-13811086D01*
X11530171Y-13849181D01*
X11520648Y-13868228D01*
X11511124Y-13877752D01*
X11492076Y-13887276D01*
X11473028Y-13887276D01*
X11453981Y-13877752D01*
X11444457Y-13868228D01*
X11434933Y-13849181D01*
X11425409Y-13811086D01*
X11425409Y-13763467D01*
X11434933Y-13725371D01*
X11444457Y-13706324D01*
X11453981Y-13696800D01*
X11473028Y-13687276D01*
X11663505Y-13687276D02*
X11682552Y-13687276D01*
X11701600Y-13696800D01*
X11711124Y-13706324D01*
X11720648Y-13725371D01*
X11730171Y-13763467D01*
X11730171Y-13811086D01*
X11720648Y-13849181D01*
X11711124Y-13868228D01*
X11701600Y-13877752D01*
X11682552Y-13887276D01*
X11663505Y-13887276D01*
X11644457Y-13877752D01*
X11634933Y-13868228D01*
X11625409Y-13849181D01*
X11615886Y-13811086D01*
X11615886Y-13763467D01*
X11625409Y-13725371D01*
X11634933Y-13706324D01*
X11644457Y-13696800D01*
X11663505Y-13687276D01*
X11853981Y-13687276D02*
X11873028Y-13687276D01*
X11892076Y-13696800D01*
X11901600Y-13706324D01*
X11911124Y-13725371D01*
X11920648Y-13763467D01*
X11920648Y-13811086D01*
X11911124Y-13849181D01*
X11901600Y-13868228D01*
X11892076Y-13877752D01*
X11873028Y-13887276D01*
X11853981Y-13887276D01*
X11834933Y-13877752D01*
X11825409Y-13868228D01*
X11815886Y-13849181D01*
X11806362Y-13811086D01*
X11806362Y-13763467D01*
X11815886Y-13725371D01*
X11825409Y-13706324D01*
X11834933Y-13696800D01*
X11853981Y-13687276D01*
X12006362Y-13887276D02*
X12006362Y-13753943D01*
X12006362Y-13772990D02*
X12015886Y-13763467D01*
X12034933Y-13753943D01*
X12063505Y-13753943D01*
X12082552Y-13763467D01*
X12092076Y-13782514D01*
X12092076Y-13887276D01*
X12092076Y-13782514D02*
X12101600Y-13763467D01*
X12120648Y-13753943D01*
X12149219Y-13753943D01*
X12168267Y-13763467D01*
X12177790Y-13782514D01*
X12177790Y-13887276D01*
X12273028Y-13887276D02*
X12273028Y-13753943D01*
X12273028Y-13772990D02*
X12282552Y-13763467D01*
X12301600Y-13753943D01*
X12330171Y-13753943D01*
X12349219Y-13763467D01*
X12358743Y-13782514D01*
X12358743Y-13887276D01*
X12358743Y-13782514D02*
X12368267Y-13763467D01*
X12387314Y-13753943D01*
X12415886Y-13753943D01*
X12434933Y-13763467D01*
X12444457Y-13782514D01*
X12444457Y-13887276D01*
X12834933Y-13677752D02*
X12663505Y-13934895D01*
X13092076Y-13687276D02*
X13111124Y-13687276D01*
X13130171Y-13696800D01*
X13139695Y-13706324D01*
X13149219Y-13725371D01*
X13158743Y-13763467D01*
X13158743Y-13811086D01*
X13149219Y-13849181D01*
X13139695Y-13868228D01*
X13130171Y-13877752D01*
X13111124Y-13887276D01*
X13092076Y-13887276D01*
X13073028Y-13877752D01*
X13063505Y-13868228D01*
X13053981Y-13849181D01*
X13044457Y-13811086D01*
X13044457Y-13763467D01*
X13053981Y-13725371D01*
X13063505Y-13706324D01*
X13073028Y-13696800D01*
X13092076Y-13687276D01*
X13244457Y-13868228D02*
X13253981Y-13877752D01*
X13244457Y-13887276D01*
X13234933Y-13877752D01*
X13244457Y-13868228D01*
X13244457Y-13887276D01*
X13377790Y-13687276D02*
X13396838Y-13687276D01*
X13415886Y-13696800D01*
X13425409Y-13706324D01*
X13434933Y-13725371D01*
X13444457Y-13763467D01*
X13444457Y-13811086D01*
X13434933Y-13849181D01*
X13425409Y-13868228D01*
X13415886Y-13877752D01*
X13396838Y-13887276D01*
X13377790Y-13887276D01*
X13358743Y-13877752D01*
X13349219Y-13868228D01*
X13339695Y-13849181D01*
X13330171Y-13811086D01*
X13330171Y-13763467D01*
X13339695Y-13725371D01*
X13349219Y-13706324D01*
X13358743Y-13696800D01*
X13377790Y-13687276D01*
X13511124Y-13687276D02*
X13634933Y-13687276D01*
X13568267Y-13763467D01*
X13596838Y-13763467D01*
X13615886Y-13772990D01*
X13625409Y-13782514D01*
X13634933Y-13801562D01*
X13634933Y-13849181D01*
X13625409Y-13868228D01*
X13615886Y-13877752D01*
X13596838Y-13887276D01*
X13539695Y-13887276D01*
X13520648Y-13877752D01*
X13511124Y-13868228D01*
X13730171Y-13887276D02*
X13768267Y-13887276D01*
X13787314Y-13877752D01*
X13796838Y-13868228D01*
X13815886Y-13839657D01*
X13825409Y-13801562D01*
X13825409Y-13725371D01*
X13815886Y-13706324D01*
X13806362Y-13696800D01*
X13787314Y-13687276D01*
X13749219Y-13687276D01*
X13730171Y-13696800D01*
X13720648Y-13706324D01*
X13711124Y-13725371D01*
X13711124Y-13772990D01*
X13720648Y-13792038D01*
X13730171Y-13801562D01*
X13749219Y-13811086D01*
X13787314Y-13811086D01*
X13806362Y-13801562D01*
X13815886Y-13792038D01*
X13825409Y-13772990D01*
X13996838Y-13753943D02*
X13996838Y-13887276D01*
X13949219Y-13677752D02*
X13901600Y-13820609D01*
X14025409Y-13820609D01*
X14092076Y-13687276D02*
X14092076Y-13725371D01*
X14168267Y-13687276D02*
X14168267Y-13725371D01*
X14463505Y-13963467D02*
X14453981Y-13953943D01*
X14434933Y-13925371D01*
X14425409Y-13906324D01*
X14415886Y-13877752D01*
X14406362Y-13830133D01*
X14406362Y-13792038D01*
X14415886Y-13744419D01*
X14425409Y-13715848D01*
X14434933Y-13696800D01*
X14453981Y-13668228D01*
X14463505Y-13658705D01*
X14644457Y-13887276D02*
X14530171Y-13887276D01*
X14587314Y-13887276D02*
X14587314Y-13687276D01*
X14568267Y-13715848D01*
X14549219Y-13734895D01*
X14530171Y-13744419D01*
X14768267Y-13687276D02*
X14787314Y-13687276D01*
X14806362Y-13696800D01*
X14815886Y-13706324D01*
X14825409Y-13725371D01*
X14834933Y-13763467D01*
X14834933Y-13811086D01*
X14825409Y-13849181D01*
X14815886Y-13868228D01*
X14806362Y-13877752D01*
X14787314Y-13887276D01*
X14768267Y-13887276D01*
X14749219Y-13877752D01*
X14739695Y-13868228D01*
X14730171Y-13849181D01*
X14720648Y-13811086D01*
X14720648Y-13763467D01*
X14730171Y-13725371D01*
X14739695Y-13706324D01*
X14749219Y-13696800D01*
X14768267Y-13687276D01*
X15073028Y-13887276D02*
X15073028Y-13687276D01*
X15158743Y-13887276D02*
X15158743Y-13782514D01*
X15149219Y-13763467D01*
X15130171Y-13753943D01*
X15101600Y-13753943D01*
X15082552Y-13763467D01*
X15073028Y-13772990D01*
X15282552Y-13887276D02*
X15263505Y-13877752D01*
X15253981Y-13868228D01*
X15244457Y-13849181D01*
X15244457Y-13792038D01*
X15253981Y-13772990D01*
X15263505Y-13763467D01*
X15282552Y-13753943D01*
X15311124Y-13753943D01*
X15330171Y-13763467D01*
X15339695Y-13772990D01*
X15349219Y-13792038D01*
X15349219Y-13849181D01*
X15339695Y-13868228D01*
X15330171Y-13877752D01*
X15311124Y-13887276D01*
X15282552Y-13887276D01*
X15463505Y-13887276D02*
X15444457Y-13877752D01*
X15434933Y-13858705D01*
X15434933Y-13687276D01*
X15615886Y-13877752D02*
X15596838Y-13887276D01*
X15558743Y-13887276D01*
X15539695Y-13877752D01*
X15530171Y-13858705D01*
X15530171Y-13782514D01*
X15539695Y-13763467D01*
X15558743Y-13753943D01*
X15596838Y-13753943D01*
X15615886Y-13763467D01*
X15625409Y-13782514D01*
X15625409Y-13801562D01*
X15530171Y-13820609D01*
X15701600Y-13877752D02*
X15720648Y-13887276D01*
X15758743Y-13887276D01*
X15777790Y-13877752D01*
X15787314Y-13858705D01*
X15787314Y-13849181D01*
X15777790Y-13830133D01*
X15758743Y-13820609D01*
X15730171Y-13820609D01*
X15711124Y-13811086D01*
X15701600Y-13792038D01*
X15701600Y-13782514D01*
X15711124Y-13763467D01*
X15730171Y-13753943D01*
X15758743Y-13753943D01*
X15777790Y-13763467D01*
X15853981Y-13963467D02*
X15863505Y-13953943D01*
X15882552Y-13925371D01*
X15892076Y-13906324D01*
X15901600Y-13877752D01*
X15911124Y-13830133D01*
X15911124Y-13792038D01*
X15901600Y-13744419D01*
X15892076Y-13715848D01*
X15882552Y-13696800D01*
X15863505Y-13668228D01*
X15853981Y-13658705D01*
M02*
