G04 #@! TF.GenerationSoftware,KiCad,Pcbnew,(6.0.5)*
G04 #@! TF.CreationDate,2024-04-20T13:37:25+02:00*
G04 #@! TF.ProjectId,1541-RAMBoard2-FirstBank,31353431-2d52-4414-9d42-6f617264322d,rev?*
G04 #@! TF.SameCoordinates,Original*
G04 #@! TF.FileFunction,Copper,L1,Top*
G04 #@! TF.FilePolarity,Positive*
%FSLAX46Y46*%
G04 Gerber Fmt 4.6, Leading zero omitted, Abs format (unit mm)*
G04 Created by KiCad (PCBNEW (6.0.5)) date 2024-04-20 13:37:25*
%MOMM*%
%LPD*%
G01*
G04 APERTURE LIST*
G04 #@! TA.AperFunction,ComponentPad*
%ADD10R,1.700000X1.700000*%
G04 #@! TD*
G04 #@! TA.AperFunction,ComponentPad*
%ADD11O,1.700000X1.700000*%
G04 #@! TD*
G04 #@! TA.AperFunction,ComponentPad*
%ADD12R,2.400000X1.600000*%
G04 #@! TD*
G04 #@! TA.AperFunction,ComponentPad*
%ADD13O,2.400000X1.600000*%
G04 #@! TD*
G04 #@! TA.AperFunction,ComponentPad*
%ADD14C,1.600000*%
G04 #@! TD*
G04 #@! TA.AperFunction,ComponentPad*
%ADD15O,1.600000X1.600000*%
G04 #@! TD*
G04 #@! TA.AperFunction,ViaPad*
%ADD16C,0.800000*%
G04 #@! TD*
G04 #@! TA.AperFunction,Conductor*
%ADD17C,0.250000*%
G04 #@! TD*
G04 APERTURE END LIST*
D10*
X113030000Y-115819000D03*
D11*
X113030000Y-118359000D03*
D10*
X116840000Y-115819000D03*
D11*
X116840000Y-118359000D03*
D12*
X156469000Y-121681000D03*
D13*
X156469000Y-119141000D03*
X156469000Y-116601000D03*
X156469000Y-114061000D03*
X156469000Y-111521000D03*
X156469000Y-108981000D03*
X156469000Y-106441000D03*
X156469000Y-103901000D03*
X156469000Y-101361000D03*
X156469000Y-98821000D03*
X156469000Y-96281000D03*
X156469000Y-93741000D03*
X156469000Y-91201000D03*
X156469000Y-88661000D03*
X141229000Y-88661000D03*
X141229000Y-91201000D03*
X141229000Y-93741000D03*
X141229000Y-96281000D03*
X141229000Y-98821000D03*
X141229000Y-101361000D03*
X141229000Y-103901000D03*
X141229000Y-106441000D03*
X141229000Y-108981000D03*
X141229000Y-111521000D03*
X141229000Y-114061000D03*
X141229000Y-116601000D03*
X141229000Y-119141000D03*
X141229000Y-121681000D03*
D12*
X160121000Y-121681000D03*
D13*
X160121000Y-119141000D03*
X160121000Y-116601000D03*
X160121000Y-114061000D03*
X160121000Y-111521000D03*
X160121000Y-108981000D03*
X160121000Y-106441000D03*
X160121000Y-103901000D03*
X160121000Y-101361000D03*
X160121000Y-98821000D03*
X160121000Y-96281000D03*
X160121000Y-93741000D03*
X160121000Y-91201000D03*
X160121000Y-88661000D03*
X144881000Y-88661000D03*
X144881000Y-91201000D03*
X144881000Y-93741000D03*
X144881000Y-96281000D03*
X144881000Y-98821000D03*
X144881000Y-101361000D03*
X144881000Y-103901000D03*
X144881000Y-106441000D03*
X144881000Y-108981000D03*
X144881000Y-111521000D03*
X144881000Y-114061000D03*
X144881000Y-116601000D03*
X144881000Y-119141000D03*
X144881000Y-121681000D03*
D10*
X163830000Y-91186000D03*
D11*
X163830000Y-88646000D03*
D12*
X118608000Y-110754000D03*
D13*
X118608000Y-108214000D03*
X118608000Y-105674000D03*
X118608000Y-103134000D03*
X118608000Y-100594000D03*
X118608000Y-98054000D03*
X118608000Y-95514000D03*
X118608000Y-92974000D03*
X110988000Y-92974000D03*
X110988000Y-95514000D03*
X110988000Y-98054000D03*
X110988000Y-100594000D03*
X110988000Y-103134000D03*
X110988000Y-105674000D03*
X110988000Y-108214000D03*
X110988000Y-110754000D03*
D10*
X163830000Y-98811000D03*
D11*
X163830000Y-96271000D03*
D14*
X163830000Y-103632000D03*
D15*
X163830000Y-111252000D03*
D14*
X163830000Y-113792000D03*
D15*
X163830000Y-121412000D03*
D12*
X137673000Y-121681000D03*
D13*
X137673000Y-119141000D03*
X137673000Y-116601000D03*
X137673000Y-114061000D03*
X137673000Y-111521000D03*
X137673000Y-108981000D03*
X137673000Y-106441000D03*
X137673000Y-103901000D03*
X137673000Y-101361000D03*
X137673000Y-98821000D03*
X137673000Y-96281000D03*
X137673000Y-93741000D03*
X137673000Y-91201000D03*
X137673000Y-88661000D03*
X122433000Y-88661000D03*
X122433000Y-91201000D03*
X122433000Y-93741000D03*
X122433000Y-96281000D03*
X122433000Y-98821000D03*
X122433000Y-101361000D03*
X122433000Y-103901000D03*
X122433000Y-106441000D03*
X122433000Y-108981000D03*
X122433000Y-111521000D03*
X122433000Y-114061000D03*
X122433000Y-116601000D03*
X122433000Y-119141000D03*
X122433000Y-121681000D03*
D10*
X116078000Y-123952000D03*
D11*
X113538000Y-123952000D03*
D16*
X153297000Y-116359100D03*
X115953600Y-113227900D03*
X142937900Y-120411000D03*
X147098500Y-111338200D03*
X142407600Y-107759300D03*
X139357300Y-94660300D03*
X139699500Y-92346100D03*
X124687400Y-108226600D03*
X115854300Y-121306300D03*
X152506400Y-107032400D03*
D17*
X113538000Y-123952000D02*
X114714900Y-123952000D01*
X118013900Y-122033200D02*
X120906100Y-119141000D01*
X115776700Y-122033200D02*
X118013900Y-122033200D01*
X114714900Y-123095000D02*
X115776700Y-122033200D01*
X122433000Y-119141000D02*
X120906100Y-119141000D01*
X114714900Y-123952000D02*
X114714900Y-123095000D01*
X122433000Y-121681000D02*
X123959900Y-121681000D01*
X162291000Y-115331000D02*
X163830000Y-113792000D01*
X112514900Y-110754000D02*
X114988800Y-113227900D01*
X141229000Y-121681000D02*
X139702100Y-121681000D01*
X138938700Y-120483400D02*
X139702100Y-121246800D01*
X125157500Y-120483400D02*
X138938700Y-120483400D01*
X153297000Y-116359100D02*
X154325100Y-115331000D01*
X110988000Y-110754000D02*
X112514900Y-110754000D01*
X154325100Y-115331000D02*
X162291000Y-115331000D01*
X114988800Y-113227900D02*
X115953600Y-113227900D01*
X123959900Y-121681000D02*
X125157500Y-120483400D01*
X139702100Y-121246800D02*
X139702100Y-121681000D01*
X144881000Y-121681000D02*
X141229000Y-121681000D01*
X116840000Y-115819000D02*
X113030000Y-115819000D01*
X160121000Y-88661000D02*
X156469000Y-88661000D01*
X153672100Y-120411000D02*
X154942100Y-119141000D01*
X156469000Y-119141000D02*
X160121000Y-119141000D01*
X156469000Y-119141000D02*
X154942100Y-119141000D01*
X142937900Y-120411000D02*
X153672100Y-120411000D01*
X156469000Y-116601000D02*
X154942100Y-116601000D01*
X137673000Y-116601000D02*
X139199900Y-116601000D01*
X153812800Y-117730300D02*
X154942100Y-116601000D01*
X140329200Y-117730300D02*
X153812800Y-117730300D01*
X160121000Y-116601000D02*
X156469000Y-116601000D01*
X139199900Y-116601000D02*
X140329200Y-117730300D01*
X138863500Y-115251500D02*
X153751600Y-115251500D01*
X156469000Y-114061000D02*
X154942100Y-114061000D01*
X160121000Y-114061000D02*
X156469000Y-114061000D01*
X153751600Y-115251500D02*
X154942100Y-114061000D01*
X137673000Y-114061000D02*
X138863500Y-115251500D01*
X154759300Y-111338200D02*
X154942100Y-111521000D01*
X160121000Y-111521000D02*
X156469000Y-111521000D01*
X147098500Y-111338200D02*
X154759300Y-111338200D01*
X156469000Y-111521000D02*
X154942100Y-111521000D01*
X139554600Y-110115500D02*
X138420100Y-108981000D01*
X154942100Y-108981000D02*
X153807600Y-110115500D01*
X160121000Y-108981000D02*
X156469000Y-108981000D01*
X156469000Y-108981000D02*
X154942100Y-108981000D01*
X138420100Y-108981000D02*
X137673000Y-108981000D01*
X153807600Y-110115500D02*
X139554600Y-110115500D01*
X156469000Y-106441000D02*
X160121000Y-106441000D01*
X154942100Y-106441000D02*
X153623800Y-107759300D01*
X156469000Y-106441000D02*
X154942100Y-106441000D01*
X153623800Y-107759300D02*
X142407600Y-107759300D01*
X160121000Y-103901000D02*
X156469000Y-103901000D01*
X156469000Y-101361000D02*
X160121000Y-101361000D01*
X160121000Y-98821000D02*
X156469000Y-98821000D01*
X160121000Y-96281000D02*
X156469000Y-96281000D01*
X139357300Y-94660300D02*
X139620200Y-94923200D01*
X153759900Y-94923200D02*
X154942100Y-93741000D01*
X156469000Y-93741000D02*
X154942100Y-93741000D01*
X139620200Y-94923200D02*
X153759900Y-94923200D01*
X160121000Y-93741000D02*
X156469000Y-93741000D01*
X156469000Y-91201000D02*
X154942100Y-91201000D01*
X160121000Y-91201000D02*
X156469000Y-91201000D01*
X139699500Y-92346100D02*
X153797000Y-92346100D01*
X153797000Y-92346100D02*
X154942100Y-91201000D01*
X123959900Y-88661000D02*
X125103000Y-87517900D01*
X138559000Y-87517900D02*
X139702100Y-88661000D01*
X141229000Y-88661000D02*
X139702100Y-88661000D01*
X122433000Y-88661000D02*
X123959900Y-88661000D01*
X144881000Y-88661000D02*
X141229000Y-88661000D01*
X125103000Y-87517900D02*
X138559000Y-87517900D01*
X125150400Y-90010500D02*
X138484000Y-90010500D01*
X123959900Y-91201000D02*
X125150400Y-90010500D01*
X144881000Y-91201000D02*
X141229000Y-91201000D01*
X138484000Y-90010500D02*
X139674500Y-91201000D01*
X122433000Y-91201000D02*
X123959900Y-91201000D01*
X141229000Y-91201000D02*
X139702100Y-91201000D01*
X139674500Y-91201000D02*
X139702100Y-91201000D01*
X125150400Y-92550500D02*
X138511600Y-92550500D01*
X141229000Y-93741000D02*
X139702100Y-93741000D01*
X122433000Y-93741000D02*
X123959900Y-93741000D01*
X123959900Y-93741000D02*
X125150400Y-92550500D01*
X144881000Y-93741000D02*
X141229000Y-93741000D01*
X138511600Y-92550500D02*
X139702100Y-93741000D01*
X141229000Y-96281000D02*
X139702100Y-96281000D01*
X139702100Y-96281000D02*
X138511600Y-95090500D01*
X138511600Y-95090500D02*
X125150400Y-95090500D01*
X144881000Y-96281000D02*
X141229000Y-96281000D01*
X125150400Y-95090500D02*
X123959900Y-96281000D01*
X122433000Y-96281000D02*
X123959900Y-96281000D01*
X144881000Y-98821000D02*
X141229000Y-98821000D01*
X125150400Y-97630500D02*
X138511600Y-97630500D01*
X123959900Y-98821000D02*
X125150400Y-97630500D01*
X141229000Y-98821000D02*
X139702100Y-98821000D01*
X122433000Y-98821000D02*
X123959900Y-98821000D01*
X138511600Y-97630500D02*
X139702100Y-98821000D01*
X110988000Y-98054000D02*
X112514900Y-98054000D01*
X141229000Y-101361000D02*
X139702100Y-101361000D01*
X112514900Y-98054000D02*
X113784800Y-99323900D01*
X113784800Y-99323900D02*
X119510900Y-99323900D01*
X138486600Y-100145500D02*
X139702100Y-101361000D01*
X120332500Y-100145500D02*
X138486600Y-100145500D01*
X119510900Y-99323900D02*
X120332500Y-100145500D01*
X125150400Y-102710500D02*
X138511600Y-102710500D01*
X138511600Y-102710500D02*
X139702100Y-103901000D01*
X141229000Y-103901000D02*
X139702100Y-103901000D01*
X122433000Y-103901000D02*
X123959900Y-103901000D01*
X123959900Y-103901000D02*
X125150400Y-102710500D01*
X144881000Y-103901000D02*
X141229000Y-103901000D01*
X117081100Y-110754000D02*
X114541100Y-108214000D01*
X144881000Y-106441000D02*
X141229000Y-106441000D01*
X141229000Y-106441000D02*
X139702100Y-106441000D01*
X118608000Y-110754000D02*
X117081100Y-110754000D01*
X123959900Y-106441000D02*
X125092900Y-105308000D01*
X114541100Y-108214000D02*
X110988000Y-108214000D01*
X125092900Y-105308000D02*
X138569100Y-105308000D01*
X138569100Y-105308000D02*
X139702100Y-106441000D01*
X122433000Y-106441000D02*
X123959900Y-106441000D01*
X123959900Y-108981000D02*
X124961000Y-108981000D01*
X124961000Y-108981000D02*
X126151400Y-107790600D01*
X141229000Y-108981000D02*
X139702100Y-108981000D01*
X122433000Y-108981000D02*
X123959900Y-108981000D01*
X138511700Y-107790600D02*
X139702100Y-108981000D01*
X126151400Y-107790600D02*
X138511700Y-107790600D01*
X144881000Y-108981000D02*
X141229000Y-108981000D01*
X123959900Y-111521000D02*
X125092200Y-110388700D01*
X125092200Y-110388700D02*
X138569800Y-110388700D01*
X122433000Y-111521000D02*
X123959900Y-111521000D01*
X138569800Y-110388700D02*
X139702100Y-111521000D01*
X141229000Y-111521000D02*
X139702100Y-111521000D01*
X144881000Y-111521000D02*
X141229000Y-111521000D01*
X125150400Y-112870500D02*
X123959900Y-114061000D01*
X138511600Y-112870500D02*
X125150400Y-112870500D01*
X141229000Y-114061000D02*
X139702100Y-114061000D01*
X144881000Y-114061000D02*
X141229000Y-114061000D01*
X139702100Y-114061000D02*
X138511600Y-112870500D01*
X122433000Y-114061000D02*
X123959900Y-114061000D01*
X118608000Y-108214000D02*
X120134900Y-108214000D01*
X144881000Y-116601000D02*
X141229000Y-116601000D01*
X120134900Y-108214000D02*
X120494800Y-107854100D01*
X120494800Y-107854100D02*
X124314900Y-107854100D01*
X124314900Y-107854100D02*
X124687400Y-108226600D01*
X110988000Y-105674000D02*
X114541100Y-105674000D01*
X120134900Y-102132200D02*
X120134900Y-103134000D01*
X118608000Y-103134000D02*
X117081100Y-103134000D01*
X118608000Y-103134000D02*
X120134900Y-103134000D01*
X114541100Y-105674000D02*
X117081100Y-103134000D01*
X120906100Y-101361000D02*
X120134900Y-102132200D01*
X122433000Y-101361000D02*
X120906100Y-101361000D01*
X119148100Y-118359000D02*
X116840000Y-118359000D01*
X120906100Y-116601000D02*
X119148100Y-118359000D01*
X122433000Y-116601000D02*
X120906100Y-116601000D01*
X115854300Y-121306300D02*
X114083900Y-119535900D01*
X113030000Y-118359000D02*
X113030000Y-119535900D01*
X114083900Y-119535900D02*
X113030000Y-119535900D01*
X158700100Y-120554100D02*
X157995900Y-121258300D01*
X163830000Y-121412000D02*
X162703100Y-121412000D01*
X157995900Y-121258300D02*
X157995900Y-121681000D01*
X162703100Y-121412000D02*
X161845200Y-120554100D01*
X156469000Y-121681000D02*
X157995900Y-121681000D01*
X161845200Y-120554100D02*
X158700100Y-120554100D01*
X154510900Y-105027900D02*
X152506400Y-107032400D01*
X165006900Y-90190600D02*
X165006900Y-102455100D01*
X163830000Y-89822900D02*
X164639200Y-89822900D01*
X165006900Y-102455100D02*
X163830000Y-103632000D01*
X164639200Y-89822900D02*
X165006900Y-90190600D01*
X163830000Y-103632000D02*
X162434100Y-105027900D01*
X163830000Y-88646000D02*
X163830000Y-89822900D01*
X162434100Y-105027900D02*
X154510900Y-105027900D01*
G04 #@! TA.AperFunction,Conductor*
G36*
X167073621Y-86126502D02*
G01*
X167120114Y-86180158D01*
X167131500Y-86232500D01*
X167131500Y-125603500D01*
X167111498Y-125671621D01*
X167057842Y-125718114D01*
X167005500Y-125729500D01*
X109600500Y-125729500D01*
X109532379Y-125709498D01*
X109485886Y-125655842D01*
X109474500Y-125603500D01*
X109474500Y-115546885D01*
X111672000Y-115546885D01*
X111676475Y-115562124D01*
X111677865Y-115563329D01*
X111685548Y-115565000D01*
X112757885Y-115565000D01*
X112773124Y-115560525D01*
X112774329Y-115559135D01*
X112776000Y-115551452D01*
X112776000Y-115546885D01*
X113284000Y-115546885D01*
X113288475Y-115562124D01*
X113289865Y-115563329D01*
X113297548Y-115565000D01*
X114369884Y-115565000D01*
X114385123Y-115560525D01*
X114386328Y-115559135D01*
X114387999Y-115551452D01*
X114387999Y-115546885D01*
X115482000Y-115546885D01*
X115486475Y-115562124D01*
X115487865Y-115563329D01*
X115495548Y-115565000D01*
X116567885Y-115565000D01*
X116583124Y-115560525D01*
X116584329Y-115559135D01*
X116586000Y-115551452D01*
X116586000Y-115546885D01*
X117094000Y-115546885D01*
X117098475Y-115562124D01*
X117099865Y-115563329D01*
X117107548Y-115565000D01*
X118179884Y-115565000D01*
X118195123Y-115560525D01*
X118196328Y-115559135D01*
X118197999Y-115551452D01*
X118197999Y-114924331D01*
X118197629Y-114917510D01*
X118192105Y-114866648D01*
X118188479Y-114851396D01*
X118143324Y-114730946D01*
X118134786Y-114715351D01*
X118058285Y-114613276D01*
X118045724Y-114600715D01*
X117943649Y-114524214D01*
X117928054Y-114515676D01*
X117807606Y-114470522D01*
X117792351Y-114466895D01*
X117741486Y-114461369D01*
X117734672Y-114461000D01*
X117112115Y-114461000D01*
X117096876Y-114465475D01*
X117095671Y-114466865D01*
X117094000Y-114474548D01*
X117094000Y-115546885D01*
X116586000Y-115546885D01*
X116586000Y-114479116D01*
X116581525Y-114463877D01*
X116580135Y-114462672D01*
X116572452Y-114461001D01*
X115945331Y-114461001D01*
X115938510Y-114461371D01*
X115887648Y-114466895D01*
X115872396Y-114470521D01*
X115751946Y-114515676D01*
X115736351Y-114524214D01*
X115634276Y-114600715D01*
X115621715Y-114613276D01*
X115545214Y-114715351D01*
X115536676Y-114730946D01*
X115491522Y-114851394D01*
X115487895Y-114866649D01*
X115482369Y-114917514D01*
X115482000Y-114924328D01*
X115482000Y-115546885D01*
X114387999Y-115546885D01*
X114387999Y-114924331D01*
X114387629Y-114917510D01*
X114382105Y-114866648D01*
X114378479Y-114851396D01*
X114333324Y-114730946D01*
X114324786Y-114715351D01*
X114248285Y-114613276D01*
X114235724Y-114600715D01*
X114133649Y-114524214D01*
X114118054Y-114515676D01*
X113997606Y-114470522D01*
X113982351Y-114466895D01*
X113931486Y-114461369D01*
X113924672Y-114461000D01*
X113302115Y-114461000D01*
X113286876Y-114465475D01*
X113285671Y-114466865D01*
X113284000Y-114474548D01*
X113284000Y-115546885D01*
X112776000Y-115546885D01*
X112776000Y-114479116D01*
X112771525Y-114463877D01*
X112770135Y-114462672D01*
X112762452Y-114461001D01*
X112135331Y-114461001D01*
X112128510Y-114461371D01*
X112077648Y-114466895D01*
X112062396Y-114470521D01*
X111941946Y-114515676D01*
X111926351Y-114524214D01*
X111824276Y-114600715D01*
X111811715Y-114613276D01*
X111735214Y-114715351D01*
X111726676Y-114730946D01*
X111681522Y-114851394D01*
X111677895Y-114866649D01*
X111672369Y-114917514D01*
X111672000Y-114924328D01*
X111672000Y-115546885D01*
X109474500Y-115546885D01*
X109474500Y-111795188D01*
X109494502Y-111727067D01*
X109548158Y-111680574D01*
X109618432Y-111670470D01*
X109683012Y-111699964D01*
X109689595Y-111706093D01*
X109743700Y-111760198D01*
X109748208Y-111763355D01*
X109748211Y-111763357D01*
X109789542Y-111792297D01*
X109931251Y-111891523D01*
X109936233Y-111893846D01*
X109936238Y-111893849D01*
X110112733Y-111976149D01*
X110138757Y-111988284D01*
X110144065Y-111989706D01*
X110144067Y-111989707D01*
X110354598Y-112046119D01*
X110354600Y-112046119D01*
X110359913Y-112047543D01*
X110453663Y-112055745D01*
X110528149Y-112062262D01*
X110528156Y-112062262D01*
X110530873Y-112062500D01*
X111445127Y-112062500D01*
X111447844Y-112062262D01*
X111447851Y-112062262D01*
X111522337Y-112055745D01*
X111616087Y-112047543D01*
X111621400Y-112046119D01*
X111621402Y-112046119D01*
X111831933Y-111989707D01*
X111831935Y-111989706D01*
X111837243Y-111988284D01*
X111863267Y-111976149D01*
X112039762Y-111893849D01*
X112039767Y-111893846D01*
X112044749Y-111891523D01*
X112186458Y-111792297D01*
X112227789Y-111763357D01*
X112227792Y-111763355D01*
X112232300Y-111760198D01*
X112339652Y-111652846D01*
X112401964Y-111618820D01*
X112472779Y-111623885D01*
X112517842Y-111652846D01*
X113517146Y-112652151D01*
X114485148Y-113620153D01*
X114492688Y-113628439D01*
X114496800Y-113634918D01*
X114502577Y-113640343D01*
X114546451Y-113681543D01*
X114549293Y-113684298D01*
X114569030Y-113704035D01*
X114572227Y-113706515D01*
X114581247Y-113714218D01*
X114613479Y-113744486D01*
X114620425Y-113748305D01*
X114620428Y-113748307D01*
X114631234Y-113754248D01*
X114647753Y-113765099D01*
X114663759Y-113777514D01*
X114671028Y-113780659D01*
X114671032Y-113780662D01*
X114704337Y-113795074D01*
X114714987Y-113800291D01*
X114753740Y-113821595D01*
X114761415Y-113823566D01*
X114761416Y-113823566D01*
X114773362Y-113826633D01*
X114792067Y-113833037D01*
X114810655Y-113841081D01*
X114818478Y-113842320D01*
X114818488Y-113842323D01*
X114854324Y-113847999D01*
X114865944Y-113850405D01*
X114901089Y-113859428D01*
X114908770Y-113861400D01*
X114929024Y-113861400D01*
X114948734Y-113862951D01*
X114968743Y-113866120D01*
X114976635Y-113865374D01*
X115012761Y-113861959D01*
X115024619Y-113861400D01*
X115245400Y-113861400D01*
X115313521Y-113881402D01*
X115332747Y-113897743D01*
X115333020Y-113897440D01*
X115337932Y-113901863D01*
X115342347Y-113906766D01*
X115363929Y-113922446D01*
X115490780Y-114014609D01*
X115496848Y-114019018D01*
X115502876Y-114021702D01*
X115502878Y-114021703D01*
X115641765Y-114083539D01*
X115671312Y-114096694D01*
X115764712Y-114116547D01*
X115851656Y-114135028D01*
X115851661Y-114135028D01*
X115858113Y-114136400D01*
X116049087Y-114136400D01*
X116055539Y-114135028D01*
X116055544Y-114135028D01*
X116142488Y-114116547D01*
X116235888Y-114096694D01*
X116265435Y-114083539D01*
X116404322Y-114021703D01*
X116404324Y-114021702D01*
X116410352Y-114019018D01*
X116416421Y-114014609D01*
X116465757Y-113978764D01*
X116564853Y-113906766D01*
X116601451Y-113866120D01*
X116688221Y-113769752D01*
X116688222Y-113769751D01*
X116692640Y-113764844D01*
X116781025Y-113611757D01*
X116784823Y-113605179D01*
X116784824Y-113605178D01*
X116788127Y-113599456D01*
X116847142Y-113417828D01*
X116851501Y-113376360D01*
X116866414Y-113234465D01*
X116867104Y-113227900D01*
X116860194Y-113162154D01*
X116847832Y-113044535D01*
X116847832Y-113044533D01*
X116847142Y-113037972D01*
X116788127Y-112856344D01*
X116692640Y-112690956D01*
X116679899Y-112676805D01*
X116569275Y-112553945D01*
X116569274Y-112553944D01*
X116564853Y-112549034D01*
X116432048Y-112452545D01*
X116415694Y-112440663D01*
X116415693Y-112440662D01*
X116410352Y-112436782D01*
X116404324Y-112434098D01*
X116404322Y-112434097D01*
X116241919Y-112361791D01*
X116241918Y-112361791D01*
X116235888Y-112359106D01*
X116131545Y-112336927D01*
X116055544Y-112320772D01*
X116055539Y-112320772D01*
X116049087Y-112319400D01*
X115858113Y-112319400D01*
X115851661Y-112320772D01*
X115851656Y-112320772D01*
X115775655Y-112336927D01*
X115671312Y-112359106D01*
X115665282Y-112361791D01*
X115665281Y-112361791D01*
X115502878Y-112434097D01*
X115502876Y-112434098D01*
X115496848Y-112436782D01*
X115491507Y-112440662D01*
X115491506Y-112440663D01*
X115350343Y-112543224D01*
X115283475Y-112567083D01*
X115214324Y-112551002D01*
X115187187Y-112530383D01*
X114131412Y-111474607D01*
X113018552Y-110361747D01*
X113011012Y-110353461D01*
X113006900Y-110346982D01*
X112957248Y-110300356D01*
X112954407Y-110297602D01*
X112934670Y-110277865D01*
X112931473Y-110275385D01*
X112922451Y-110267680D01*
X112890221Y-110237414D01*
X112883275Y-110233595D01*
X112883272Y-110233593D01*
X112872466Y-110227652D01*
X112855947Y-110216801D01*
X112853991Y-110215284D01*
X112839941Y-110204386D01*
X112832672Y-110201241D01*
X112832668Y-110201238D01*
X112799363Y-110186826D01*
X112788713Y-110181609D01*
X112749960Y-110160305D01*
X112730337Y-110155267D01*
X112711634Y-110148863D01*
X112700320Y-110143967D01*
X112700319Y-110143967D01*
X112693045Y-110140819D01*
X112685222Y-110139580D01*
X112685212Y-110139577D01*
X112649376Y-110133901D01*
X112637756Y-110131495D01*
X112602611Y-110122472D01*
X112602610Y-110122472D01*
X112594930Y-110120500D01*
X112591129Y-110120500D01*
X112527735Y-110092852D01*
X112505390Y-110068498D01*
X112397357Y-109914211D01*
X112397355Y-109914208D01*
X112394198Y-109909700D01*
X112232300Y-109747802D01*
X112227792Y-109744645D01*
X112227789Y-109744643D01*
X112091195Y-109648999D01*
X112044749Y-109616477D01*
X112039767Y-109614154D01*
X112039762Y-109614151D01*
X112005543Y-109598195D01*
X111952258Y-109551278D01*
X111932797Y-109483001D01*
X111953339Y-109415041D01*
X112005543Y-109369805D01*
X112039762Y-109353849D01*
X112039767Y-109353846D01*
X112044749Y-109351523D01*
X112213289Y-109233510D01*
X112227789Y-109223357D01*
X112227792Y-109223355D01*
X112232300Y-109220198D01*
X112394198Y-109058300D01*
X112444491Y-108986475D01*
X112504181Y-108901229D01*
X112559638Y-108856901D01*
X112607394Y-108847500D01*
X114226506Y-108847500D01*
X114294627Y-108867502D01*
X114315601Y-108884405D01*
X116577443Y-111146247D01*
X116584987Y-111154537D01*
X116589100Y-111161018D01*
X116594877Y-111166443D01*
X116638767Y-111207658D01*
X116641609Y-111210413D01*
X116661330Y-111230134D01*
X116664525Y-111232612D01*
X116673547Y-111240318D01*
X116705779Y-111270586D01*
X116712728Y-111274406D01*
X116723532Y-111280346D01*
X116740056Y-111291199D01*
X116756059Y-111303613D01*
X116796643Y-111321176D01*
X116807273Y-111326383D01*
X116834202Y-111341187D01*
X116884259Y-111391531D01*
X116899500Y-111451601D01*
X116899500Y-111602134D01*
X116906255Y-111664316D01*
X116957385Y-111800705D01*
X117044739Y-111917261D01*
X117161295Y-112004615D01*
X117297684Y-112055745D01*
X117359866Y-112062500D01*
X119856134Y-112062500D01*
X119918316Y-112055745D01*
X120054705Y-112004615D01*
X120171261Y-111917261D01*
X120258615Y-111800705D01*
X120309745Y-111664316D01*
X120316500Y-111602134D01*
X120316500Y-109905866D01*
X120309745Y-109843684D01*
X120258615Y-109707295D01*
X120171261Y-109590739D01*
X120054705Y-109503385D01*
X119918316Y-109452255D01*
X119907526Y-109451083D01*
X119905394Y-109450197D01*
X119902778Y-109449575D01*
X119902879Y-109449152D01*
X119841965Y-109423845D01*
X119801537Y-109365483D01*
X119799078Y-109294529D01*
X119835371Y-109233510D01*
X119844031Y-109226511D01*
X119847793Y-109223354D01*
X119852300Y-109220198D01*
X120014198Y-109058300D01*
X120125994Y-108898639D01*
X120181450Y-108854312D01*
X120219056Y-108846293D01*
X120219035Y-108846163D01*
X120221490Y-108845774D01*
X120225247Y-108844973D01*
X120226870Y-108844922D01*
X120234789Y-108844673D01*
X120254243Y-108839021D01*
X120273600Y-108835013D01*
X120285830Y-108833468D01*
X120285831Y-108833468D01*
X120293697Y-108832474D01*
X120301068Y-108829555D01*
X120301070Y-108829555D01*
X120334812Y-108816196D01*
X120346042Y-108812351D01*
X120380883Y-108802229D01*
X120380884Y-108802229D01*
X120388493Y-108800018D01*
X120395312Y-108795985D01*
X120395317Y-108795983D01*
X120405928Y-108789707D01*
X120423676Y-108781012D01*
X120442517Y-108773552D01*
X120478287Y-108747564D01*
X120488207Y-108741048D01*
X120519441Y-108722576D01*
X120526262Y-108718542D01*
X120530964Y-108713840D01*
X120596518Y-108688097D01*
X120666141Y-108701994D01*
X120717198Y-108751326D01*
X120733186Y-108824584D01*
X120726481Y-108901229D01*
X120719502Y-108981000D01*
X120739457Y-109209087D01*
X120740881Y-109214400D01*
X120740881Y-109214402D01*
X120797002Y-109423845D01*
X120798716Y-109430243D01*
X120801039Y-109435224D01*
X120801039Y-109435225D01*
X120893151Y-109632762D01*
X120893154Y-109632767D01*
X120895477Y-109637749D01*
X120930774Y-109688158D01*
X121010965Y-109802682D01*
X121026802Y-109825300D01*
X121188700Y-109987198D01*
X121193208Y-109990355D01*
X121193211Y-109990357D01*
X121271389Y-110045098D01*
X121376251Y-110118523D01*
X121381233Y-110120846D01*
X121381238Y-110120849D01*
X121415457Y-110136805D01*
X121468742Y-110183722D01*
X121488203Y-110251999D01*
X121467661Y-110319959D01*
X121415457Y-110365195D01*
X121381238Y-110381151D01*
X121381233Y-110381154D01*
X121376251Y-110383477D01*
X121335215Y-110412211D01*
X121193211Y-110511643D01*
X121193208Y-110511645D01*
X121188700Y-110514802D01*
X121026802Y-110676700D01*
X121023645Y-110681208D01*
X121023643Y-110681211D01*
X120984579Y-110737001D01*
X120895477Y-110864251D01*
X120893154Y-110869233D01*
X120893151Y-110869238D01*
X120804616Y-111059104D01*
X120798716Y-111071757D01*
X120797294Y-111077065D01*
X120797293Y-111077067D01*
X120744416Y-111274406D01*
X120739457Y-111292913D01*
X120719502Y-111521000D01*
X120739457Y-111749087D01*
X120740881Y-111754400D01*
X120740881Y-111754402D01*
X120792710Y-111947827D01*
X120798716Y-111970243D01*
X120801039Y-111975224D01*
X120801039Y-111975225D01*
X120893151Y-112172762D01*
X120893154Y-112172767D01*
X120895477Y-112177749D01*
X120949530Y-112254944D01*
X121011498Y-112343443D01*
X121026802Y-112365300D01*
X121188700Y-112527198D01*
X121193208Y-112530355D01*
X121193211Y-112530357D01*
X121271389Y-112585098D01*
X121376251Y-112658523D01*
X121381233Y-112660846D01*
X121381238Y-112660849D01*
X121415457Y-112676805D01*
X121468742Y-112723722D01*
X121488203Y-112791999D01*
X121467661Y-112859959D01*
X121415457Y-112905195D01*
X121381238Y-112921151D01*
X121381233Y-112921154D01*
X121376251Y-112923477D01*
X121335215Y-112952211D01*
X121193211Y-113051643D01*
X121193208Y-113051645D01*
X121188700Y-113054802D01*
X121026802Y-113216700D01*
X121023645Y-113221208D01*
X121023643Y-113221211D01*
X120998345Y-113257340D01*
X120895477Y-113404251D01*
X120893154Y-113409233D01*
X120893151Y-113409238D01*
X120808456Y-113590870D01*
X120798716Y-113611757D01*
X120797294Y-113617065D01*
X120797293Y-113617067D01*
X120741140Y-113826633D01*
X120739457Y-113832913D01*
X120719502Y-114061000D01*
X120739457Y-114289087D01*
X120740880Y-114294399D01*
X120740881Y-114294402D01*
X120793934Y-114492395D01*
X120798716Y-114510243D01*
X120801039Y-114515224D01*
X120801039Y-114515225D01*
X120893151Y-114712762D01*
X120893154Y-114712767D01*
X120895477Y-114717749D01*
X120951808Y-114798198D01*
X120999738Y-114866648D01*
X121026802Y-114905300D01*
X121188700Y-115067198D01*
X121193208Y-115070355D01*
X121193211Y-115070357D01*
X121214899Y-115085543D01*
X121376251Y-115198523D01*
X121381233Y-115200846D01*
X121381238Y-115200849D01*
X121415457Y-115216805D01*
X121468742Y-115263722D01*
X121488203Y-115331999D01*
X121467661Y-115399959D01*
X121415457Y-115445195D01*
X121381238Y-115461151D01*
X121381233Y-115461154D01*
X121376251Y-115463477D01*
X121271389Y-115536902D01*
X121193211Y-115591643D01*
X121193208Y-115591645D01*
X121188700Y-115594802D01*
X121026802Y-115756700D01*
X121023645Y-115761208D01*
X121023643Y-115761211D01*
X120915006Y-115916360D01*
X120859549Y-115960688D01*
X120821944Y-115968707D01*
X120821965Y-115968838D01*
X120819492Y-115969230D01*
X120815753Y-115970027D01*
X120814763Y-115970058D01*
X120806210Y-115970327D01*
X120788844Y-115975372D01*
X120786758Y-115975978D01*
X120767406Y-115979986D01*
X120755168Y-115981532D01*
X120755166Y-115981533D01*
X120747303Y-115982526D01*
X120706186Y-115998806D01*
X120694985Y-116002641D01*
X120652506Y-116014982D01*
X120645687Y-116019015D01*
X120645682Y-116019017D01*
X120635071Y-116025293D01*
X120617321Y-116033990D01*
X120598483Y-116041448D01*
X120592067Y-116046109D01*
X120592066Y-116046110D01*
X120562725Y-116067428D01*
X120552801Y-116073947D01*
X120521560Y-116092422D01*
X120521555Y-116092426D01*
X120514737Y-116096458D01*
X120500413Y-116110782D01*
X120485381Y-116123621D01*
X120468993Y-116135528D01*
X120446354Y-116162894D01*
X120440812Y-116169593D01*
X120432822Y-116178373D01*
X118922600Y-117688595D01*
X118860288Y-117722621D01*
X118833505Y-117725500D01*
X118116805Y-117725500D01*
X118048684Y-117705498D01*
X118011013Y-117667940D01*
X117922822Y-117531617D01*
X117922820Y-117531614D01*
X117920014Y-117527277D01*
X117916540Y-117523459D01*
X117916533Y-117523450D01*
X117772435Y-117365088D01*
X117741383Y-117301242D01*
X117749779Y-117230744D01*
X117794956Y-117175976D01*
X117821400Y-117162307D01*
X117928052Y-117122325D01*
X117943649Y-117113786D01*
X118045724Y-117037285D01*
X118058285Y-117024724D01*
X118134786Y-116922649D01*
X118143324Y-116907054D01*
X118188478Y-116786606D01*
X118192105Y-116771351D01*
X118197631Y-116720486D01*
X118198000Y-116713672D01*
X118198000Y-116091115D01*
X118193525Y-116075876D01*
X118192135Y-116074671D01*
X118184452Y-116073000D01*
X115500116Y-116073000D01*
X115484877Y-116077475D01*
X115483672Y-116078865D01*
X115482001Y-116086548D01*
X115482001Y-116713669D01*
X115482371Y-116720490D01*
X115487895Y-116771352D01*
X115491521Y-116786604D01*
X115536676Y-116907054D01*
X115545214Y-116922649D01*
X115621715Y-117024724D01*
X115634276Y-117037285D01*
X115736351Y-117113786D01*
X115751946Y-117122324D01*
X115860827Y-117163142D01*
X115917591Y-117205784D01*
X115942291Y-117272345D01*
X115927083Y-117341694D01*
X115907691Y-117368175D01*
X115809539Y-117470885D01*
X115780629Y-117501138D01*
X115654743Y-117685680D01*
X115639003Y-117719590D01*
X115568721Y-117871000D01*
X115560688Y-117888305D01*
X115500989Y-118103570D01*
X115477251Y-118325695D01*
X115477548Y-118330848D01*
X115477548Y-118330851D01*
X115488543Y-118521532D01*
X115490110Y-118548715D01*
X115491247Y-118553761D01*
X115491248Y-118553767D01*
X115504130Y-118610925D01*
X115539222Y-118766639D01*
X115596459Y-118907598D01*
X115620323Y-118966367D01*
X115623266Y-118973616D01*
X115638638Y-118998701D01*
X115725839Y-119141000D01*
X115739987Y-119164088D01*
X115886250Y-119332938D01*
X116058126Y-119475632D01*
X116251000Y-119588338D01*
X116255825Y-119590180D01*
X116255826Y-119590181D01*
X116276949Y-119598247D01*
X116459692Y-119668030D01*
X116464760Y-119669061D01*
X116464763Y-119669062D01*
X116552121Y-119686835D01*
X116678597Y-119712567D01*
X116683772Y-119712757D01*
X116683774Y-119712757D01*
X116896673Y-119720564D01*
X116896677Y-119720564D01*
X116901837Y-119720753D01*
X116906957Y-119720097D01*
X116906959Y-119720097D01*
X117118288Y-119693025D01*
X117118289Y-119693025D01*
X117123416Y-119692368D01*
X117128366Y-119690883D01*
X117332429Y-119629661D01*
X117332434Y-119629659D01*
X117337384Y-119628174D01*
X117537994Y-119529896D01*
X117719860Y-119400173D01*
X117878096Y-119242489D01*
X117937594Y-119159689D01*
X118005435Y-119065277D01*
X118008453Y-119061077D01*
X118010746Y-119056437D01*
X118012446Y-119053608D01*
X118064674Y-119005518D01*
X118120451Y-118992500D01*
X119069333Y-118992500D01*
X119080516Y-118993027D01*
X119088009Y-118994702D01*
X119095935Y-118994453D01*
X119095936Y-118994453D01*
X119156086Y-118992562D01*
X119160045Y-118992500D01*
X119187956Y-118992500D01*
X119191891Y-118992003D01*
X119191956Y-118991995D01*
X119203793Y-118991062D01*
X119236051Y-118990048D01*
X119240070Y-118989922D01*
X119247989Y-118989673D01*
X119267443Y-118984021D01*
X119286800Y-118980013D01*
X119299030Y-118978468D01*
X119299031Y-118978468D01*
X119306897Y-118977474D01*
X119314268Y-118974555D01*
X119314270Y-118974555D01*
X119348012Y-118961196D01*
X119359242Y-118957351D01*
X119394083Y-118947229D01*
X119394084Y-118947229D01*
X119401693Y-118945018D01*
X119408512Y-118940985D01*
X119408517Y-118940983D01*
X119419128Y-118934707D01*
X119436876Y-118926012D01*
X119455717Y-118918552D01*
X119491487Y-118892564D01*
X119501407Y-118886048D01*
X119532635Y-118867580D01*
X119532638Y-118867578D01*
X119539462Y-118863542D01*
X119553783Y-118849221D01*
X119568817Y-118836380D01*
X119578794Y-118829131D01*
X119585207Y-118824472D01*
X119613398Y-118790395D01*
X119621388Y-118781616D01*
X120903158Y-117499846D01*
X120965470Y-117465820D01*
X121036285Y-117470885D01*
X121081348Y-117499846D01*
X121188700Y-117607198D01*
X121193208Y-117610355D01*
X121193211Y-117610357D01*
X121271389Y-117665098D01*
X121376251Y-117738523D01*
X121381233Y-117740846D01*
X121381238Y-117740849D01*
X121415457Y-117756805D01*
X121468742Y-117803722D01*
X121488203Y-117871999D01*
X121467661Y-117939959D01*
X121415457Y-117985195D01*
X121381238Y-118001151D01*
X121381233Y-118001154D01*
X121376251Y-118003477D01*
X121271389Y-118076902D01*
X121193211Y-118131643D01*
X121193208Y-118131645D01*
X121188700Y-118134802D01*
X121026802Y-118296700D01*
X121023645Y-118301208D01*
X121023643Y-118301211D01*
X120915006Y-118456360D01*
X120859549Y-118500688D01*
X120821944Y-118508707D01*
X120821965Y-118508838D01*
X120819492Y-118509230D01*
X120815753Y-118510027D01*
X120814763Y-118510058D01*
X120806210Y-118510327D01*
X120788844Y-118515372D01*
X120786758Y-118515978D01*
X120767406Y-118519986D01*
X120755168Y-118521532D01*
X120755166Y-118521533D01*
X120747303Y-118522526D01*
X120706186Y-118538806D01*
X120694985Y-118542641D01*
X120652506Y-118554982D01*
X120645687Y-118559015D01*
X120645682Y-118559017D01*
X120635071Y-118565293D01*
X120617321Y-118573990D01*
X120598483Y-118581448D01*
X120592067Y-118586109D01*
X120592066Y-118586110D01*
X120562725Y-118607428D01*
X120552801Y-118613947D01*
X120521560Y-118632422D01*
X120521556Y-118632425D01*
X120514737Y-118636458D01*
X120500413Y-118650782D01*
X120485381Y-118663621D01*
X120468993Y-118675528D01*
X120440812Y-118709593D01*
X120432822Y-118718373D01*
X117788400Y-121362795D01*
X117726088Y-121396821D01*
X117699305Y-121399700D01*
X116891072Y-121399700D01*
X116822951Y-121379698D01*
X116776458Y-121326042D01*
X116765762Y-121286871D01*
X116748532Y-121122934D01*
X116748531Y-121122931D01*
X116747842Y-121116372D01*
X116688827Y-120934744D01*
X116669473Y-120901221D01*
X116635509Y-120842395D01*
X116593340Y-120769356D01*
X116465553Y-120627434D01*
X116311052Y-120515182D01*
X116305024Y-120512498D01*
X116305022Y-120512497D01*
X116142619Y-120440191D01*
X116142618Y-120440191D01*
X116136588Y-120437506D01*
X116016588Y-120411999D01*
X115956244Y-120399172D01*
X115956239Y-120399172D01*
X115949787Y-120397800D01*
X115893894Y-120397800D01*
X115825773Y-120377798D01*
X115804799Y-120360895D01*
X115201403Y-119757498D01*
X114587552Y-119143647D01*
X114580012Y-119135361D01*
X114575900Y-119128882D01*
X114526248Y-119082256D01*
X114523407Y-119079502D01*
X114503670Y-119059765D01*
X114500473Y-119057285D01*
X114491451Y-119049580D01*
X114465000Y-119024741D01*
X114459221Y-119019314D01*
X114452275Y-119015495D01*
X114452272Y-119015493D01*
X114441466Y-119009552D01*
X114424947Y-118998701D01*
X114416555Y-118992192D01*
X114408941Y-118986286D01*
X114379905Y-118973721D01*
X114325331Y-118928311D01*
X114303970Y-118860604D01*
X114309387Y-118821455D01*
X114324588Y-118771425D01*
X114362370Y-118647069D01*
X114391529Y-118425590D01*
X114393156Y-118359000D01*
X114374852Y-118136361D01*
X114320431Y-117919702D01*
X114231354Y-117714840D01*
X114110014Y-117527277D01*
X114106540Y-117523459D01*
X114106533Y-117523450D01*
X113962435Y-117365088D01*
X113931383Y-117301242D01*
X113939779Y-117230744D01*
X113984956Y-117175976D01*
X114011400Y-117162307D01*
X114118052Y-117122325D01*
X114133649Y-117113786D01*
X114235724Y-117037285D01*
X114248285Y-117024724D01*
X114324786Y-116922649D01*
X114333324Y-116907054D01*
X114378478Y-116786606D01*
X114382105Y-116771351D01*
X114387631Y-116720486D01*
X114388000Y-116713672D01*
X114388000Y-116091115D01*
X114383525Y-116075876D01*
X114382135Y-116074671D01*
X114374452Y-116073000D01*
X111690116Y-116073000D01*
X111674877Y-116077475D01*
X111673672Y-116078865D01*
X111672001Y-116086548D01*
X111672001Y-116713669D01*
X111672371Y-116720490D01*
X111677895Y-116771352D01*
X111681521Y-116786604D01*
X111726676Y-116907054D01*
X111735214Y-116922649D01*
X111811715Y-117024724D01*
X111824276Y-117037285D01*
X111926351Y-117113786D01*
X111941946Y-117122324D01*
X112050827Y-117163142D01*
X112107591Y-117205784D01*
X112132291Y-117272345D01*
X112117083Y-117341694D01*
X112097691Y-117368175D01*
X111999539Y-117470885D01*
X111970629Y-117501138D01*
X111844743Y-117685680D01*
X111829003Y-117719590D01*
X111758721Y-117871000D01*
X111750688Y-117888305D01*
X111690989Y-118103570D01*
X111667251Y-118325695D01*
X111667548Y-118330848D01*
X111667548Y-118330851D01*
X111678543Y-118521532D01*
X111680110Y-118548715D01*
X111681247Y-118553761D01*
X111681248Y-118553767D01*
X111694130Y-118610925D01*
X111729222Y-118766639D01*
X111786459Y-118907598D01*
X111810323Y-118966367D01*
X111813266Y-118973616D01*
X111828638Y-118998701D01*
X111915839Y-119141000D01*
X111929987Y-119164088D01*
X112076250Y-119332938D01*
X112248126Y-119475632D01*
X112335848Y-119526892D01*
X112338961Y-119528711D01*
X112387685Y-119580349D01*
X112401142Y-119629588D01*
X112402775Y-119655550D01*
X112405225Y-119663091D01*
X112405321Y-119663387D01*
X112410494Y-119686531D01*
X112410532Y-119686835D01*
X112410533Y-119686840D01*
X112411526Y-119694697D01*
X112414442Y-119702062D01*
X112414443Y-119702066D01*
X112432199Y-119746911D01*
X112434871Y-119754330D01*
X112452236Y-119807775D01*
X112456486Y-119814471D01*
X112456486Y-119814472D01*
X112456650Y-119814731D01*
X112467415Y-119835858D01*
X112467529Y-119836146D01*
X112467532Y-119836151D01*
X112470448Y-119843517D01*
X112475104Y-119849925D01*
X112475107Y-119849931D01*
X112503458Y-119888952D01*
X112507901Y-119895489D01*
X112538000Y-119942918D01*
X112543778Y-119948344D01*
X112543779Y-119948345D01*
X112544007Y-119948559D01*
X112559688Y-119966346D01*
X112564528Y-119973007D01*
X112570637Y-119978061D01*
X112570638Y-119978062D01*
X112607796Y-120008803D01*
X112613730Y-120014034D01*
X112648898Y-120047058D01*
X112648901Y-120047060D01*
X112654679Y-120052486D01*
X112661903Y-120056458D01*
X112681506Y-120069781D01*
X112681746Y-120069980D01*
X112681753Y-120069984D01*
X112687856Y-120075033D01*
X112708829Y-120084902D01*
X112738676Y-120098947D01*
X112745708Y-120102529D01*
X112794940Y-120129595D01*
X112802615Y-120131565D01*
X112802621Y-120131568D01*
X112802919Y-120131644D01*
X112825228Y-120139676D01*
X112825503Y-120139806D01*
X112825511Y-120139809D01*
X112832682Y-120143183D01*
X112887849Y-120153706D01*
X112895558Y-120155429D01*
X112929551Y-120164157D01*
X112942293Y-120167429D01*
X112942294Y-120167429D01*
X112949970Y-120169400D01*
X112958207Y-120169400D01*
X112981816Y-120171632D01*
X112982119Y-120171690D01*
X112982123Y-120171690D01*
X112989906Y-120173175D01*
X113045951Y-120169649D01*
X113053862Y-120169400D01*
X113769306Y-120169400D01*
X113837427Y-120189402D01*
X113858401Y-120206305D01*
X114907178Y-121255082D01*
X114941204Y-121317394D01*
X114943392Y-121331003D01*
X114960758Y-121496228D01*
X115019773Y-121677856D01*
X115023076Y-121683578D01*
X115023077Y-121683579D01*
X115050627Y-121731297D01*
X115067365Y-121800293D01*
X115044144Y-121867384D01*
X115030603Y-121883392D01*
X114322642Y-122591353D01*
X114314363Y-122598887D01*
X114307882Y-122603000D01*
X114267236Y-122646284D01*
X114261257Y-122652651D01*
X114258502Y-122655493D01*
X114238765Y-122675230D01*
X114238189Y-122675973D01*
X114178709Y-122713485D01*
X114107715Y-122712879D01*
X114097631Y-122709103D01*
X114096789Y-122708638D01*
X114091920Y-122706914D01*
X114091916Y-122706912D01*
X113891087Y-122635795D01*
X113891083Y-122635794D01*
X113886212Y-122634069D01*
X113881119Y-122633162D01*
X113881116Y-122633161D01*
X113671373Y-122595800D01*
X113671367Y-122595799D01*
X113666284Y-122594894D01*
X113592452Y-122593992D01*
X113448081Y-122592228D01*
X113448079Y-122592228D01*
X113442911Y-122592165D01*
X113222091Y-122625955D01*
X113009756Y-122695357D01*
X112811607Y-122798507D01*
X112807474Y-122801610D01*
X112807471Y-122801612D01*
X112659168Y-122912961D01*
X112632965Y-122932635D01*
X112478629Y-123094138D01*
X112352743Y-123278680D01*
X112258688Y-123481305D01*
X112198989Y-123696570D01*
X112175251Y-123918695D01*
X112188110Y-124141715D01*
X112189247Y-124146761D01*
X112189248Y-124146767D01*
X112213304Y-124253508D01*
X112237222Y-124359639D01*
X112321266Y-124566616D01*
X112437987Y-124757088D01*
X112584250Y-124925938D01*
X112756126Y-125068632D01*
X112949000Y-125181338D01*
X113157692Y-125261030D01*
X113162760Y-125262061D01*
X113162763Y-125262062D01*
X113270017Y-125283883D01*
X113376597Y-125305567D01*
X113381772Y-125305757D01*
X113381774Y-125305757D01*
X113594673Y-125313564D01*
X113594677Y-125313564D01*
X113599837Y-125313753D01*
X113604957Y-125313097D01*
X113604959Y-125313097D01*
X113816288Y-125286025D01*
X113816289Y-125286025D01*
X113821416Y-125285368D01*
X113826366Y-125283883D01*
X114030429Y-125222661D01*
X114030434Y-125222659D01*
X114035384Y-125221174D01*
X114235994Y-125122896D01*
X114417860Y-124993173D01*
X114526091Y-124885319D01*
X114588462Y-124851404D01*
X114659268Y-124856592D01*
X114716030Y-124899238D01*
X114733012Y-124930341D01*
X114777385Y-125048705D01*
X114864739Y-125165261D01*
X114981295Y-125252615D01*
X115117684Y-125303745D01*
X115179866Y-125310500D01*
X116976134Y-125310500D01*
X117038316Y-125303745D01*
X117174705Y-125252615D01*
X117291261Y-125165261D01*
X117378615Y-125048705D01*
X117429745Y-124912316D01*
X117436500Y-124850134D01*
X117436500Y-123053866D01*
X117429745Y-122991684D01*
X117378615Y-122855295D01*
X117375599Y-122851270D01*
X117360853Y-122783853D01*
X117385589Y-122717305D01*
X117442376Y-122674694D01*
X117486542Y-122666700D01*
X117935133Y-122666700D01*
X117946316Y-122667227D01*
X117953809Y-122668902D01*
X117961735Y-122668653D01*
X117961736Y-122668653D01*
X118021886Y-122666762D01*
X118025845Y-122666700D01*
X118053756Y-122666700D01*
X118057691Y-122666203D01*
X118057756Y-122666195D01*
X118069593Y-122665262D01*
X118101851Y-122664248D01*
X118105870Y-122664122D01*
X118113789Y-122663873D01*
X118133243Y-122658221D01*
X118152600Y-122654213D01*
X118164830Y-122652668D01*
X118164831Y-122652668D01*
X118172697Y-122651674D01*
X118180068Y-122648755D01*
X118180070Y-122648755D01*
X118213812Y-122635396D01*
X118225042Y-122631551D01*
X118259883Y-122621429D01*
X118259884Y-122621429D01*
X118267493Y-122619218D01*
X118274312Y-122615185D01*
X118274317Y-122615183D01*
X118284928Y-122608907D01*
X118302676Y-122600212D01*
X118321517Y-122592752D01*
X118339046Y-122580017D01*
X118357287Y-122566764D01*
X118367207Y-122560248D01*
X118398435Y-122541780D01*
X118398438Y-122541778D01*
X118405262Y-122537742D01*
X118419583Y-122523421D01*
X118434617Y-122510580D01*
X118444594Y-122503331D01*
X118451007Y-122498672D01*
X118479198Y-122464595D01*
X118487188Y-122455816D01*
X120903158Y-120039846D01*
X120965470Y-120005820D01*
X121036285Y-120010885D01*
X121081348Y-120039846D01*
X121188700Y-120147198D01*
X121193208Y-120150355D01*
X121193211Y-120150357D01*
X121248973Y-120189402D01*
X121376251Y-120278523D01*
X121381233Y-120280846D01*
X121381238Y-120280849D01*
X121415457Y-120296805D01*
X121468742Y-120343722D01*
X121488203Y-120411999D01*
X121467661Y-120479959D01*
X121415457Y-120525195D01*
X121381238Y-120541151D01*
X121381233Y-120541154D01*
X121376251Y-120543477D01*
X121335215Y-120572211D01*
X121193211Y-120671643D01*
X121193208Y-120671645D01*
X121188700Y-120674802D01*
X121026802Y-120836700D01*
X120895477Y-121024251D01*
X120893154Y-121029233D01*
X120893151Y-121029238D01*
X120817927Y-121190558D01*
X120798716Y-121231757D01*
X120797294Y-121237065D01*
X120797293Y-121237067D01*
X120744443Y-121434305D01*
X120739457Y-121452913D01*
X120719502Y-121681000D01*
X120739457Y-121909087D01*
X120740881Y-121914400D01*
X120740881Y-121914402D01*
X120793934Y-122112395D01*
X120798716Y-122130243D01*
X120801039Y-122135224D01*
X120801039Y-122135225D01*
X120893151Y-122332762D01*
X120893154Y-122332767D01*
X120895477Y-122337749D01*
X120951808Y-122418198D01*
X120998969Y-122485550D01*
X121026802Y-122525300D01*
X121188700Y-122687198D01*
X121193208Y-122690355D01*
X121193211Y-122690357D01*
X121242714Y-122725019D01*
X121376251Y-122818523D01*
X121381233Y-122820846D01*
X121381238Y-122820849D01*
X121578775Y-122912961D01*
X121583757Y-122915284D01*
X121589065Y-122916706D01*
X121589067Y-122916707D01*
X121799598Y-122973119D01*
X121799600Y-122973119D01*
X121804913Y-122974543D01*
X121898663Y-122982745D01*
X121973149Y-122989262D01*
X121973156Y-122989262D01*
X121975873Y-122989500D01*
X122890127Y-122989500D01*
X122892844Y-122989262D01*
X122892851Y-122989262D01*
X122967337Y-122982745D01*
X123061087Y-122974543D01*
X123066400Y-122973119D01*
X123066402Y-122973119D01*
X123276933Y-122916707D01*
X123276935Y-122916706D01*
X123282243Y-122915284D01*
X123287225Y-122912961D01*
X123484762Y-122820849D01*
X123484767Y-122820846D01*
X123489749Y-122818523D01*
X123623286Y-122725019D01*
X123672789Y-122690357D01*
X123672792Y-122690355D01*
X123677300Y-122687198D01*
X123839198Y-122525300D01*
X123867032Y-122485550D01*
X123914192Y-122418198D01*
X123950994Y-122365639D01*
X124006450Y-122321312D01*
X124044056Y-122313293D01*
X124044035Y-122313163D01*
X124046490Y-122312774D01*
X124050247Y-122311973D01*
X124051870Y-122311922D01*
X124059789Y-122311673D01*
X124079243Y-122306021D01*
X124098600Y-122302013D01*
X124110830Y-122300468D01*
X124110831Y-122300468D01*
X124118697Y-122299474D01*
X124126068Y-122296555D01*
X124126070Y-122296555D01*
X124159812Y-122283196D01*
X124171042Y-122279351D01*
X124205883Y-122269229D01*
X124205884Y-122269229D01*
X124213493Y-122267018D01*
X124220312Y-122262985D01*
X124220317Y-122262983D01*
X124230928Y-122256707D01*
X124248676Y-122248012D01*
X124267517Y-122240552D01*
X124303287Y-122214564D01*
X124313207Y-122208048D01*
X124344435Y-122189580D01*
X124344438Y-122189578D01*
X124351262Y-122185542D01*
X124365583Y-122171221D01*
X124380617Y-122158380D01*
X124390594Y-122151131D01*
X124397007Y-122146472D01*
X124425198Y-122112395D01*
X124433188Y-122103616D01*
X125382999Y-121153805D01*
X125445311Y-121119779D01*
X125472094Y-121116900D01*
X135838500Y-121116900D01*
X135906621Y-121136902D01*
X135953114Y-121190558D01*
X135964500Y-121242900D01*
X135964500Y-122529134D01*
X135971255Y-122591316D01*
X136022385Y-122727705D01*
X136109739Y-122844261D01*
X136226295Y-122931615D01*
X136362684Y-122982745D01*
X136424866Y-122989500D01*
X138921134Y-122989500D01*
X138983316Y-122982745D01*
X139119705Y-122931615D01*
X139236261Y-122844261D01*
X139323615Y-122727705D01*
X139374745Y-122591316D01*
X139381500Y-122529134D01*
X139381500Y-122417073D01*
X139401502Y-122348952D01*
X139455158Y-122302459D01*
X139531105Y-122293304D01*
X139559980Y-122298812D01*
X139567658Y-122300529D01*
X139622070Y-122314500D01*
X139625873Y-122314500D01*
X139689269Y-122342152D01*
X139711610Y-122366502D01*
X139804157Y-122498672D01*
X139822802Y-122525300D01*
X139984700Y-122687198D01*
X139989208Y-122690355D01*
X139989211Y-122690357D01*
X140038714Y-122725019D01*
X140172251Y-122818523D01*
X140177233Y-122820846D01*
X140177238Y-122820849D01*
X140374775Y-122912961D01*
X140379757Y-122915284D01*
X140385065Y-122916706D01*
X140385067Y-122916707D01*
X140595598Y-122973119D01*
X140595600Y-122973119D01*
X140600913Y-122974543D01*
X140694663Y-122982745D01*
X140769149Y-122989262D01*
X140769156Y-122989262D01*
X140771873Y-122989500D01*
X141686127Y-122989500D01*
X141688844Y-122989262D01*
X141688851Y-122989262D01*
X141763337Y-122982745D01*
X141857087Y-122974543D01*
X141862400Y-122973119D01*
X141862402Y-122973119D01*
X142072933Y-122916707D01*
X142072935Y-122916706D01*
X142078243Y-122915284D01*
X142083225Y-122912961D01*
X142280762Y-122820849D01*
X142280767Y-122820846D01*
X142285749Y-122818523D01*
X142419286Y-122725019D01*
X142468789Y-122690357D01*
X142468792Y-122690355D01*
X142473300Y-122687198D01*
X142635198Y-122525300D01*
X142650581Y-122503331D01*
X142745181Y-122368229D01*
X142800638Y-122323901D01*
X142848394Y-122314500D01*
X143261606Y-122314500D01*
X143329727Y-122334502D01*
X143364819Y-122368229D01*
X143459419Y-122503331D01*
X143474802Y-122525300D01*
X143636700Y-122687198D01*
X143641208Y-122690355D01*
X143641211Y-122690357D01*
X143690714Y-122725019D01*
X143824251Y-122818523D01*
X143829233Y-122820846D01*
X143829238Y-122820849D01*
X144026775Y-122912961D01*
X144031757Y-122915284D01*
X144037065Y-122916706D01*
X144037067Y-122916707D01*
X144247598Y-122973119D01*
X144247600Y-122973119D01*
X144252913Y-122974543D01*
X144346663Y-122982745D01*
X144421149Y-122989262D01*
X144421156Y-122989262D01*
X144423873Y-122989500D01*
X145338127Y-122989500D01*
X145340844Y-122989262D01*
X145340851Y-122989262D01*
X145415337Y-122982745D01*
X145509087Y-122974543D01*
X145514400Y-122973119D01*
X145514402Y-122973119D01*
X145724933Y-122916707D01*
X145724935Y-122916706D01*
X145730243Y-122915284D01*
X145735225Y-122912961D01*
X145932762Y-122820849D01*
X145932767Y-122820846D01*
X145937749Y-122818523D01*
X146071286Y-122725019D01*
X146120789Y-122690357D01*
X146120792Y-122690355D01*
X146125300Y-122687198D01*
X146287198Y-122525300D01*
X146315032Y-122485550D01*
X146362192Y-122418198D01*
X146418523Y-122337749D01*
X146420846Y-122332767D01*
X146420849Y-122332762D01*
X146512961Y-122135225D01*
X146512961Y-122135224D01*
X146515284Y-122130243D01*
X146520067Y-122112395D01*
X146573119Y-121914402D01*
X146573119Y-121914400D01*
X146574543Y-121909087D01*
X146594498Y-121681000D01*
X146574543Y-121452913D01*
X146569557Y-121434305D01*
X146516707Y-121237067D01*
X146516706Y-121237065D01*
X146515284Y-121231757D01*
X146511552Y-121223753D01*
X146511331Y-121222296D01*
X146511078Y-121221602D01*
X146511218Y-121221551D01*
X146500889Y-121153562D01*
X146529867Y-121088748D01*
X146589285Y-121049890D01*
X146625745Y-121044500D01*
X153593333Y-121044500D01*
X153604516Y-121045027D01*
X153612009Y-121046702D01*
X153619935Y-121046453D01*
X153619936Y-121046453D01*
X153680086Y-121044562D01*
X153684045Y-121044500D01*
X153711956Y-121044500D01*
X153715891Y-121044003D01*
X153715956Y-121043995D01*
X153727793Y-121043062D01*
X153760051Y-121042048D01*
X153764070Y-121041922D01*
X153771989Y-121041673D01*
X153791443Y-121036021D01*
X153810800Y-121032013D01*
X153823030Y-121030468D01*
X153823031Y-121030468D01*
X153830897Y-121029474D01*
X153838268Y-121026555D01*
X153838270Y-121026555D01*
X153872012Y-121013196D01*
X153883242Y-121009351D01*
X153918083Y-120999229D01*
X153918084Y-120999229D01*
X153925693Y-120997018D01*
X153932512Y-120992985D01*
X153932517Y-120992983D01*
X153943128Y-120986707D01*
X153960876Y-120978012D01*
X153979717Y-120970552D01*
X154015487Y-120944564D01*
X154025407Y-120938048D01*
X154056635Y-120919580D01*
X154056638Y-120919578D01*
X154063462Y-120915542D01*
X154077783Y-120901221D01*
X154092817Y-120888380D01*
X154102794Y-120881131D01*
X154109207Y-120876472D01*
X154137398Y-120842395D01*
X154145388Y-120833616D01*
X154939158Y-120039846D01*
X155001470Y-120005820D01*
X155072285Y-120010885D01*
X155117348Y-120039846D01*
X155224700Y-120147198D01*
X155229211Y-120150357D01*
X155233424Y-120153892D01*
X155232473Y-120155026D01*
X155272471Y-120205071D01*
X155279776Y-120275690D01*
X155247742Y-120339049D01*
X155186538Y-120375030D01*
X155169483Y-120378082D01*
X155158684Y-120379255D01*
X155022295Y-120430385D01*
X154905739Y-120517739D01*
X154818385Y-120634295D01*
X154767255Y-120770684D01*
X154760500Y-120832866D01*
X154760500Y-122529134D01*
X154767255Y-122591316D01*
X154818385Y-122727705D01*
X154905739Y-122844261D01*
X155022295Y-122931615D01*
X155158684Y-122982745D01*
X155220866Y-122989500D01*
X157717134Y-122989500D01*
X157779316Y-122982745D01*
X157915705Y-122931615D01*
X158032261Y-122844261D01*
X158119615Y-122727705D01*
X158170745Y-122591316D01*
X158171598Y-122583459D01*
X158172417Y-122580017D01*
X158207634Y-122518371D01*
X158270590Y-122485550D01*
X158341295Y-122491976D01*
X158397302Y-122535608D01*
X158417583Y-122580017D01*
X158418402Y-122583459D01*
X158419255Y-122591316D01*
X158470385Y-122727705D01*
X158557739Y-122844261D01*
X158674295Y-122931615D01*
X158810684Y-122982745D01*
X158872866Y-122989500D01*
X161369134Y-122989500D01*
X161431316Y-122982745D01*
X161567705Y-122931615D01*
X161684261Y-122844261D01*
X161771615Y-122727705D01*
X161822745Y-122591316D01*
X161829500Y-122529134D01*
X161829500Y-121738495D01*
X161849502Y-121670374D01*
X161903158Y-121623881D01*
X161973432Y-121613777D01*
X162038012Y-121643271D01*
X162044595Y-121649400D01*
X162199448Y-121804253D01*
X162206988Y-121812539D01*
X162211100Y-121819018D01*
X162216877Y-121824443D01*
X162260751Y-121865643D01*
X162263593Y-121868398D01*
X162283330Y-121888135D01*
X162286527Y-121890615D01*
X162295547Y-121898318D01*
X162327779Y-121928586D01*
X162334725Y-121932405D01*
X162334728Y-121932407D01*
X162345534Y-121938348D01*
X162362053Y-121949199D01*
X162378059Y-121961614D01*
X162385328Y-121964759D01*
X162385332Y-121964762D01*
X162418637Y-121979174D01*
X162429287Y-121984391D01*
X162468040Y-122005695D01*
X162475715Y-122007666D01*
X162475716Y-122007666D01*
X162487662Y-122010733D01*
X162506367Y-122017137D01*
X162524955Y-122025181D01*
X162532778Y-122026420D01*
X162532788Y-122026423D01*
X162568624Y-122032099D01*
X162580244Y-122034505D01*
X162615389Y-122043528D01*
X162623070Y-122045500D01*
X162626871Y-122045500D01*
X162690265Y-122073148D01*
X162712610Y-122097502D01*
X162814818Y-122243469D01*
X162823802Y-122256300D01*
X162985700Y-122418198D01*
X162990208Y-122421355D01*
X162990211Y-122421357D01*
X163068389Y-122476098D01*
X163173251Y-122549523D01*
X163178233Y-122551846D01*
X163178238Y-122551849D01*
X163357407Y-122635396D01*
X163380757Y-122646284D01*
X163386065Y-122647706D01*
X163386067Y-122647707D01*
X163596598Y-122704119D01*
X163596600Y-122704119D01*
X163601913Y-122705543D01*
X163830000Y-122725498D01*
X164058087Y-122705543D01*
X164063400Y-122704119D01*
X164063402Y-122704119D01*
X164273933Y-122647707D01*
X164273935Y-122647706D01*
X164279243Y-122646284D01*
X164302593Y-122635396D01*
X164481762Y-122551849D01*
X164481767Y-122551846D01*
X164486749Y-122549523D01*
X164591611Y-122476098D01*
X164669789Y-122421357D01*
X164669792Y-122421355D01*
X164674300Y-122418198D01*
X164836198Y-122256300D01*
X164845183Y-122243469D01*
X164901670Y-122162796D01*
X164967523Y-122068749D01*
X164969846Y-122063767D01*
X164969849Y-122063762D01*
X165061961Y-121866225D01*
X165061961Y-121866224D01*
X165064284Y-121861243D01*
X165097175Y-121738495D01*
X165122119Y-121645402D01*
X165122119Y-121645400D01*
X165123543Y-121640087D01*
X165143498Y-121412000D01*
X165123543Y-121183913D01*
X165115476Y-121153805D01*
X165065707Y-120968067D01*
X165065706Y-120968065D01*
X165064284Y-120962757D01*
X165052762Y-120938048D01*
X164969849Y-120760238D01*
X164969846Y-120760233D01*
X164967523Y-120755251D01*
X164888716Y-120642703D01*
X164839357Y-120572211D01*
X164839355Y-120572208D01*
X164836198Y-120567700D01*
X164674300Y-120405802D01*
X164669792Y-120402645D01*
X164669789Y-120402643D01*
X164578967Y-120339049D01*
X164486749Y-120274477D01*
X164481767Y-120272154D01*
X164481762Y-120272151D01*
X164284225Y-120180039D01*
X164284224Y-120180039D01*
X164279243Y-120177716D01*
X164273935Y-120176294D01*
X164273933Y-120176293D01*
X164063402Y-120119881D01*
X164063400Y-120119881D01*
X164058087Y-120118457D01*
X163830000Y-120098502D01*
X163601913Y-120118457D01*
X163596600Y-120119881D01*
X163596598Y-120119881D01*
X163386067Y-120176293D01*
X163386065Y-120176294D01*
X163380757Y-120177716D01*
X163375776Y-120180039D01*
X163375775Y-120180039D01*
X163178238Y-120272151D01*
X163178233Y-120272154D01*
X163173251Y-120274477D01*
X163081033Y-120339049D01*
X162990211Y-120402643D01*
X162990208Y-120402645D01*
X162985700Y-120405802D01*
X162878349Y-120513153D01*
X162816037Y-120547179D01*
X162745222Y-120542114D01*
X162700159Y-120513153D01*
X162348848Y-120161842D01*
X162341313Y-120153562D01*
X162337200Y-120147082D01*
X162287548Y-120100456D01*
X162284707Y-120097702D01*
X162264970Y-120077965D01*
X162261773Y-120075485D01*
X162252751Y-120067780D01*
X162248600Y-120063882D01*
X162220521Y-120037514D01*
X162213575Y-120033695D01*
X162213572Y-120033693D01*
X162202766Y-120027752D01*
X162186247Y-120016901D01*
X162182551Y-120014034D01*
X162170241Y-120004486D01*
X162162972Y-120001341D01*
X162162968Y-120001338D01*
X162129663Y-119986926D01*
X162119013Y-119981709D01*
X162080260Y-119960405D01*
X162060637Y-119955367D01*
X162041934Y-119948963D01*
X162030620Y-119944067D01*
X162030619Y-119944067D01*
X162023345Y-119940919D01*
X162015522Y-119939680D01*
X162015512Y-119939677D01*
X161979676Y-119934001D01*
X161968056Y-119931595D01*
X161932911Y-119922572D01*
X161932910Y-119922572D01*
X161925230Y-119920600D01*
X161904976Y-119920600D01*
X161885265Y-119919049D01*
X161881370Y-119918432D01*
X161865257Y-119915880D01*
X161857365Y-119916626D01*
X161821239Y-119920041D01*
X161809381Y-119920600D01*
X161799017Y-119920600D01*
X161730896Y-119900598D01*
X161684403Y-119846942D01*
X161674299Y-119776668D01*
X161684822Y-119741350D01*
X161752961Y-119595225D01*
X161752961Y-119595224D01*
X161755284Y-119590243D01*
X161806214Y-119400173D01*
X161813119Y-119374402D01*
X161813119Y-119374400D01*
X161814543Y-119369087D01*
X161834498Y-119141000D01*
X161814543Y-118912913D01*
X161813119Y-118907598D01*
X161756707Y-118697067D01*
X161756706Y-118697065D01*
X161755284Y-118691757D01*
X161745544Y-118670870D01*
X161660849Y-118489238D01*
X161660846Y-118489233D01*
X161658523Y-118484251D01*
X161585098Y-118379389D01*
X161530357Y-118301211D01*
X161530355Y-118301208D01*
X161527198Y-118296700D01*
X161365300Y-118134802D01*
X161360792Y-118131645D01*
X161360789Y-118131643D01*
X161282611Y-118076902D01*
X161177749Y-118003477D01*
X161172767Y-118001154D01*
X161172762Y-118001151D01*
X161138543Y-117985195D01*
X161085258Y-117938278D01*
X161065797Y-117870001D01*
X161086339Y-117802041D01*
X161138543Y-117756805D01*
X161172762Y-117740849D01*
X161172767Y-117740846D01*
X161177749Y-117738523D01*
X161282611Y-117665098D01*
X161360789Y-117610357D01*
X161360792Y-117610355D01*
X161365300Y-117607198D01*
X161527198Y-117445300D01*
X161658523Y-117257749D01*
X161660846Y-117252767D01*
X161660849Y-117252762D01*
X161752961Y-117055225D01*
X161752961Y-117055224D01*
X161755284Y-117050243D01*
X161759917Y-117032955D01*
X161813119Y-116834402D01*
X161813119Y-116834400D01*
X161814543Y-116829087D01*
X161834498Y-116601000D01*
X161814543Y-116372913D01*
X161809083Y-116352535D01*
X161756707Y-116157067D01*
X161756706Y-116157065D01*
X161755284Y-116151757D01*
X161751552Y-116143753D01*
X161751331Y-116142296D01*
X161751078Y-116141602D01*
X161751218Y-116141551D01*
X161740889Y-116073562D01*
X161769867Y-116008748D01*
X161829285Y-115969890D01*
X161865745Y-115964500D01*
X162212233Y-115964500D01*
X162223416Y-115965027D01*
X162230909Y-115966702D01*
X162238835Y-115966453D01*
X162238836Y-115966453D01*
X162298986Y-115964562D01*
X162302945Y-115964500D01*
X162330856Y-115964500D01*
X162334791Y-115964003D01*
X162334856Y-115963995D01*
X162346693Y-115963062D01*
X162378951Y-115962048D01*
X162382970Y-115961922D01*
X162390889Y-115961673D01*
X162410343Y-115956021D01*
X162429700Y-115952013D01*
X162441930Y-115950468D01*
X162441931Y-115950468D01*
X162449797Y-115949474D01*
X162457168Y-115946555D01*
X162457170Y-115946555D01*
X162490912Y-115933196D01*
X162502142Y-115929351D01*
X162536983Y-115919229D01*
X162536984Y-115919229D01*
X162544593Y-115917018D01*
X162551412Y-115912985D01*
X162551417Y-115912983D01*
X162562028Y-115906707D01*
X162579776Y-115898012D01*
X162598617Y-115890552D01*
X162634387Y-115864564D01*
X162644307Y-115858048D01*
X162675535Y-115839580D01*
X162675538Y-115839578D01*
X162682362Y-115835542D01*
X162696683Y-115821221D01*
X162711717Y-115808380D01*
X162721694Y-115801131D01*
X162728107Y-115796472D01*
X162756298Y-115762395D01*
X162764288Y-115753616D01*
X163416752Y-115101152D01*
X163479064Y-115067126D01*
X163538459Y-115068541D01*
X163596591Y-115084118D01*
X163596602Y-115084120D01*
X163601913Y-115085543D01*
X163830000Y-115105498D01*
X164058087Y-115085543D01*
X164063400Y-115084119D01*
X164063402Y-115084119D01*
X164273933Y-115027707D01*
X164273935Y-115027706D01*
X164279243Y-115026284D01*
X164284225Y-115023961D01*
X164481762Y-114931849D01*
X164481767Y-114931846D01*
X164486749Y-114929523D01*
X164598328Y-114851394D01*
X164669789Y-114801357D01*
X164669792Y-114801355D01*
X164674300Y-114798198D01*
X164836198Y-114636300D01*
X164844922Y-114623842D01*
X164900682Y-114544207D01*
X164967523Y-114448749D01*
X164969846Y-114443767D01*
X164969849Y-114443762D01*
X165061961Y-114246225D01*
X165061961Y-114246224D01*
X165064284Y-114241243D01*
X165092745Y-114135028D01*
X165122119Y-114025402D01*
X165122119Y-114025400D01*
X165123543Y-114020087D01*
X165143498Y-113792000D01*
X165123543Y-113563913D01*
X165122119Y-113558598D01*
X165065707Y-113348067D01*
X165065706Y-113348065D01*
X165064284Y-113342757D01*
X165010726Y-113227900D01*
X164969849Y-113140238D01*
X164969846Y-113140233D01*
X164967523Y-113135251D01*
X164836198Y-112947700D01*
X164674300Y-112785802D01*
X164669792Y-112782645D01*
X164669789Y-112782643D01*
X164531837Y-112686048D01*
X164486749Y-112654477D01*
X164481767Y-112652154D01*
X164481762Y-112652151D01*
X164447543Y-112636195D01*
X164394258Y-112589278D01*
X164374797Y-112521001D01*
X164395339Y-112453041D01*
X164447543Y-112407805D01*
X164481762Y-112391849D01*
X164481767Y-112391846D01*
X164486749Y-112389523D01*
X164622036Y-112294794D01*
X164669789Y-112261357D01*
X164669792Y-112261355D01*
X164674300Y-112258198D01*
X164836198Y-112096300D01*
X164840239Y-112090530D01*
X164904168Y-111999229D01*
X164967523Y-111908749D01*
X164969846Y-111903767D01*
X164969849Y-111903762D01*
X165061961Y-111706225D01*
X165061961Y-111706224D01*
X165064284Y-111701243D01*
X165086370Y-111618820D01*
X165122119Y-111485402D01*
X165122119Y-111485400D01*
X165123543Y-111480087D01*
X165143498Y-111252000D01*
X165123543Y-111023913D01*
X165082098Y-110869238D01*
X165065707Y-110808067D01*
X165065706Y-110808065D01*
X165064284Y-110802757D01*
X165059228Y-110791914D01*
X164969849Y-110600238D01*
X164969846Y-110600233D01*
X164967523Y-110595251D01*
X164836198Y-110407700D01*
X164674300Y-110245802D01*
X164669792Y-110242645D01*
X164669789Y-110242643D01*
X164522595Y-110139577D01*
X164486749Y-110114477D01*
X164481767Y-110112154D01*
X164481762Y-110112151D01*
X164284225Y-110020039D01*
X164284224Y-110020039D01*
X164279243Y-110017716D01*
X164273935Y-110016294D01*
X164273933Y-110016293D01*
X164063402Y-109959881D01*
X164063400Y-109959881D01*
X164058087Y-109958457D01*
X163830000Y-109938502D01*
X163601913Y-109958457D01*
X163596600Y-109959881D01*
X163596598Y-109959881D01*
X163386067Y-110016293D01*
X163386065Y-110016294D01*
X163380757Y-110017716D01*
X163375776Y-110020039D01*
X163375775Y-110020039D01*
X163178238Y-110112151D01*
X163178233Y-110112154D01*
X163173251Y-110114477D01*
X163137405Y-110139577D01*
X162990211Y-110242643D01*
X162990208Y-110242645D01*
X162985700Y-110245802D01*
X162823802Y-110407700D01*
X162692477Y-110595251D01*
X162690154Y-110600233D01*
X162690151Y-110600238D01*
X162600772Y-110791914D01*
X162595716Y-110802757D01*
X162594294Y-110808065D01*
X162594293Y-110808067D01*
X162577902Y-110869238D01*
X162536457Y-111023913D01*
X162516502Y-111252000D01*
X162536457Y-111480087D01*
X162537881Y-111485400D01*
X162537881Y-111485402D01*
X162573631Y-111618820D01*
X162595716Y-111701243D01*
X162598039Y-111706224D01*
X162598039Y-111706225D01*
X162690151Y-111903762D01*
X162690154Y-111903767D01*
X162692477Y-111908749D01*
X162755832Y-111999229D01*
X162819762Y-112090530D01*
X162823802Y-112096300D01*
X162985700Y-112258198D01*
X162990208Y-112261355D01*
X162990211Y-112261357D01*
X163037964Y-112294794D01*
X163173251Y-112389523D01*
X163178233Y-112391846D01*
X163178238Y-112391849D01*
X163212457Y-112407805D01*
X163265742Y-112454722D01*
X163285203Y-112522999D01*
X163264661Y-112590959D01*
X163212457Y-112636195D01*
X163178238Y-112652151D01*
X163178233Y-112652154D01*
X163173251Y-112654477D01*
X163128163Y-112686048D01*
X162990211Y-112782643D01*
X162990208Y-112782645D01*
X162985700Y-112785802D01*
X162823802Y-112947700D01*
X162692477Y-113135251D01*
X162690154Y-113140233D01*
X162690151Y-113140238D01*
X162649274Y-113227900D01*
X162595716Y-113342757D01*
X162594294Y-113348065D01*
X162594293Y-113348067D01*
X162537881Y-113558598D01*
X162536457Y-113563913D01*
X162516502Y-113792000D01*
X162536457Y-114020087D01*
X162537879Y-114025392D01*
X162537881Y-114025406D01*
X162553459Y-114083539D01*
X162551771Y-114154516D01*
X162520848Y-114205248D01*
X162065499Y-114660596D01*
X162003187Y-114694621D01*
X161976404Y-114697500D01*
X161865745Y-114697500D01*
X161797624Y-114677498D01*
X161751131Y-114623842D01*
X161741027Y-114553568D01*
X161751552Y-114518247D01*
X161752959Y-114515230D01*
X161752961Y-114515225D01*
X161755284Y-114510243D01*
X161760067Y-114492395D01*
X161813119Y-114294402D01*
X161813120Y-114294399D01*
X161814543Y-114289087D01*
X161834498Y-114061000D01*
X161814543Y-113832913D01*
X161812860Y-113826633D01*
X161756707Y-113617067D01*
X161756706Y-113617065D01*
X161755284Y-113611757D01*
X161745544Y-113590870D01*
X161660849Y-113409238D01*
X161660846Y-113409233D01*
X161658523Y-113404251D01*
X161555655Y-113257340D01*
X161530357Y-113221211D01*
X161530355Y-113221208D01*
X161527198Y-113216700D01*
X161365300Y-113054802D01*
X161360792Y-113051645D01*
X161360789Y-113051643D01*
X161218785Y-112952211D01*
X161177749Y-112923477D01*
X161172767Y-112921154D01*
X161172762Y-112921151D01*
X161138543Y-112905195D01*
X161085258Y-112858278D01*
X161065797Y-112790001D01*
X161086339Y-112722041D01*
X161138543Y-112676805D01*
X161172762Y-112660849D01*
X161172767Y-112660846D01*
X161177749Y-112658523D01*
X161282611Y-112585098D01*
X161360789Y-112530357D01*
X161360792Y-112530355D01*
X161365300Y-112527198D01*
X161527198Y-112365300D01*
X161542503Y-112343443D01*
X161604470Y-112254944D01*
X161658523Y-112177749D01*
X161660846Y-112172767D01*
X161660849Y-112172762D01*
X161752961Y-111975225D01*
X161752961Y-111975224D01*
X161755284Y-111970243D01*
X161761291Y-111947827D01*
X161813119Y-111754402D01*
X161813119Y-111754400D01*
X161814543Y-111749087D01*
X161834498Y-111521000D01*
X161814543Y-111292913D01*
X161809584Y-111274406D01*
X161756707Y-111077067D01*
X161756706Y-111077065D01*
X161755284Y-111071757D01*
X161749384Y-111059104D01*
X161660849Y-110869238D01*
X161660846Y-110869233D01*
X161658523Y-110864251D01*
X161569421Y-110737001D01*
X161530357Y-110681211D01*
X161530355Y-110681208D01*
X161527198Y-110676700D01*
X161365300Y-110514802D01*
X161360792Y-110511645D01*
X161360789Y-110511643D01*
X161218785Y-110412211D01*
X161177749Y-110383477D01*
X161172767Y-110381154D01*
X161172762Y-110381151D01*
X161138543Y-110365195D01*
X161085258Y-110318278D01*
X161065797Y-110250001D01*
X161086339Y-110182041D01*
X161138543Y-110136805D01*
X161172762Y-110120849D01*
X161172767Y-110120846D01*
X161177749Y-110118523D01*
X161282611Y-110045098D01*
X161360789Y-109990357D01*
X161360792Y-109990355D01*
X161365300Y-109987198D01*
X161527198Y-109825300D01*
X161543036Y-109802682D01*
X161623226Y-109688158D01*
X161658523Y-109637749D01*
X161660846Y-109632767D01*
X161660849Y-109632762D01*
X161752961Y-109435225D01*
X161752961Y-109435224D01*
X161755284Y-109430243D01*
X161756999Y-109423845D01*
X161813119Y-109214402D01*
X161813119Y-109214400D01*
X161814543Y-109209087D01*
X161834498Y-108981000D01*
X161814543Y-108752913D01*
X161799617Y-108697207D01*
X161756707Y-108537067D01*
X161756706Y-108537065D01*
X161755284Y-108531757D01*
X161745544Y-108510870D01*
X161660849Y-108329238D01*
X161660846Y-108329233D01*
X161658523Y-108324251D01*
X161527198Y-108136700D01*
X161365300Y-107974802D01*
X161360792Y-107971645D01*
X161360789Y-107971643D01*
X161282611Y-107916902D01*
X161177749Y-107843477D01*
X161172767Y-107841154D01*
X161172762Y-107841151D01*
X161138543Y-107825195D01*
X161085258Y-107778278D01*
X161065797Y-107710001D01*
X161086339Y-107642041D01*
X161138543Y-107596805D01*
X161172762Y-107580849D01*
X161172767Y-107580846D01*
X161177749Y-107578523D01*
X161343041Y-107462784D01*
X161360789Y-107450357D01*
X161360792Y-107450355D01*
X161365300Y-107447198D01*
X161527198Y-107285300D01*
X161532035Y-107278393D01*
X161605963Y-107172812D01*
X161658523Y-107097749D01*
X161660846Y-107092767D01*
X161660849Y-107092762D01*
X161752961Y-106895225D01*
X161752961Y-106895224D01*
X161755284Y-106890243D01*
X161759358Y-106875041D01*
X161813119Y-106674402D01*
X161813119Y-106674400D01*
X161814543Y-106669087D01*
X161834498Y-106441000D01*
X161814543Y-106212913D01*
X161796113Y-106144131D01*
X161756707Y-105997067D01*
X161756706Y-105997065D01*
X161755284Y-105991757D01*
X161749058Y-105978404D01*
X161684822Y-105840650D01*
X161674161Y-105770458D01*
X161703141Y-105705645D01*
X161762561Y-105666789D01*
X161799017Y-105661400D01*
X162355333Y-105661400D01*
X162366516Y-105661927D01*
X162374009Y-105663602D01*
X162381935Y-105663353D01*
X162381936Y-105663353D01*
X162442086Y-105661462D01*
X162446045Y-105661400D01*
X162473956Y-105661400D01*
X162477891Y-105660903D01*
X162477956Y-105660895D01*
X162489793Y-105659962D01*
X162522051Y-105658948D01*
X162526070Y-105658822D01*
X162533989Y-105658573D01*
X162553443Y-105652921D01*
X162572800Y-105648913D01*
X162585030Y-105647368D01*
X162585031Y-105647368D01*
X162592897Y-105646374D01*
X162600268Y-105643455D01*
X162600270Y-105643455D01*
X162634012Y-105630096D01*
X162645242Y-105626251D01*
X162680083Y-105616129D01*
X162680084Y-105616129D01*
X162687693Y-105613918D01*
X162694512Y-105609885D01*
X162694517Y-105609883D01*
X162705128Y-105603607D01*
X162722876Y-105594912D01*
X162741717Y-105587452D01*
X162777487Y-105561464D01*
X162787407Y-105554948D01*
X162818635Y-105536480D01*
X162818638Y-105536478D01*
X162825462Y-105532442D01*
X162839783Y-105518121D01*
X162854817Y-105505280D01*
X162864794Y-105498031D01*
X162871207Y-105493372D01*
X162899398Y-105459295D01*
X162907388Y-105450516D01*
X163416752Y-104941152D01*
X163479064Y-104907126D01*
X163538459Y-104908541D01*
X163596591Y-104924118D01*
X163596602Y-104924120D01*
X163601913Y-104925543D01*
X163830000Y-104945498D01*
X164058087Y-104925543D01*
X164063400Y-104924119D01*
X164063402Y-104924119D01*
X164273933Y-104867707D01*
X164273935Y-104867706D01*
X164279243Y-104866284D01*
X164307697Y-104853016D01*
X164481762Y-104771849D01*
X164481767Y-104771846D01*
X164486749Y-104769523D01*
X164620403Y-104675937D01*
X164669789Y-104641357D01*
X164669792Y-104641355D01*
X164674300Y-104638198D01*
X164836198Y-104476300D01*
X164839715Y-104471278D01*
X164903308Y-104380457D01*
X164967523Y-104288749D01*
X164969846Y-104283767D01*
X164969849Y-104283762D01*
X165061961Y-104086225D01*
X165061961Y-104086224D01*
X165064284Y-104081243D01*
X165086370Y-103998820D01*
X165122119Y-103865402D01*
X165122119Y-103865400D01*
X165123543Y-103860087D01*
X165143498Y-103632000D01*
X165123543Y-103403913D01*
X165122121Y-103398608D01*
X165122119Y-103398594D01*
X165106541Y-103340461D01*
X165108229Y-103269484D01*
X165139152Y-103218752D01*
X165259519Y-103098386D01*
X165399158Y-102958747D01*
X165407437Y-102951213D01*
X165413918Y-102947100D01*
X165460544Y-102897448D01*
X165463298Y-102894607D01*
X165483035Y-102874870D01*
X165485515Y-102871673D01*
X165493220Y-102862651D01*
X165518059Y-102836200D01*
X165523486Y-102830421D01*
X165527305Y-102823475D01*
X165527307Y-102823472D01*
X165533248Y-102812666D01*
X165544099Y-102796147D01*
X165547152Y-102792211D01*
X165556514Y-102780141D01*
X165559659Y-102772872D01*
X165559662Y-102772868D01*
X165574074Y-102739563D01*
X165579291Y-102728913D01*
X165600595Y-102690160D01*
X165605633Y-102670537D01*
X165612037Y-102651834D01*
X165616933Y-102640520D01*
X165616933Y-102640519D01*
X165620081Y-102633245D01*
X165621320Y-102625422D01*
X165621323Y-102625412D01*
X165626999Y-102589576D01*
X165629405Y-102577956D01*
X165638428Y-102542811D01*
X165638428Y-102542810D01*
X165640400Y-102535130D01*
X165640400Y-102514876D01*
X165641951Y-102495165D01*
X165643880Y-102482986D01*
X165645120Y-102475157D01*
X165640959Y-102431138D01*
X165640400Y-102419281D01*
X165640400Y-90269363D01*
X165640927Y-90258179D01*
X165642601Y-90250691D01*
X165640462Y-90182632D01*
X165640400Y-90178675D01*
X165640400Y-90150744D01*
X165639894Y-90146738D01*
X165638961Y-90134892D01*
X165638780Y-90129110D01*
X165637573Y-90090710D01*
X165631922Y-90071258D01*
X165627914Y-90051906D01*
X165626367Y-90039663D01*
X165625374Y-90031803D01*
X165622456Y-90024432D01*
X165609100Y-89990697D01*
X165605255Y-89979470D01*
X165599832Y-89960804D01*
X165592918Y-89937007D01*
X165588884Y-89930185D01*
X165588881Y-89930179D01*
X165582606Y-89919568D01*
X165573910Y-89901818D01*
X165569372Y-89890356D01*
X165569369Y-89890351D01*
X165566452Y-89882983D01*
X165547044Y-89856270D01*
X165540473Y-89847225D01*
X165533957Y-89837307D01*
X165515475Y-89806057D01*
X165511442Y-89799237D01*
X165497118Y-89784913D01*
X165484276Y-89769878D01*
X165472372Y-89753493D01*
X165438306Y-89725311D01*
X165429527Y-89717322D01*
X165142852Y-89430647D01*
X165135312Y-89422361D01*
X165131200Y-89415882D01*
X165085733Y-89373186D01*
X165049768Y-89311974D01*
X165052605Y-89241034D01*
X165059026Y-89225516D01*
X165097430Y-89147811D01*
X165162370Y-88934069D01*
X165191529Y-88712590D01*
X165193156Y-88646000D01*
X165174852Y-88423361D01*
X165120431Y-88206702D01*
X165031354Y-88001840D01*
X164991906Y-87940862D01*
X164912822Y-87818617D01*
X164912820Y-87818614D01*
X164910014Y-87814277D01*
X164759670Y-87649051D01*
X164755619Y-87645852D01*
X164755615Y-87645848D01*
X164588414Y-87513800D01*
X164588410Y-87513798D01*
X164584359Y-87510598D01*
X164567306Y-87501184D01*
X164532136Y-87481769D01*
X164388789Y-87402638D01*
X164383920Y-87400914D01*
X164383916Y-87400912D01*
X164183087Y-87329795D01*
X164183083Y-87329794D01*
X164178212Y-87328069D01*
X164173119Y-87327162D01*
X164173116Y-87327161D01*
X163963373Y-87289800D01*
X163963367Y-87289799D01*
X163958284Y-87288894D01*
X163884452Y-87287992D01*
X163740081Y-87286228D01*
X163740079Y-87286228D01*
X163734911Y-87286165D01*
X163514091Y-87319955D01*
X163301756Y-87389357D01*
X163103607Y-87492507D01*
X163099474Y-87495610D01*
X163099471Y-87495612D01*
X162929100Y-87623530D01*
X162924965Y-87626635D01*
X162770629Y-87788138D01*
X162644743Y-87972680D01*
X162550688Y-88175305D01*
X162490989Y-88390570D01*
X162467251Y-88612695D01*
X162467548Y-88617848D01*
X162467548Y-88617851D01*
X162478519Y-88808123D01*
X162480110Y-88835715D01*
X162481247Y-88840761D01*
X162481248Y-88840767D01*
X162493336Y-88894402D01*
X162529222Y-89053639D01*
X162579551Y-89177586D01*
X162609311Y-89250875D01*
X162613266Y-89260616D01*
X162639791Y-89303901D01*
X162712329Y-89422272D01*
X162729987Y-89451088D01*
X162876250Y-89619938D01*
X162880230Y-89623242D01*
X162884981Y-89627187D01*
X162924616Y-89686090D01*
X162926113Y-89757071D01*
X162888997Y-89817593D01*
X162848725Y-89842112D01*
X162824859Y-89851059D01*
X162733295Y-89885385D01*
X162616739Y-89972739D01*
X162529385Y-90089295D01*
X162478255Y-90225684D01*
X162471500Y-90287866D01*
X162471500Y-92084134D01*
X162478255Y-92146316D01*
X162529385Y-92282705D01*
X162616739Y-92399261D01*
X162733295Y-92486615D01*
X162869684Y-92537745D01*
X162931866Y-92544500D01*
X164247400Y-92544500D01*
X164315521Y-92564502D01*
X164362014Y-92618158D01*
X164373400Y-92670500D01*
X164373400Y-94843903D01*
X164353398Y-94912024D01*
X164299742Y-94958517D01*
X164229468Y-94968621D01*
X164205345Y-94962677D01*
X164178212Y-94953069D01*
X164173123Y-94952162D01*
X164173121Y-94952162D01*
X163963373Y-94914800D01*
X163963367Y-94914799D01*
X163958284Y-94913894D01*
X163884452Y-94912992D01*
X163740081Y-94911228D01*
X163740079Y-94911228D01*
X163734911Y-94911165D01*
X163514091Y-94944955D01*
X163301756Y-95014357D01*
X163103607Y-95117507D01*
X163099474Y-95120610D01*
X163099471Y-95120612D01*
X163072116Y-95141151D01*
X162924965Y-95251635D01*
X162770629Y-95413138D01*
X162767715Y-95417410D01*
X162767714Y-95417411D01*
X162721152Y-95485669D01*
X162644743Y-95597680D01*
X162613142Y-95665758D01*
X162575245Y-95747402D01*
X162550688Y-95800305D01*
X162490989Y-96015570D01*
X162467251Y-96237695D01*
X162467548Y-96242848D01*
X162467548Y-96242851D01*
X162478366Y-96430470D01*
X162480110Y-96460715D01*
X162481247Y-96465761D01*
X162481248Y-96465767D01*
X162489776Y-96503607D01*
X162529222Y-96678639D01*
X162583424Y-96812123D01*
X162609633Y-96876668D01*
X162613266Y-96885616D01*
X162636727Y-96923901D01*
X162710718Y-97044643D01*
X162729987Y-97076088D01*
X162876250Y-97244938D01*
X162880230Y-97248242D01*
X162884981Y-97252187D01*
X162924616Y-97311090D01*
X162926113Y-97382071D01*
X162888997Y-97442593D01*
X162848725Y-97467112D01*
X162757695Y-97501238D01*
X162733295Y-97510385D01*
X162616739Y-97597739D01*
X162529385Y-97714295D01*
X162478255Y-97850684D01*
X162471500Y-97912866D01*
X162471500Y-99709134D01*
X162478255Y-99771316D01*
X162529385Y-99907705D01*
X162616739Y-100024261D01*
X162733295Y-100111615D01*
X162869684Y-100162745D01*
X162931866Y-100169500D01*
X164247400Y-100169500D01*
X164315521Y-100189502D01*
X164362014Y-100243158D01*
X164373400Y-100295500D01*
X164373400Y-102140506D01*
X164353398Y-102208627D01*
X164336495Y-102229601D01*
X164243248Y-102322848D01*
X164180936Y-102356874D01*
X164121541Y-102355459D01*
X164063409Y-102339882D01*
X164063398Y-102339880D01*
X164058087Y-102338457D01*
X163830000Y-102318502D01*
X163601913Y-102338457D01*
X163596600Y-102339881D01*
X163596598Y-102339881D01*
X163386067Y-102396293D01*
X163386065Y-102396294D01*
X163380757Y-102397716D01*
X163375776Y-102400039D01*
X163375775Y-102400039D01*
X163178238Y-102492151D01*
X163178233Y-102492154D01*
X163173251Y-102494477D01*
X163119947Y-102531801D01*
X162990211Y-102622643D01*
X162990208Y-102622645D01*
X162985700Y-102625802D01*
X162823802Y-102787700D01*
X162820645Y-102792208D01*
X162820643Y-102792211D01*
X162798754Y-102823472D01*
X162692477Y-102975251D01*
X162690154Y-102980233D01*
X162690151Y-102980238D01*
X162598039Y-103177775D01*
X162595716Y-103182757D01*
X162594294Y-103188065D01*
X162594293Y-103188067D01*
X162537882Y-103398594D01*
X162536457Y-103403913D01*
X162516502Y-103632000D01*
X162536457Y-103860087D01*
X162537879Y-103865392D01*
X162537881Y-103865406D01*
X162553459Y-103923539D01*
X162551771Y-103994516D01*
X162520848Y-104045248D01*
X162208599Y-104357496D01*
X162146287Y-104391521D01*
X162119504Y-104394400D01*
X161907659Y-104394400D01*
X161839538Y-104374398D01*
X161793045Y-104320742D01*
X161782941Y-104250468D01*
X161785952Y-104235788D01*
X161814543Y-104129087D01*
X161834498Y-103901000D01*
X161814543Y-103672913D01*
X161810036Y-103656092D01*
X161756707Y-103457067D01*
X161756706Y-103457065D01*
X161755284Y-103451757D01*
X161741289Y-103421745D01*
X161660849Y-103249238D01*
X161660846Y-103249233D01*
X161658523Y-103244251D01*
X161527198Y-103056700D01*
X161365300Y-102894802D01*
X161360792Y-102891645D01*
X161360789Y-102891643D01*
X161218785Y-102792211D01*
X161177749Y-102763477D01*
X161172767Y-102761154D01*
X161172762Y-102761151D01*
X161138543Y-102745195D01*
X161085258Y-102698278D01*
X161065797Y-102630001D01*
X161086339Y-102562041D01*
X161138543Y-102516805D01*
X161172762Y-102500849D01*
X161172767Y-102500846D01*
X161177749Y-102498523D01*
X161290918Y-102419281D01*
X161360789Y-102370357D01*
X161360792Y-102370355D01*
X161365300Y-102367198D01*
X161527198Y-102205300D01*
X161536024Y-102192696D01*
X161605468Y-102093519D01*
X161658523Y-102017749D01*
X161660846Y-102012767D01*
X161660849Y-102012762D01*
X161752961Y-101815225D01*
X161752961Y-101815224D01*
X161755284Y-101810243D01*
X161759284Y-101795317D01*
X161813119Y-101594402D01*
X161813119Y-101594400D01*
X161814543Y-101589087D01*
X161834498Y-101361000D01*
X161814543Y-101132913D01*
X161761289Y-100934167D01*
X161756707Y-100917067D01*
X161756706Y-100917065D01*
X161755284Y-100911757D01*
X161739448Y-100877796D01*
X161660849Y-100709238D01*
X161660846Y-100709233D01*
X161658523Y-100704251D01*
X161527198Y-100516700D01*
X161365300Y-100354802D01*
X161360792Y-100351645D01*
X161360789Y-100351643D01*
X161205856Y-100243158D01*
X161177749Y-100223477D01*
X161172767Y-100221154D01*
X161172762Y-100221151D01*
X161138543Y-100205195D01*
X161085258Y-100158278D01*
X161065797Y-100090001D01*
X161086339Y-100022041D01*
X161138543Y-99976805D01*
X161172762Y-99960849D01*
X161172767Y-99960846D01*
X161177749Y-99958523D01*
X161306089Y-99868658D01*
X161360789Y-99830357D01*
X161360792Y-99830355D01*
X161365300Y-99827198D01*
X161527198Y-99665300D01*
X161658523Y-99477749D01*
X161660846Y-99472767D01*
X161660849Y-99472762D01*
X161752961Y-99275225D01*
X161752961Y-99275224D01*
X161755284Y-99270243D01*
X161759358Y-99255041D01*
X161813119Y-99054402D01*
X161813119Y-99054400D01*
X161814543Y-99049087D01*
X161834498Y-98821000D01*
X161814543Y-98592913D01*
X161755284Y-98371757D01*
X161752961Y-98366775D01*
X161660849Y-98169238D01*
X161660846Y-98169233D01*
X161658523Y-98164251D01*
X161527198Y-97976700D01*
X161365300Y-97814802D01*
X161360792Y-97811645D01*
X161360789Y-97811643D01*
X161233769Y-97722703D01*
X161177749Y-97683477D01*
X161172767Y-97681154D01*
X161172762Y-97681151D01*
X161138543Y-97665195D01*
X161085258Y-97618278D01*
X161065797Y-97550001D01*
X161086339Y-97482041D01*
X161138543Y-97436805D01*
X161172762Y-97420849D01*
X161172767Y-97420846D01*
X161177749Y-97418523D01*
X161343040Y-97302785D01*
X161360789Y-97290357D01*
X161360792Y-97290355D01*
X161365300Y-97287198D01*
X161527198Y-97125300D01*
X161542503Y-97103443D01*
X161605963Y-97012812D01*
X161658523Y-96937749D01*
X161660846Y-96932767D01*
X161660849Y-96932762D01*
X161752961Y-96735225D01*
X161752961Y-96735224D01*
X161755284Y-96730243D01*
X161759358Y-96715041D01*
X161813119Y-96514402D01*
X161813119Y-96514400D01*
X161814543Y-96509087D01*
X161834498Y-96281000D01*
X161814543Y-96052913D01*
X161813119Y-96047598D01*
X161756707Y-95837067D01*
X161756706Y-95837065D01*
X161755284Y-95831757D01*
X161740618Y-95800305D01*
X161660849Y-95629238D01*
X161660846Y-95629233D01*
X161658523Y-95624251D01*
X161577491Y-95508525D01*
X161530357Y-95441211D01*
X161530355Y-95441208D01*
X161527198Y-95436700D01*
X161365300Y-95274802D01*
X161360792Y-95271645D01*
X161360789Y-95271643D01*
X161282611Y-95216902D01*
X161177749Y-95143477D01*
X161172767Y-95141154D01*
X161172762Y-95141151D01*
X161138543Y-95125195D01*
X161085258Y-95078278D01*
X161065797Y-95010001D01*
X161086339Y-94942041D01*
X161138543Y-94896805D01*
X161172762Y-94880849D01*
X161172767Y-94880846D01*
X161177749Y-94878523D01*
X161282611Y-94805098D01*
X161360789Y-94750357D01*
X161360792Y-94750355D01*
X161365300Y-94747198D01*
X161527198Y-94585300D01*
X161542503Y-94563443D01*
X161605963Y-94472812D01*
X161658523Y-94397749D01*
X161660846Y-94392767D01*
X161660849Y-94392762D01*
X161752961Y-94195225D01*
X161752961Y-94195224D01*
X161755284Y-94190243D01*
X161759358Y-94175041D01*
X161813119Y-93974402D01*
X161813120Y-93974399D01*
X161814543Y-93969087D01*
X161834498Y-93741000D01*
X161814543Y-93512913D01*
X161755284Y-93291757D01*
X161752961Y-93286775D01*
X161660849Y-93089238D01*
X161660846Y-93089233D01*
X161658523Y-93084251D01*
X161563326Y-92948296D01*
X161530357Y-92901211D01*
X161530355Y-92901208D01*
X161527198Y-92896700D01*
X161365300Y-92734802D01*
X161360792Y-92731645D01*
X161360789Y-92731643D01*
X161273467Y-92670500D01*
X161177749Y-92603477D01*
X161172767Y-92601154D01*
X161172762Y-92601151D01*
X161138543Y-92585195D01*
X161085258Y-92538278D01*
X161065797Y-92470001D01*
X161086339Y-92402041D01*
X161138543Y-92356805D01*
X161172762Y-92340849D01*
X161172767Y-92340846D01*
X161177749Y-92338523D01*
X161282611Y-92265098D01*
X161360789Y-92210357D01*
X161360792Y-92210355D01*
X161365300Y-92207198D01*
X161527198Y-92045300D01*
X161542503Y-92023443D01*
X161605963Y-91932812D01*
X161658523Y-91857749D01*
X161660846Y-91852767D01*
X161660849Y-91852762D01*
X161752961Y-91655225D01*
X161752961Y-91655224D01*
X161755284Y-91650243D01*
X161760067Y-91632395D01*
X161813119Y-91434402D01*
X161813120Y-91434399D01*
X161814543Y-91429087D01*
X161834498Y-91201000D01*
X161814543Y-90972913D01*
X161764977Y-90787932D01*
X161756707Y-90757067D01*
X161756706Y-90757065D01*
X161755284Y-90751757D01*
X161742164Y-90723620D01*
X161660849Y-90549238D01*
X161660846Y-90549233D01*
X161658523Y-90544251D01*
X161527198Y-90356700D01*
X161365300Y-90194802D01*
X161360792Y-90191645D01*
X161360789Y-90191643D01*
X161271482Y-90129110D01*
X161177749Y-90063477D01*
X161172767Y-90061154D01*
X161172762Y-90061151D01*
X161137951Y-90044919D01*
X161084666Y-89998002D01*
X161065205Y-89929725D01*
X161085747Y-89861765D01*
X161137951Y-89816529D01*
X161172511Y-89800414D01*
X161182007Y-89794931D01*
X161360467Y-89669972D01*
X161368875Y-89662916D01*
X161522916Y-89508875D01*
X161529972Y-89500467D01*
X161654931Y-89322007D01*
X161660414Y-89312511D01*
X161752490Y-89115053D01*
X161756236Y-89104761D01*
X161802394Y-88932497D01*
X161802058Y-88918401D01*
X161794116Y-88915000D01*
X159993000Y-88915000D01*
X159924879Y-88894998D01*
X159878386Y-88841342D01*
X159867000Y-88789000D01*
X159867000Y-88388885D01*
X160375000Y-88388885D01*
X160379475Y-88404124D01*
X160380865Y-88405329D01*
X160388548Y-88407000D01*
X161788967Y-88407000D01*
X161802498Y-88403027D01*
X161803727Y-88394478D01*
X161756236Y-88217239D01*
X161752490Y-88206947D01*
X161660414Y-88009489D01*
X161654931Y-87999993D01*
X161529972Y-87821533D01*
X161522916Y-87813125D01*
X161368875Y-87659084D01*
X161360467Y-87652028D01*
X161182007Y-87527069D01*
X161172511Y-87521586D01*
X160975053Y-87429510D01*
X160964761Y-87425764D01*
X160754312Y-87369375D01*
X160743519Y-87367472D01*
X160580830Y-87353238D01*
X160575365Y-87353000D01*
X160393115Y-87353000D01*
X160377876Y-87357475D01*
X160376671Y-87358865D01*
X160375000Y-87366548D01*
X160375000Y-88388885D01*
X159867000Y-88388885D01*
X159867000Y-87371115D01*
X159862525Y-87355876D01*
X159861135Y-87354671D01*
X159853452Y-87353000D01*
X159666635Y-87353000D01*
X159661170Y-87353238D01*
X159498481Y-87367472D01*
X159487688Y-87369375D01*
X159277239Y-87425764D01*
X159266947Y-87429510D01*
X159069489Y-87521586D01*
X159059993Y-87527069D01*
X158881533Y-87652028D01*
X158873125Y-87659084D01*
X158719084Y-87813125D01*
X158712028Y-87821533D01*
X158587069Y-87999993D01*
X158581586Y-88009489D01*
X158489510Y-88206947D01*
X158485764Y-88217239D01*
X158429375Y-88427688D01*
X158427472Y-88438481D01*
X158420521Y-88517928D01*
X158394658Y-88584047D01*
X158337154Y-88625686D01*
X158266267Y-88629627D01*
X158204502Y-88594618D01*
X158171470Y-88531774D01*
X158169479Y-88517928D01*
X158162528Y-88438481D01*
X158160625Y-88427688D01*
X158104236Y-88217239D01*
X158100490Y-88206947D01*
X158008414Y-88009489D01*
X158002931Y-87999993D01*
X157877972Y-87821533D01*
X157870916Y-87813125D01*
X157716875Y-87659084D01*
X157708467Y-87652028D01*
X157530007Y-87527069D01*
X157520511Y-87521586D01*
X157323053Y-87429510D01*
X157312761Y-87425764D01*
X157102312Y-87369375D01*
X157091519Y-87367472D01*
X156928830Y-87353238D01*
X156923365Y-87353000D01*
X156741115Y-87353000D01*
X156725876Y-87357475D01*
X156724671Y-87358865D01*
X156723000Y-87366548D01*
X156723000Y-88789000D01*
X156702998Y-88857121D01*
X156649342Y-88903614D01*
X156597000Y-88915000D01*
X154801033Y-88915000D01*
X154787502Y-88918973D01*
X154786273Y-88927522D01*
X154833764Y-89104761D01*
X154837510Y-89115053D01*
X154929586Y-89312511D01*
X154935069Y-89322007D01*
X155060028Y-89500467D01*
X155067084Y-89508875D01*
X155221125Y-89662916D01*
X155229533Y-89669972D01*
X155407993Y-89794931D01*
X155417489Y-89800414D01*
X155452049Y-89816529D01*
X155505334Y-89863446D01*
X155524795Y-89931723D01*
X155504253Y-89999683D01*
X155452049Y-90044919D01*
X155417238Y-90061151D01*
X155417233Y-90061154D01*
X155412251Y-90063477D01*
X155318518Y-90129110D01*
X155229211Y-90191643D01*
X155229208Y-90191645D01*
X155224700Y-90194802D01*
X155062802Y-90356700D01*
X155059645Y-90361208D01*
X155059643Y-90361211D01*
X154951007Y-90516359D01*
X154895550Y-90560687D01*
X154857943Y-90568706D01*
X154857964Y-90568837D01*
X154855495Y-90569228D01*
X154851753Y-90570026D01*
X154851259Y-90570042D01*
X154842211Y-90570326D01*
X154834597Y-90572538D01*
X154834592Y-90572539D01*
X154822759Y-90575977D01*
X154803396Y-90579988D01*
X154783303Y-90582526D01*
X154775936Y-90585443D01*
X154775931Y-90585444D01*
X154742192Y-90598802D01*
X154730965Y-90602646D01*
X154688507Y-90614982D01*
X154681681Y-90619019D01*
X154671072Y-90625293D01*
X154653324Y-90633988D01*
X154634483Y-90641448D01*
X154628067Y-90646110D01*
X154628066Y-90646110D01*
X154598713Y-90667436D01*
X154588793Y-90673952D01*
X154557565Y-90692420D01*
X154557562Y-90692422D01*
X154550738Y-90696458D01*
X154536417Y-90710779D01*
X154521384Y-90723619D01*
X154504993Y-90735528D01*
X154499943Y-90741632D01*
X154499938Y-90741637D01*
X154476807Y-90769598D01*
X154468817Y-90778379D01*
X153571499Y-91675696D01*
X153509187Y-91709721D01*
X153482404Y-91712600D01*
X146662782Y-91712600D01*
X146594661Y-91692598D01*
X146548168Y-91638942D01*
X146538064Y-91568668D01*
X146541073Y-91553998D01*
X146574543Y-91429087D01*
X146594498Y-91201000D01*
X146574543Y-90972913D01*
X146524977Y-90787932D01*
X146516707Y-90757067D01*
X146516706Y-90757065D01*
X146515284Y-90751757D01*
X146502164Y-90723620D01*
X146420849Y-90549238D01*
X146420846Y-90549233D01*
X146418523Y-90544251D01*
X146287198Y-90356700D01*
X146125300Y-90194802D01*
X146120792Y-90191645D01*
X146120789Y-90191643D01*
X146031482Y-90129110D01*
X145937749Y-90063477D01*
X145932767Y-90061154D01*
X145932762Y-90061151D01*
X145898543Y-90045195D01*
X145845258Y-89998278D01*
X145825797Y-89930001D01*
X145846339Y-89862041D01*
X145898543Y-89816805D01*
X145932762Y-89800849D01*
X145932767Y-89800846D01*
X145937749Y-89798523D01*
X146053716Y-89717322D01*
X146120789Y-89670357D01*
X146120792Y-89670355D01*
X146125300Y-89667198D01*
X146287198Y-89505300D01*
X146292369Y-89497916D01*
X146364470Y-89394944D01*
X146418523Y-89317749D01*
X146420846Y-89312767D01*
X146420849Y-89312762D01*
X146512961Y-89115225D01*
X146512961Y-89115224D01*
X146515284Y-89110243D01*
X146520067Y-89092395D01*
X146573119Y-88894402D01*
X146573119Y-88894400D01*
X146574543Y-88889087D01*
X146594498Y-88661000D01*
X146574543Y-88432913D01*
X146564244Y-88394478D01*
X146562911Y-88389503D01*
X154787606Y-88389503D01*
X154787942Y-88403599D01*
X154795884Y-88407000D01*
X156196885Y-88407000D01*
X156212124Y-88402525D01*
X156213329Y-88401135D01*
X156215000Y-88393452D01*
X156215000Y-87371115D01*
X156210525Y-87355876D01*
X156209135Y-87354671D01*
X156201452Y-87353000D01*
X156014635Y-87353000D01*
X156009170Y-87353238D01*
X155846481Y-87367472D01*
X155835688Y-87369375D01*
X155625239Y-87425764D01*
X155614947Y-87429510D01*
X155417489Y-87521586D01*
X155407993Y-87527069D01*
X155229533Y-87652028D01*
X155221125Y-87659084D01*
X155067084Y-87813125D01*
X155060028Y-87821533D01*
X154935069Y-87999993D01*
X154929586Y-88009489D01*
X154837510Y-88206947D01*
X154833764Y-88217239D01*
X154787606Y-88389503D01*
X146562911Y-88389503D01*
X146516707Y-88217067D01*
X146516706Y-88217065D01*
X146515284Y-88211757D01*
X146430527Y-88029993D01*
X146420849Y-88009238D01*
X146420846Y-88009233D01*
X146418523Y-88004251D01*
X146287198Y-87816700D01*
X146125300Y-87654802D01*
X146120792Y-87651645D01*
X146120789Y-87651643D01*
X146042611Y-87596902D01*
X145937749Y-87523477D01*
X145932767Y-87521154D01*
X145932762Y-87521151D01*
X145735225Y-87429039D01*
X145735224Y-87429039D01*
X145730243Y-87426716D01*
X145724935Y-87425294D01*
X145724933Y-87425293D01*
X145514402Y-87368881D01*
X145514400Y-87368881D01*
X145509087Y-87367457D01*
X145409520Y-87358746D01*
X145340851Y-87352738D01*
X145340844Y-87352738D01*
X145338127Y-87352500D01*
X144423873Y-87352500D01*
X144421156Y-87352738D01*
X144421149Y-87352738D01*
X144352480Y-87358746D01*
X144252913Y-87367457D01*
X144247600Y-87368881D01*
X144247598Y-87368881D01*
X144037067Y-87425293D01*
X144037065Y-87425294D01*
X144031757Y-87426716D01*
X144026776Y-87429039D01*
X144026775Y-87429039D01*
X143829238Y-87521151D01*
X143829233Y-87521154D01*
X143824251Y-87523477D01*
X143719389Y-87596902D01*
X143641211Y-87651643D01*
X143641208Y-87651645D01*
X143636700Y-87654802D01*
X143474802Y-87816700D01*
X143471645Y-87821208D01*
X143471643Y-87821211D01*
X143364819Y-87973771D01*
X143309362Y-88018099D01*
X143261606Y-88027500D01*
X142848394Y-88027500D01*
X142780273Y-88007498D01*
X142745181Y-87973771D01*
X142638357Y-87821211D01*
X142638355Y-87821208D01*
X142635198Y-87816700D01*
X142473300Y-87654802D01*
X142468792Y-87651645D01*
X142468789Y-87651643D01*
X142390611Y-87596902D01*
X142285749Y-87523477D01*
X142280767Y-87521154D01*
X142280762Y-87521151D01*
X142083225Y-87429039D01*
X142083224Y-87429039D01*
X142078243Y-87426716D01*
X142072935Y-87425294D01*
X142072933Y-87425293D01*
X141862402Y-87368881D01*
X141862400Y-87368881D01*
X141857087Y-87367457D01*
X141757520Y-87358746D01*
X141688851Y-87352738D01*
X141688844Y-87352738D01*
X141686127Y-87352500D01*
X140771873Y-87352500D01*
X140769156Y-87352738D01*
X140769149Y-87352738D01*
X140700480Y-87358746D01*
X140600913Y-87367457D01*
X140595600Y-87368881D01*
X140595598Y-87368881D01*
X140385067Y-87425293D01*
X140385065Y-87425294D01*
X140379757Y-87426716D01*
X140374776Y-87429039D01*
X140374775Y-87429039D01*
X140177238Y-87521151D01*
X140177233Y-87521154D01*
X140172251Y-87523477D01*
X140067389Y-87596902D01*
X139989211Y-87651643D01*
X139989208Y-87651645D01*
X139984700Y-87654802D01*
X139877349Y-87762153D01*
X139815037Y-87796179D01*
X139744222Y-87791114D01*
X139699159Y-87762153D01*
X139062648Y-87125642D01*
X139055113Y-87117362D01*
X139051000Y-87110882D01*
X139001348Y-87064256D01*
X138998507Y-87061502D01*
X138978770Y-87041765D01*
X138975573Y-87039285D01*
X138966551Y-87031580D01*
X138962397Y-87027679D01*
X138934321Y-87001314D01*
X138927375Y-86997495D01*
X138927372Y-86997493D01*
X138916566Y-86991552D01*
X138900047Y-86980701D01*
X138899583Y-86980341D01*
X138884041Y-86968286D01*
X138876772Y-86965141D01*
X138876768Y-86965138D01*
X138843463Y-86950726D01*
X138832813Y-86945509D01*
X138794060Y-86924205D01*
X138774437Y-86919167D01*
X138755734Y-86912763D01*
X138744420Y-86907867D01*
X138744419Y-86907867D01*
X138737145Y-86904719D01*
X138729322Y-86903480D01*
X138729312Y-86903477D01*
X138693476Y-86897801D01*
X138681856Y-86895395D01*
X138646711Y-86886372D01*
X138646710Y-86886372D01*
X138639030Y-86884400D01*
X138618776Y-86884400D01*
X138599065Y-86882849D01*
X138586886Y-86880920D01*
X138579057Y-86879680D01*
X138549786Y-86882447D01*
X138535039Y-86883841D01*
X138523181Y-86884400D01*
X125181768Y-86884400D01*
X125170585Y-86883873D01*
X125163092Y-86882198D01*
X125155166Y-86882447D01*
X125155165Y-86882447D01*
X125095002Y-86884338D01*
X125091044Y-86884400D01*
X125063144Y-86884400D01*
X125059154Y-86884904D01*
X125047320Y-86885836D01*
X125003111Y-86887226D01*
X124995495Y-86889439D01*
X124995493Y-86889439D01*
X124983652Y-86892879D01*
X124964293Y-86896888D01*
X124962983Y-86897054D01*
X124944203Y-86899426D01*
X124936837Y-86902342D01*
X124936831Y-86902344D01*
X124903098Y-86915700D01*
X124891868Y-86919545D01*
X124875828Y-86924205D01*
X124849407Y-86931881D01*
X124842584Y-86935916D01*
X124831966Y-86942195D01*
X124814213Y-86950892D01*
X124806568Y-86953919D01*
X124795383Y-86958348D01*
X124781705Y-86968286D01*
X124759612Y-86984337D01*
X124749695Y-86990851D01*
X124711638Y-87013358D01*
X124697317Y-87027679D01*
X124682284Y-87040519D01*
X124665893Y-87052428D01*
X124660843Y-87058532D01*
X124660838Y-87058537D01*
X124637707Y-87086498D01*
X124629717Y-87095279D01*
X123962841Y-87762154D01*
X123900529Y-87796179D01*
X123829713Y-87791114D01*
X123784651Y-87762153D01*
X123677300Y-87654802D01*
X123672792Y-87651645D01*
X123672789Y-87651643D01*
X123594611Y-87596902D01*
X123489749Y-87523477D01*
X123484767Y-87521154D01*
X123484762Y-87521151D01*
X123287225Y-87429039D01*
X123287224Y-87429039D01*
X123282243Y-87426716D01*
X123276935Y-87425294D01*
X123276933Y-87425293D01*
X123066402Y-87368881D01*
X123066400Y-87368881D01*
X123061087Y-87367457D01*
X122961520Y-87358746D01*
X122892851Y-87352738D01*
X122892844Y-87352738D01*
X122890127Y-87352500D01*
X121975873Y-87352500D01*
X121973156Y-87352738D01*
X121973149Y-87352738D01*
X121904480Y-87358746D01*
X121804913Y-87367457D01*
X121799600Y-87368881D01*
X121799598Y-87368881D01*
X121589067Y-87425293D01*
X121589065Y-87425294D01*
X121583757Y-87426716D01*
X121578776Y-87429039D01*
X121578775Y-87429039D01*
X121381238Y-87521151D01*
X121381233Y-87521154D01*
X121376251Y-87523477D01*
X121271389Y-87596902D01*
X121193211Y-87651643D01*
X121193208Y-87651645D01*
X121188700Y-87654802D01*
X121026802Y-87816700D01*
X120895477Y-88004251D01*
X120893154Y-88009233D01*
X120893151Y-88009238D01*
X120883473Y-88029993D01*
X120798716Y-88211757D01*
X120797294Y-88217065D01*
X120797293Y-88217067D01*
X120749756Y-88394478D01*
X120739457Y-88432913D01*
X120719502Y-88661000D01*
X120739457Y-88889087D01*
X120740881Y-88894400D01*
X120740881Y-88894402D01*
X120793934Y-89092395D01*
X120798716Y-89110243D01*
X120801039Y-89115224D01*
X120801039Y-89115225D01*
X120893151Y-89312762D01*
X120893154Y-89312767D01*
X120895477Y-89317749D01*
X120949530Y-89394944D01*
X121021632Y-89497916D01*
X121026802Y-89505300D01*
X121188700Y-89667198D01*
X121193208Y-89670355D01*
X121193211Y-89670357D01*
X121260284Y-89717322D01*
X121376251Y-89798523D01*
X121381233Y-89800846D01*
X121381238Y-89800849D01*
X121415457Y-89816805D01*
X121468742Y-89863722D01*
X121488203Y-89931999D01*
X121467661Y-89999959D01*
X121415457Y-90045195D01*
X121381238Y-90061151D01*
X121381233Y-90061154D01*
X121376251Y-90063477D01*
X121282518Y-90129110D01*
X121193211Y-90191643D01*
X121193208Y-90191645D01*
X121188700Y-90194802D01*
X121026802Y-90356700D01*
X120895477Y-90544251D01*
X120893154Y-90549233D01*
X120893151Y-90549238D01*
X120811836Y-90723620D01*
X120798716Y-90751757D01*
X120797294Y-90757065D01*
X120797293Y-90757067D01*
X120789023Y-90787932D01*
X120739457Y-90972913D01*
X120719502Y-91201000D01*
X120739457Y-91429087D01*
X120740880Y-91434399D01*
X120740881Y-91434402D01*
X120793934Y-91632395D01*
X120798716Y-91650243D01*
X120801039Y-91655224D01*
X120801039Y-91655225D01*
X120893151Y-91852762D01*
X120893154Y-91852767D01*
X120895477Y-91857749D01*
X120948037Y-91932812D01*
X121011498Y-92023443D01*
X121026802Y-92045300D01*
X121188700Y-92207198D01*
X121193208Y-92210355D01*
X121193211Y-92210357D01*
X121271389Y-92265098D01*
X121376251Y-92338523D01*
X121381233Y-92340846D01*
X121381238Y-92340849D01*
X121415457Y-92356805D01*
X121468742Y-92403722D01*
X121488203Y-92471999D01*
X121467661Y-92539959D01*
X121415457Y-92585195D01*
X121381238Y-92601151D01*
X121381233Y-92601154D01*
X121376251Y-92603477D01*
X121280533Y-92670500D01*
X121193211Y-92731643D01*
X121193208Y-92731645D01*
X121188700Y-92734802D01*
X121026802Y-92896700D01*
X121023645Y-92901208D01*
X121023643Y-92901211D01*
X120990674Y-92948296D01*
X120895477Y-93084251D01*
X120893154Y-93089233D01*
X120893151Y-93089238D01*
X120801039Y-93286775D01*
X120798716Y-93291757D01*
X120739457Y-93512913D01*
X120719502Y-93741000D01*
X120739457Y-93969087D01*
X120740880Y-93974399D01*
X120740881Y-93974402D01*
X120794643Y-94175041D01*
X120798716Y-94190243D01*
X120801039Y-94195224D01*
X120801039Y-94195225D01*
X120893151Y-94392762D01*
X120893154Y-94392767D01*
X120895477Y-94397749D01*
X120948037Y-94472812D01*
X121011498Y-94563443D01*
X121026802Y-94585300D01*
X121188700Y-94747198D01*
X121193208Y-94750355D01*
X121193211Y-94750357D01*
X121271389Y-94805098D01*
X121376251Y-94878523D01*
X121381233Y-94880846D01*
X121381238Y-94880849D01*
X121415457Y-94896805D01*
X121468742Y-94943722D01*
X121488203Y-95011999D01*
X121467661Y-95079959D01*
X121415457Y-95125195D01*
X121381238Y-95141151D01*
X121381233Y-95141154D01*
X121376251Y-95143477D01*
X121271389Y-95216902D01*
X121193211Y-95271643D01*
X121193208Y-95271645D01*
X121188700Y-95274802D01*
X121026802Y-95436700D01*
X121023645Y-95441208D01*
X121023643Y-95441211D01*
X120976509Y-95508525D01*
X120895477Y-95624251D01*
X120893154Y-95629233D01*
X120893151Y-95629238D01*
X120813382Y-95800305D01*
X120798716Y-95831757D01*
X120797294Y-95837065D01*
X120797293Y-95837067D01*
X120740881Y-96047598D01*
X120739457Y-96052913D01*
X120719502Y-96281000D01*
X120739457Y-96509087D01*
X120740881Y-96514400D01*
X120740881Y-96514402D01*
X120794643Y-96715041D01*
X120798716Y-96730243D01*
X120801039Y-96735224D01*
X120801039Y-96735225D01*
X120893151Y-96932762D01*
X120893154Y-96932767D01*
X120895477Y-96937749D01*
X120948037Y-97012812D01*
X121011498Y-97103443D01*
X121026802Y-97125300D01*
X121188700Y-97287198D01*
X121193208Y-97290355D01*
X121193211Y-97290357D01*
X121210960Y-97302785D01*
X121376251Y-97418523D01*
X121381233Y-97420846D01*
X121381238Y-97420849D01*
X121415457Y-97436805D01*
X121468742Y-97483722D01*
X121488203Y-97551999D01*
X121467661Y-97619959D01*
X121415457Y-97665195D01*
X121381238Y-97681151D01*
X121381233Y-97681154D01*
X121376251Y-97683477D01*
X121320231Y-97722703D01*
X121193211Y-97811643D01*
X121193208Y-97811645D01*
X121188700Y-97814802D01*
X121026802Y-97976700D01*
X120895477Y-98164251D01*
X120893154Y-98169233D01*
X120893151Y-98169238D01*
X120801039Y-98366775D01*
X120798716Y-98371757D01*
X120739457Y-98592913D01*
X120719502Y-98821000D01*
X120739457Y-99049087D01*
X120740881Y-99054400D01*
X120740881Y-99054402D01*
X120794643Y-99255041D01*
X120798716Y-99270243D01*
X120801039Y-99275225D01*
X120801041Y-99275230D01*
X120827863Y-99332751D01*
X120838524Y-99402943D01*
X120809544Y-99467755D01*
X120750124Y-99506611D01*
X120713668Y-99512000D01*
X120647095Y-99512000D01*
X120578974Y-99491998D01*
X120557999Y-99475095D01*
X120075370Y-98992465D01*
X120041345Y-98930153D01*
X120046410Y-98859337D01*
X120061253Y-98831099D01*
X120142366Y-98715258D01*
X120142367Y-98715256D01*
X120145523Y-98710749D01*
X120147846Y-98705767D01*
X120147849Y-98705762D01*
X120239961Y-98508225D01*
X120239961Y-98508224D01*
X120242284Y-98503243D01*
X120301543Y-98282087D01*
X120321498Y-98054000D01*
X120301543Y-97825913D01*
X120271635Y-97714295D01*
X120243707Y-97610067D01*
X120243706Y-97610065D01*
X120242284Y-97604757D01*
X120239607Y-97599016D01*
X120147849Y-97402238D01*
X120147846Y-97402233D01*
X120145523Y-97397251D01*
X120043948Y-97252187D01*
X120017357Y-97214211D01*
X120017355Y-97214208D01*
X120014198Y-97209700D01*
X119852300Y-97047802D01*
X119847792Y-97044645D01*
X119847789Y-97044643D01*
X119716559Y-96952755D01*
X119664749Y-96916477D01*
X119659767Y-96914154D01*
X119659762Y-96914151D01*
X119625543Y-96898195D01*
X119572258Y-96851278D01*
X119552797Y-96783001D01*
X119573339Y-96715041D01*
X119625543Y-96669805D01*
X119659762Y-96653849D01*
X119659767Y-96653846D01*
X119664749Y-96651523D01*
X119802329Y-96555188D01*
X119847789Y-96523357D01*
X119847792Y-96523355D01*
X119852300Y-96520198D01*
X120014198Y-96358300D01*
X120145523Y-96170749D01*
X120147846Y-96165767D01*
X120147849Y-96165762D01*
X120239961Y-95968225D01*
X120239961Y-95968224D01*
X120242284Y-95963243D01*
X120285944Y-95800305D01*
X120300119Y-95747402D01*
X120300119Y-95747400D01*
X120301543Y-95742087D01*
X120321498Y-95514000D01*
X120301543Y-95285913D01*
X120262754Y-95141151D01*
X120243707Y-95070067D01*
X120243706Y-95070065D01*
X120242284Y-95064757D01*
X120239961Y-95059775D01*
X120147849Y-94862238D01*
X120147846Y-94862233D01*
X120145523Y-94857251D01*
X120014198Y-94669700D01*
X119852300Y-94507802D01*
X119847792Y-94504645D01*
X119847789Y-94504643D01*
X119716559Y-94412755D01*
X119664749Y-94376477D01*
X119659767Y-94374154D01*
X119659762Y-94374151D01*
X119624951Y-94357919D01*
X119571666Y-94311002D01*
X119552205Y-94242725D01*
X119572747Y-94174765D01*
X119624951Y-94129529D01*
X119659511Y-94113414D01*
X119669007Y-94107931D01*
X119847467Y-93982972D01*
X119855875Y-93975916D01*
X120009916Y-93821875D01*
X120016972Y-93813467D01*
X120141931Y-93635007D01*
X120147414Y-93625511D01*
X120239490Y-93428053D01*
X120243236Y-93417761D01*
X120289394Y-93245497D01*
X120289058Y-93231401D01*
X120281116Y-93228000D01*
X116940033Y-93228000D01*
X116926502Y-93231973D01*
X116925273Y-93240522D01*
X116972764Y-93417761D01*
X116976510Y-93428053D01*
X117068586Y-93625511D01*
X117074069Y-93635007D01*
X117199028Y-93813467D01*
X117206084Y-93821875D01*
X117360125Y-93975916D01*
X117368533Y-93982972D01*
X117546993Y-94107931D01*
X117556489Y-94113414D01*
X117591049Y-94129529D01*
X117644334Y-94176446D01*
X117663795Y-94244723D01*
X117643253Y-94312683D01*
X117591049Y-94357919D01*
X117556238Y-94374151D01*
X117556233Y-94374154D01*
X117551251Y-94376477D01*
X117499441Y-94412755D01*
X117368211Y-94504643D01*
X117368208Y-94504645D01*
X117363700Y-94507802D01*
X117201802Y-94669700D01*
X117070477Y-94857251D01*
X117068154Y-94862233D01*
X117068151Y-94862238D01*
X116976039Y-95059775D01*
X116973716Y-95064757D01*
X116972294Y-95070065D01*
X116972293Y-95070067D01*
X116953246Y-95141151D01*
X116914457Y-95285913D01*
X116894502Y-95514000D01*
X116914457Y-95742087D01*
X116915881Y-95747400D01*
X116915881Y-95747402D01*
X116930057Y-95800305D01*
X116973716Y-95963243D01*
X116976039Y-95968224D01*
X116976039Y-95968225D01*
X117068151Y-96165762D01*
X117068154Y-96165767D01*
X117070477Y-96170749D01*
X117201802Y-96358300D01*
X117363700Y-96520198D01*
X117368208Y-96523355D01*
X117368211Y-96523357D01*
X117413671Y-96555188D01*
X117551251Y-96651523D01*
X117556233Y-96653846D01*
X117556238Y-96653849D01*
X117590457Y-96669805D01*
X117643742Y-96716722D01*
X117663203Y-96784999D01*
X117642661Y-96852959D01*
X117590457Y-96898195D01*
X117556238Y-96914151D01*
X117556233Y-96914154D01*
X117551251Y-96916477D01*
X117499441Y-96952755D01*
X117368211Y-97044643D01*
X117368208Y-97044645D01*
X117363700Y-97047802D01*
X117201802Y-97209700D01*
X117198645Y-97214208D01*
X117198643Y-97214211D01*
X117172052Y-97252187D01*
X117070477Y-97397251D01*
X117068154Y-97402233D01*
X117068151Y-97402238D01*
X116976393Y-97599016D01*
X116973716Y-97604757D01*
X116972294Y-97610065D01*
X116972293Y-97610067D01*
X116944365Y-97714295D01*
X116914457Y-97825913D01*
X116894502Y-98054000D01*
X116914457Y-98282087D01*
X116973716Y-98503243D01*
X116976039Y-98508225D01*
X116976041Y-98508230D01*
X116977403Y-98511151D01*
X116977617Y-98512560D01*
X116977922Y-98513398D01*
X116977754Y-98513459D01*
X116988064Y-98581343D01*
X116959083Y-98646155D01*
X116899663Y-98685011D01*
X116863208Y-98690400D01*
X114099394Y-98690400D01*
X114031273Y-98670398D01*
X114010299Y-98653495D01*
X113526043Y-98169238D01*
X113018552Y-97661747D01*
X113011012Y-97653461D01*
X113006900Y-97646982D01*
X112957248Y-97600356D01*
X112954407Y-97597602D01*
X112934670Y-97577865D01*
X112931473Y-97575385D01*
X112922451Y-97567680D01*
X112890221Y-97537414D01*
X112883275Y-97533595D01*
X112883272Y-97533593D01*
X112872466Y-97527652D01*
X112855947Y-97516801D01*
X112847675Y-97510385D01*
X112839941Y-97504386D01*
X112832672Y-97501241D01*
X112832668Y-97501238D01*
X112799363Y-97486826D01*
X112788713Y-97481609D01*
X112749960Y-97460305D01*
X112730337Y-97455267D01*
X112711634Y-97448863D01*
X112700320Y-97443967D01*
X112700319Y-97443967D01*
X112693045Y-97440819D01*
X112685222Y-97439580D01*
X112685212Y-97439577D01*
X112649376Y-97433901D01*
X112637756Y-97431495D01*
X112602611Y-97422472D01*
X112602610Y-97422472D01*
X112594930Y-97420500D01*
X112591129Y-97420500D01*
X112527735Y-97392852D01*
X112505390Y-97368498D01*
X112397357Y-97214211D01*
X112397355Y-97214208D01*
X112394198Y-97209700D01*
X112232300Y-97047802D01*
X112227792Y-97044645D01*
X112227789Y-97044643D01*
X112096559Y-96952755D01*
X112044749Y-96916477D01*
X112039767Y-96914154D01*
X112039762Y-96914151D01*
X112005543Y-96898195D01*
X111952258Y-96851278D01*
X111932797Y-96783001D01*
X111953339Y-96715041D01*
X112005543Y-96669805D01*
X112039762Y-96653849D01*
X112039767Y-96653846D01*
X112044749Y-96651523D01*
X112182329Y-96555188D01*
X112227789Y-96523357D01*
X112227792Y-96523355D01*
X112232300Y-96520198D01*
X112394198Y-96358300D01*
X112525523Y-96170749D01*
X112527846Y-96165767D01*
X112527849Y-96165762D01*
X112619961Y-95968225D01*
X112619961Y-95968224D01*
X112622284Y-95963243D01*
X112665944Y-95800305D01*
X112680119Y-95747402D01*
X112680119Y-95747400D01*
X112681543Y-95742087D01*
X112701498Y-95514000D01*
X112681543Y-95285913D01*
X112642754Y-95141151D01*
X112623707Y-95070067D01*
X112623706Y-95070065D01*
X112622284Y-95064757D01*
X112619961Y-95059775D01*
X112527849Y-94862238D01*
X112527846Y-94862233D01*
X112525523Y-94857251D01*
X112394198Y-94669700D01*
X112232300Y-94507802D01*
X112227792Y-94504645D01*
X112227789Y-94504643D01*
X112096559Y-94412755D01*
X112044749Y-94376477D01*
X112039767Y-94374154D01*
X112039762Y-94374151D01*
X112005543Y-94358195D01*
X111952258Y-94311278D01*
X111932797Y-94243001D01*
X111953339Y-94175041D01*
X112005543Y-94129805D01*
X112039762Y-94113849D01*
X112039767Y-94113846D01*
X112044749Y-94111523D01*
X112182329Y-94015188D01*
X112227789Y-93983357D01*
X112227792Y-93983355D01*
X112232300Y-93980198D01*
X112394198Y-93818300D01*
X112525523Y-93630749D01*
X112527846Y-93625767D01*
X112527849Y-93625762D01*
X112619961Y-93428225D01*
X112619961Y-93428224D01*
X112622284Y-93423243D01*
X112660228Y-93281637D01*
X112680119Y-93207402D01*
X112680119Y-93207400D01*
X112681543Y-93202087D01*
X112701498Y-92974000D01*
X112681543Y-92745913D01*
X112671244Y-92707478D01*
X112669911Y-92702503D01*
X116926606Y-92702503D01*
X116926942Y-92716599D01*
X116934884Y-92720000D01*
X118335885Y-92720000D01*
X118351124Y-92715525D01*
X118352329Y-92714135D01*
X118354000Y-92706452D01*
X118354000Y-92701885D01*
X118862000Y-92701885D01*
X118866475Y-92717124D01*
X118867865Y-92718329D01*
X118875548Y-92720000D01*
X120275967Y-92720000D01*
X120289498Y-92716027D01*
X120290727Y-92707478D01*
X120243236Y-92530239D01*
X120239490Y-92519947D01*
X120147414Y-92322489D01*
X120141931Y-92312993D01*
X120016972Y-92134533D01*
X120009916Y-92126125D01*
X119855875Y-91972084D01*
X119847467Y-91965028D01*
X119669007Y-91840069D01*
X119659511Y-91834586D01*
X119462053Y-91742510D01*
X119451761Y-91738764D01*
X119241312Y-91682375D01*
X119230519Y-91680472D01*
X119067830Y-91666238D01*
X119062365Y-91666000D01*
X118880115Y-91666000D01*
X118864876Y-91670475D01*
X118863671Y-91671865D01*
X118862000Y-91679548D01*
X118862000Y-92701885D01*
X118354000Y-92701885D01*
X118354000Y-91684115D01*
X118349525Y-91668876D01*
X118348135Y-91667671D01*
X118340452Y-91666000D01*
X118153635Y-91666000D01*
X118148170Y-91666238D01*
X117985481Y-91680472D01*
X117974688Y-91682375D01*
X117764239Y-91738764D01*
X117753947Y-91742510D01*
X117556489Y-91834586D01*
X117546993Y-91840069D01*
X117368533Y-91965028D01*
X117360125Y-91972084D01*
X117206084Y-92126125D01*
X117199028Y-92134533D01*
X117074069Y-92312993D01*
X117068586Y-92322489D01*
X116976510Y-92519947D01*
X116972764Y-92530239D01*
X116926606Y-92702503D01*
X112669911Y-92702503D01*
X112623707Y-92530067D01*
X112623706Y-92530065D01*
X112622284Y-92524757D01*
X112619961Y-92519775D01*
X112527849Y-92322238D01*
X112527846Y-92322233D01*
X112525523Y-92317251D01*
X112394198Y-92129700D01*
X112232300Y-91967802D01*
X112227792Y-91964645D01*
X112227789Y-91964643D01*
X112096559Y-91872755D01*
X112044749Y-91836477D01*
X112039767Y-91834154D01*
X112039762Y-91834151D01*
X111842225Y-91742039D01*
X111842224Y-91742039D01*
X111837243Y-91739716D01*
X111831935Y-91738294D01*
X111831933Y-91738293D01*
X111621402Y-91681881D01*
X111621400Y-91681881D01*
X111616087Y-91680457D01*
X111509490Y-91671131D01*
X111447851Y-91665738D01*
X111447844Y-91665738D01*
X111445127Y-91665500D01*
X110530873Y-91665500D01*
X110528156Y-91665738D01*
X110528149Y-91665738D01*
X110466510Y-91671131D01*
X110359913Y-91680457D01*
X110354600Y-91681881D01*
X110354598Y-91681881D01*
X110144067Y-91738293D01*
X110144065Y-91738294D01*
X110138757Y-91739716D01*
X110133776Y-91742039D01*
X110133775Y-91742039D01*
X109936238Y-91834151D01*
X109936233Y-91834154D01*
X109931251Y-91836477D01*
X109879441Y-91872755D01*
X109748211Y-91964643D01*
X109748208Y-91964645D01*
X109743700Y-91967802D01*
X109689595Y-92021907D01*
X109627283Y-92055933D01*
X109556468Y-92050868D01*
X109499632Y-92008321D01*
X109474821Y-91941801D01*
X109474500Y-91932812D01*
X109474500Y-88499655D01*
X116095858Y-88499655D01*
X116131104Y-88758638D01*
X116132412Y-88763124D01*
X116132412Y-88763126D01*
X116152064Y-88830547D01*
X116204243Y-89009567D01*
X116313668Y-89246928D01*
X116336671Y-89282013D01*
X116454410Y-89461596D01*
X116454414Y-89461601D01*
X116456976Y-89465509D01*
X116631018Y-89660506D01*
X116831970Y-89827637D01*
X116835973Y-89830066D01*
X117051422Y-89960804D01*
X117051426Y-89960806D01*
X117055419Y-89963229D01*
X117296455Y-90064303D01*
X117549783Y-90128641D01*
X117554434Y-90129109D01*
X117554438Y-90129110D01*
X117729536Y-90146741D01*
X117766867Y-90150500D01*
X117922354Y-90150500D01*
X117924679Y-90150327D01*
X117924685Y-90150327D01*
X118112000Y-90136407D01*
X118112004Y-90136406D01*
X118116652Y-90136061D01*
X118121200Y-90135032D01*
X118121206Y-90135031D01*
X118355084Y-90082109D01*
X118371577Y-90078377D01*
X118389884Y-90071258D01*
X118610824Y-89985340D01*
X118610827Y-89985339D01*
X118615177Y-89983647D01*
X118622486Y-89979470D01*
X118787100Y-89885385D01*
X118842098Y-89853951D01*
X119047357Y-89692138D01*
X119226443Y-89501763D01*
X119343689Y-89332755D01*
X119372759Y-89290851D01*
X119372761Y-89290848D01*
X119375424Y-89287009D01*
X119377888Y-89282013D01*
X119488960Y-89056781D01*
X119488961Y-89056778D01*
X119491025Y-89052593D01*
X119570707Y-88803665D01*
X119612721Y-88545693D01*
X119614388Y-88418342D01*
X119616081Y-88289022D01*
X119616081Y-88289019D01*
X119616142Y-88284345D01*
X119580896Y-88025362D01*
X119576270Y-88009489D01*
X119521485Y-87821533D01*
X119507757Y-87774433D01*
X119398332Y-87537072D01*
X119327811Y-87429510D01*
X119257590Y-87322404D01*
X119257586Y-87322399D01*
X119255024Y-87318491D01*
X119080982Y-87123494D01*
X118880030Y-86956363D01*
X118794923Y-86904719D01*
X118660578Y-86823196D01*
X118660574Y-86823194D01*
X118656581Y-86820771D01*
X118415545Y-86719697D01*
X118162217Y-86655359D01*
X118157566Y-86654891D01*
X118157562Y-86654890D01*
X117948271Y-86633816D01*
X117945133Y-86633500D01*
X117789646Y-86633500D01*
X117787321Y-86633673D01*
X117787315Y-86633673D01*
X117600000Y-86647593D01*
X117599996Y-86647594D01*
X117595348Y-86647939D01*
X117590800Y-86648968D01*
X117590794Y-86648969D01*
X117404399Y-86691147D01*
X117340423Y-86705623D01*
X117336071Y-86707315D01*
X117336069Y-86707316D01*
X117101176Y-86798660D01*
X117101173Y-86798661D01*
X117096823Y-86800353D01*
X116869902Y-86930049D01*
X116664643Y-87091862D01*
X116485557Y-87282237D01*
X116400298Y-87405137D01*
X116339687Y-87492507D01*
X116336576Y-87496991D01*
X116334510Y-87501181D01*
X116334508Y-87501184D01*
X116256641Y-87659084D01*
X116220975Y-87731407D01*
X116219553Y-87735850D01*
X116219552Y-87735852D01*
X116200241Y-87796179D01*
X116141293Y-87980335D01*
X116099279Y-88238307D01*
X116099218Y-88242980D01*
X116096107Y-88480658D01*
X116095858Y-88499655D01*
X109474500Y-88499655D01*
X109474500Y-86232500D01*
X109494502Y-86164379D01*
X109548158Y-86117886D01*
X109600500Y-86106500D01*
X167005500Y-86106500D01*
X167073621Y-86126502D01*
G37*
G04 #@! TD.AperFunction*
G04 #@! TA.AperFunction,Conductor*
G36*
X112472778Y-98923886D02*
G01*
X112517841Y-98952847D01*
X113281152Y-99716158D01*
X113288687Y-99724438D01*
X113292800Y-99730918D01*
X113312801Y-99749700D01*
X113342451Y-99777543D01*
X113345293Y-99780298D01*
X113365030Y-99800035D01*
X113368227Y-99802515D01*
X113377247Y-99810218D01*
X113409479Y-99840486D01*
X113416425Y-99844305D01*
X113416428Y-99844307D01*
X113427234Y-99850248D01*
X113443753Y-99861099D01*
X113459759Y-99873514D01*
X113467028Y-99876659D01*
X113467032Y-99876662D01*
X113500337Y-99891074D01*
X113510987Y-99896291D01*
X113549740Y-99917595D01*
X113557415Y-99919566D01*
X113557416Y-99919566D01*
X113569362Y-99922633D01*
X113588067Y-99929037D01*
X113606655Y-99937081D01*
X113614478Y-99938320D01*
X113614488Y-99938323D01*
X113650324Y-99943999D01*
X113661944Y-99946405D01*
X113696848Y-99955366D01*
X113704770Y-99957400D01*
X113725024Y-99957400D01*
X113744734Y-99958951D01*
X113764743Y-99962120D01*
X113772635Y-99961374D01*
X113808761Y-99957959D01*
X113820619Y-99957400D01*
X116863302Y-99957400D01*
X116931423Y-99977402D01*
X116977916Y-100031058D01*
X116988020Y-100101332D01*
X116977497Y-100136648D01*
X116973716Y-100144757D01*
X116914457Y-100365913D01*
X116894502Y-100594000D01*
X116914457Y-100822087D01*
X116915881Y-100827400D01*
X116915881Y-100827402D01*
X116941479Y-100922932D01*
X116973716Y-101043243D01*
X116976039Y-101048224D01*
X116976039Y-101048225D01*
X117068151Y-101245762D01*
X117068154Y-101245767D01*
X117070477Y-101250749D01*
X117118932Y-101319949D01*
X117173661Y-101398110D01*
X117201802Y-101438300D01*
X117363700Y-101600198D01*
X117368208Y-101603355D01*
X117368211Y-101603357D01*
X117413671Y-101635188D01*
X117551251Y-101731523D01*
X117556233Y-101733846D01*
X117556238Y-101733849D01*
X117590457Y-101749805D01*
X117643742Y-101796722D01*
X117663203Y-101864999D01*
X117642661Y-101932959D01*
X117590457Y-101978195D01*
X117556238Y-101994151D01*
X117556233Y-101994154D01*
X117551251Y-101996477D01*
X117499441Y-102032755D01*
X117368211Y-102124643D01*
X117368208Y-102124645D01*
X117363700Y-102127802D01*
X117201802Y-102289700D01*
X117198645Y-102294208D01*
X117198643Y-102294211D01*
X117090006Y-102449360D01*
X117034549Y-102493688D01*
X116996944Y-102501707D01*
X116996965Y-102501838D01*
X116994492Y-102502230D01*
X116990753Y-102503027D01*
X116989763Y-102503058D01*
X116981210Y-102503327D01*
X116963844Y-102508372D01*
X116961758Y-102508978D01*
X116942406Y-102512986D01*
X116930168Y-102514532D01*
X116930166Y-102514533D01*
X116922303Y-102515526D01*
X116881186Y-102531806D01*
X116869985Y-102535641D01*
X116827506Y-102547982D01*
X116820687Y-102552015D01*
X116820682Y-102552017D01*
X116810071Y-102558293D01*
X116792321Y-102566990D01*
X116773483Y-102574448D01*
X116767067Y-102579109D01*
X116767066Y-102579110D01*
X116737725Y-102600428D01*
X116727801Y-102606947D01*
X116696560Y-102625422D01*
X116696555Y-102625426D01*
X116689737Y-102629458D01*
X116675413Y-102643782D01*
X116660381Y-102656621D01*
X116643993Y-102668528D01*
X116619382Y-102698278D01*
X116615812Y-102702593D01*
X116607822Y-102711373D01*
X114315600Y-105003595D01*
X114253288Y-105037621D01*
X114226505Y-105040500D01*
X112607394Y-105040500D01*
X112539273Y-105020498D01*
X112504181Y-104986771D01*
X112397357Y-104834211D01*
X112397355Y-104834208D01*
X112394198Y-104829700D01*
X112232300Y-104667802D01*
X112227792Y-104664645D01*
X112227789Y-104664643D01*
X112137001Y-104601073D01*
X112044749Y-104536477D01*
X112039767Y-104534154D01*
X112039762Y-104534151D01*
X112004951Y-104517919D01*
X111951666Y-104471002D01*
X111932205Y-104402725D01*
X111952747Y-104334765D01*
X112004951Y-104289529D01*
X112039511Y-104273414D01*
X112049007Y-104267931D01*
X112227467Y-104142972D01*
X112235875Y-104135916D01*
X112389916Y-103981875D01*
X112396972Y-103973467D01*
X112521931Y-103795007D01*
X112527414Y-103785511D01*
X112619490Y-103588053D01*
X112623236Y-103577761D01*
X112669394Y-103405497D01*
X112669058Y-103391401D01*
X112661116Y-103388000D01*
X110860000Y-103388000D01*
X110791879Y-103367998D01*
X110745386Y-103314342D01*
X110734000Y-103262000D01*
X110734000Y-103006000D01*
X110754002Y-102937879D01*
X110807658Y-102891386D01*
X110860000Y-102880000D01*
X112655967Y-102880000D01*
X112669498Y-102876027D01*
X112670727Y-102867478D01*
X112623236Y-102690239D01*
X112619490Y-102679947D01*
X112527414Y-102482489D01*
X112521931Y-102472993D01*
X112396972Y-102294533D01*
X112389916Y-102286125D01*
X112235875Y-102132084D01*
X112227467Y-102125028D01*
X112049007Y-102000069D01*
X112039511Y-101994586D01*
X112004951Y-101978471D01*
X111951666Y-101931554D01*
X111932205Y-101863277D01*
X111952747Y-101795317D01*
X112004951Y-101750081D01*
X112039762Y-101733849D01*
X112039767Y-101733846D01*
X112044749Y-101731523D01*
X112182329Y-101635188D01*
X112227789Y-101603357D01*
X112227792Y-101603355D01*
X112232300Y-101600198D01*
X112394198Y-101438300D01*
X112422340Y-101398110D01*
X112477068Y-101319949D01*
X112525523Y-101250749D01*
X112527846Y-101245767D01*
X112527849Y-101245762D01*
X112619961Y-101048225D01*
X112619961Y-101048224D01*
X112622284Y-101043243D01*
X112654522Y-100922932D01*
X112680119Y-100827402D01*
X112680119Y-100827400D01*
X112681543Y-100822087D01*
X112701498Y-100594000D01*
X112681543Y-100365913D01*
X112642754Y-100221151D01*
X112623707Y-100150067D01*
X112623706Y-100150065D01*
X112622284Y-100144757D01*
X112618505Y-100136652D01*
X112527849Y-99942238D01*
X112527846Y-99942233D01*
X112525523Y-99937251D01*
X112394198Y-99749700D01*
X112232300Y-99587802D01*
X112227792Y-99584645D01*
X112227789Y-99584643D01*
X112118658Y-99508229D01*
X112044749Y-99456477D01*
X112039767Y-99454154D01*
X112039762Y-99454151D01*
X112005543Y-99438195D01*
X111952258Y-99391278D01*
X111932797Y-99323001D01*
X111953339Y-99255041D01*
X112005543Y-99209805D01*
X112039762Y-99193849D01*
X112039767Y-99193846D01*
X112044749Y-99191523D01*
X112182329Y-99095188D01*
X112227789Y-99063357D01*
X112227792Y-99063355D01*
X112232300Y-99060198D01*
X112339651Y-98952847D01*
X112401963Y-98918821D01*
X112472778Y-98923886D01*
G37*
G04 #@! TD.AperFunction*
G04 #@! TA.AperFunction,Conductor*
G36*
X135959320Y-88171402D02*
G01*
X136005813Y-88225058D01*
X136015917Y-88295332D01*
X136012906Y-88310011D01*
X135991606Y-88389503D01*
X135991942Y-88403599D01*
X135999884Y-88407000D01*
X137801000Y-88407000D01*
X137869121Y-88427002D01*
X137915614Y-88480658D01*
X137927000Y-88533000D01*
X137927000Y-88789000D01*
X137906998Y-88857121D01*
X137853342Y-88903614D01*
X137801000Y-88915000D01*
X136005033Y-88915000D01*
X135991502Y-88918973D01*
X135990273Y-88927522D01*
X136037764Y-89104761D01*
X136041512Y-89115058D01*
X136080072Y-89197751D01*
X136090733Y-89267942D01*
X136061753Y-89332755D01*
X136002333Y-89371611D01*
X135965877Y-89377000D01*
X125229167Y-89377000D01*
X125217984Y-89376473D01*
X125210491Y-89374798D01*
X125202565Y-89375047D01*
X125202564Y-89375047D01*
X125142414Y-89376938D01*
X125138455Y-89377000D01*
X125110544Y-89377000D01*
X125106610Y-89377497D01*
X125106609Y-89377497D01*
X125106544Y-89377505D01*
X125094707Y-89378438D01*
X125062890Y-89379438D01*
X125058429Y-89379578D01*
X125050510Y-89379827D01*
X125032854Y-89384956D01*
X125031058Y-89385478D01*
X125011706Y-89389486D01*
X125004635Y-89390380D01*
X124991603Y-89392026D01*
X124984234Y-89394943D01*
X124984232Y-89394944D01*
X124950497Y-89408300D01*
X124939269Y-89412145D01*
X124896807Y-89424482D01*
X124889985Y-89428516D01*
X124889979Y-89428519D01*
X124879368Y-89434794D01*
X124861618Y-89443490D01*
X124850156Y-89448028D01*
X124850151Y-89448031D01*
X124842783Y-89450948D01*
X124828127Y-89461596D01*
X124807025Y-89476927D01*
X124797107Y-89483443D01*
X124779402Y-89493914D01*
X124759037Y-89505958D01*
X124744713Y-89520282D01*
X124729681Y-89533121D01*
X124713293Y-89545028D01*
X124685112Y-89579093D01*
X124677133Y-89587862D01*
X123962839Y-90302156D01*
X123900530Y-90336179D01*
X123829715Y-90331115D01*
X123784652Y-90302154D01*
X123677300Y-90194802D01*
X123672792Y-90191645D01*
X123672789Y-90191643D01*
X123583482Y-90129110D01*
X123489749Y-90063477D01*
X123484767Y-90061154D01*
X123484762Y-90061151D01*
X123450543Y-90045195D01*
X123397258Y-89998278D01*
X123377797Y-89930001D01*
X123398339Y-89862041D01*
X123450543Y-89816805D01*
X123484762Y-89800849D01*
X123484767Y-89800846D01*
X123489749Y-89798523D01*
X123605716Y-89717322D01*
X123672789Y-89670357D01*
X123672792Y-89670355D01*
X123677300Y-89667198D01*
X123839198Y-89505300D01*
X123844369Y-89497916D01*
X123892961Y-89428519D01*
X123950994Y-89345639D01*
X124006450Y-89301312D01*
X124044056Y-89293293D01*
X124044035Y-89293163D01*
X124046490Y-89292774D01*
X124050247Y-89291973D01*
X124051870Y-89291922D01*
X124059789Y-89291673D01*
X124079243Y-89286021D01*
X124098600Y-89282013D01*
X124110830Y-89280468D01*
X124110831Y-89280468D01*
X124118697Y-89279474D01*
X124126068Y-89276555D01*
X124126070Y-89276555D01*
X124159812Y-89263196D01*
X124171042Y-89259351D01*
X124205883Y-89249229D01*
X124205884Y-89249229D01*
X124213493Y-89247018D01*
X124220312Y-89242985D01*
X124220317Y-89242983D01*
X124230928Y-89236707D01*
X124248676Y-89228012D01*
X124267517Y-89220552D01*
X124303287Y-89194564D01*
X124313207Y-89188048D01*
X124344435Y-89169580D01*
X124344438Y-89169578D01*
X124351262Y-89165542D01*
X124365583Y-89151221D01*
X124380617Y-89138380D01*
X124390594Y-89131131D01*
X124397007Y-89126472D01*
X124425198Y-89092395D01*
X124433188Y-89083616D01*
X125328499Y-88188305D01*
X125390811Y-88154279D01*
X125417594Y-88151400D01*
X135891199Y-88151400D01*
X135959320Y-88171402D01*
G37*
G04 #@! TD.AperFunction*
M02*
