G04 #@! TF.GenerationSoftware,KiCad,Pcbnew,(6.0.5)*
G04 #@! TF.CreationDate,2024-04-06T13:45:57+02:00*
G04 #@! TF.ProjectId,1541-RAMBoard2-FirstBank,31353431-2d52-4414-9d42-6f617264322d,rev?*
G04 #@! TF.SameCoordinates,Original*
G04 #@! TF.FileFunction,Legend,Bot*
G04 #@! TF.FilePolarity,Positive*
%FSLAX46Y46*%
G04 Gerber Fmt 4.6, Leading zero omitted, Abs format (unit mm)*
G04 Created by KiCad (PCBNEW (6.0.5)) date 2024-04-06 13:45:57*
%MOMM*%
%LPD*%
G01*
G04 APERTURE LIST*
%ADD10C,0.150000*%
%ADD11C,2.500000*%
%ADD12C,1.600000*%
%ADD13O,1.600000X1.600000*%
%ADD14O,1.700000X1.700000*%
%ADD15R,1.700000X1.700000*%
%ADD16O,2.400000X1.600000*%
%ADD17R,2.400000X1.600000*%
G04 APERTURE END LIST*
D10*
X125427666Y-88040166D02*
X125094333Y-87806833D01*
X125427666Y-87640166D02*
X124727666Y-87640166D01*
X124727666Y-87906833D01*
X124761000Y-87973500D01*
X124794333Y-88006833D01*
X124861000Y-88040166D01*
X124961000Y-88040166D01*
X125027666Y-88006833D01*
X125061000Y-87973500D01*
X125094333Y-87906833D01*
X125094333Y-87640166D01*
X125227666Y-88306833D02*
X125227666Y-88640166D01*
X125427666Y-88240166D02*
X124727666Y-88473500D01*
X125427666Y-88706833D01*
X125427666Y-88940166D02*
X124727666Y-88940166D01*
X125227666Y-89173500D01*
X124727666Y-89406833D01*
X125427666Y-89406833D01*
X125494333Y-89573500D02*
X125494333Y-90106833D01*
X125227666Y-90240166D02*
X125227666Y-90573500D01*
X125427666Y-90173500D02*
X124727666Y-90406833D01*
X125427666Y-90640166D01*
X125427666Y-91240166D02*
X125427666Y-90840166D01*
X125427666Y-91040166D02*
X124727666Y-91040166D01*
X124827666Y-90973500D01*
X124894333Y-90906833D01*
X124927666Y-90840166D01*
X124727666Y-91473500D02*
X124727666Y-91906833D01*
X124994333Y-91673500D01*
X124994333Y-91773500D01*
X125027666Y-91840166D01*
X125061000Y-91873500D01*
X125127666Y-91906833D01*
X125294333Y-91906833D01*
X125361000Y-91873500D01*
X125394333Y-91840166D01*
X125427666Y-91773500D01*
X125427666Y-91573500D01*
X125394333Y-91506833D01*
X125361000Y-91473500D01*
X124694333Y-92706833D02*
X125594333Y-92106833D01*
X125427666Y-93306833D02*
X125427666Y-92906833D01*
X125427666Y-93106833D02*
X124727666Y-93106833D01*
X124827666Y-93040166D01*
X124894333Y-92973500D01*
X124927666Y-92906833D01*
X124961000Y-93906833D02*
X125427666Y-93906833D01*
X124694333Y-93740166D02*
X125194333Y-93573500D01*
X125194333Y-94006833D01*
X124961000Y-94806833D02*
X125561000Y-94806833D01*
X125627666Y-94773500D01*
X125661000Y-94706833D01*
X125661000Y-94673500D01*
X124727666Y-94806833D02*
X124761000Y-94773500D01*
X124794333Y-94806833D01*
X124761000Y-94840166D01*
X124727666Y-94806833D01*
X124794333Y-94806833D01*
X124961000Y-95440166D02*
X125427666Y-95440166D01*
X124961000Y-95140166D02*
X125327666Y-95140166D01*
X125394333Y-95173500D01*
X125427666Y-95240166D01*
X125427666Y-95340166D01*
X125394333Y-95406833D01*
X125361000Y-95440166D01*
X125427666Y-95773500D02*
X124961000Y-95773500D01*
X125027666Y-95773500D02*
X124994333Y-95806833D01*
X124961000Y-95873500D01*
X124961000Y-95973500D01*
X124994333Y-96040166D01*
X125061000Y-96073500D01*
X125427666Y-96073500D01*
X125061000Y-96073500D02*
X124994333Y-96106833D01*
X124961000Y-96173500D01*
X124961000Y-96273500D01*
X124994333Y-96340166D01*
X125061000Y-96373500D01*
X125427666Y-96373500D01*
X124961000Y-96706833D02*
X125661000Y-96706833D01*
X124994333Y-96706833D02*
X124961000Y-96773500D01*
X124961000Y-96906833D01*
X124994333Y-96973500D01*
X125027666Y-97006833D01*
X125094333Y-97040166D01*
X125294333Y-97040166D01*
X125361000Y-97006833D01*
X125394333Y-96973500D01*
X125427666Y-96906833D01*
X125427666Y-96773500D01*
X125394333Y-96706833D01*
X125394333Y-97606833D02*
X125427666Y-97540166D01*
X125427666Y-97406833D01*
X125394333Y-97340166D01*
X125327666Y-97306833D01*
X125061000Y-97306833D01*
X124994333Y-97340166D01*
X124961000Y-97406833D01*
X124961000Y-97540166D01*
X124994333Y-97606833D01*
X125061000Y-97640166D01*
X125127666Y-97640166D01*
X125194333Y-97306833D01*
X125427666Y-97940166D02*
X124961000Y-97940166D01*
X125094333Y-97940166D02*
X125027666Y-97973500D01*
X124994333Y-98006833D01*
X124961000Y-98073500D01*
X124961000Y-98140166D01*
X125394333Y-98340166D02*
X125427666Y-98406833D01*
X125427666Y-98540166D01*
X125394333Y-98606833D01*
X125327666Y-98640166D01*
X125294333Y-98640166D01*
X125227666Y-98606833D01*
X125194333Y-98540166D01*
X125194333Y-98440166D01*
X125161000Y-98373500D01*
X125094333Y-98340166D01*
X125061000Y-98340166D01*
X124994333Y-98373500D01*
X124961000Y-98440166D01*
X124961000Y-98540166D01*
X124994333Y-98606833D01*
X126521333Y-87940166D02*
X126554666Y-87873500D01*
X126554666Y-87740166D01*
X126521333Y-87673500D01*
X126488000Y-87640166D01*
X126421333Y-87606833D01*
X126221333Y-87606833D01*
X126154666Y-87640166D01*
X126121333Y-87673500D01*
X126088000Y-87740166D01*
X126088000Y-87873500D01*
X126121333Y-87940166D01*
X126554666Y-88340166D02*
X126521333Y-88273500D01*
X126454666Y-88240166D01*
X125854666Y-88240166D01*
X126554666Y-88706833D02*
X126521333Y-88640166D01*
X126488000Y-88606833D01*
X126421333Y-88573500D01*
X126221333Y-88573500D01*
X126154666Y-88606833D01*
X126121333Y-88640166D01*
X126088000Y-88706833D01*
X126088000Y-88806833D01*
X126121333Y-88873500D01*
X126154666Y-88906833D01*
X126221333Y-88940166D01*
X126421333Y-88940166D01*
X126488000Y-88906833D01*
X126521333Y-88873500D01*
X126554666Y-88806833D01*
X126554666Y-88706833D01*
X126521333Y-89206833D02*
X126554666Y-89273500D01*
X126554666Y-89406833D01*
X126521333Y-89473500D01*
X126454666Y-89506833D01*
X126421333Y-89506833D01*
X126354666Y-89473500D01*
X126321333Y-89406833D01*
X126321333Y-89306833D01*
X126288000Y-89240166D01*
X126221333Y-89206833D01*
X126188000Y-89206833D01*
X126121333Y-89240166D01*
X126088000Y-89306833D01*
X126088000Y-89406833D01*
X126121333Y-89473500D01*
X126521333Y-90073500D02*
X126554666Y-90006833D01*
X126554666Y-89873500D01*
X126521333Y-89806833D01*
X126454666Y-89773500D01*
X126188000Y-89773500D01*
X126121333Y-89806833D01*
X126088000Y-89873500D01*
X126088000Y-90006833D01*
X126121333Y-90073500D01*
X126188000Y-90106833D01*
X126254666Y-90106833D01*
X126321333Y-89773500D01*
X126554666Y-90706833D02*
X125854666Y-90706833D01*
X126521333Y-90706833D02*
X126554666Y-90640166D01*
X126554666Y-90506833D01*
X126521333Y-90440166D01*
X126488000Y-90406833D01*
X126421333Y-90373500D01*
X126221333Y-90373500D01*
X126154666Y-90406833D01*
X126121333Y-90440166D01*
X126088000Y-90506833D01*
X126088000Y-90640166D01*
X126121333Y-90706833D01*
X126488000Y-91040166D02*
X126521333Y-91073500D01*
X126554666Y-91040166D01*
X126521333Y-91006833D01*
X126488000Y-91040166D01*
X126554666Y-91040166D01*
X126121333Y-91040166D02*
X126154666Y-91073500D01*
X126188000Y-91040166D01*
X126154666Y-91006833D01*
X126121333Y-91040166D01*
X126188000Y-91040166D01*
X125888000Y-92273500D02*
X125854666Y-92206833D01*
X125854666Y-92106833D01*
X125888000Y-92006833D01*
X125954666Y-91940166D01*
X126021333Y-91906833D01*
X126154666Y-91873500D01*
X126254666Y-91873500D01*
X126388000Y-91906833D01*
X126454666Y-91940166D01*
X126521333Y-92006833D01*
X126554666Y-92106833D01*
X126554666Y-92173500D01*
X126521333Y-92273500D01*
X126488000Y-92306833D01*
X126254666Y-92306833D01*
X126254666Y-92173500D01*
X126554666Y-92606833D02*
X125854666Y-92606833D01*
X126554666Y-93006833D01*
X125854666Y-93006833D01*
X126554666Y-93340166D02*
X125854666Y-93340166D01*
X125854666Y-93506833D01*
X125888000Y-93606833D01*
X125954666Y-93673500D01*
X126021333Y-93706833D01*
X126154666Y-93740166D01*
X126254666Y-93740166D01*
X126388000Y-93706833D01*
X126454666Y-93673500D01*
X126521333Y-93606833D01*
X126554666Y-93506833D01*
X126554666Y-93340166D01*
X126088000Y-94473500D02*
X126088000Y-94740166D01*
X126554666Y-94573500D02*
X125954666Y-94573500D01*
X125888000Y-94606833D01*
X125854666Y-94673500D01*
X125854666Y-94740166D01*
X126554666Y-95073500D02*
X126521333Y-95006833D01*
X126488000Y-94973500D01*
X126421333Y-94940166D01*
X126221333Y-94940166D01*
X126154666Y-94973500D01*
X126121333Y-95006833D01*
X126088000Y-95073500D01*
X126088000Y-95173500D01*
X126121333Y-95240166D01*
X126154666Y-95273500D01*
X126221333Y-95306833D01*
X126421333Y-95306833D01*
X126488000Y-95273500D01*
X126521333Y-95240166D01*
X126554666Y-95173500D01*
X126554666Y-95073500D01*
X126554666Y-95606833D02*
X126088000Y-95606833D01*
X126221333Y-95606833D02*
X126154666Y-95640166D01*
X126121333Y-95673500D01*
X126088000Y-95740166D01*
X126088000Y-95806833D01*
X126154666Y-96673500D02*
X126121333Y-96606833D01*
X126088000Y-96573500D01*
X126021333Y-96540166D01*
X125988000Y-96540166D01*
X125921333Y-96573500D01*
X125888000Y-96606833D01*
X125854666Y-96673500D01*
X125854666Y-96806833D01*
X125888000Y-96873500D01*
X125921333Y-96906833D01*
X125988000Y-96940166D01*
X126021333Y-96940166D01*
X126088000Y-96906833D01*
X126121333Y-96873500D01*
X126154666Y-96806833D01*
X126154666Y-96673500D01*
X126188000Y-96606833D01*
X126221333Y-96573500D01*
X126288000Y-96540166D01*
X126421333Y-96540166D01*
X126488000Y-96573500D01*
X126521333Y-96606833D01*
X126554666Y-96673500D01*
X126554666Y-96806833D01*
X126521333Y-96873500D01*
X126488000Y-96906833D01*
X126421333Y-96940166D01*
X126288000Y-96940166D01*
X126221333Y-96906833D01*
X126188000Y-96873500D01*
X126154666Y-96806833D01*
X126554666Y-97240166D02*
X125854666Y-97240166D01*
X126554666Y-97640166D02*
X126154666Y-97340166D01*
X125854666Y-97640166D02*
X126254666Y-97240166D01*
X127681666Y-87740166D02*
X127648333Y-87673500D01*
X127615000Y-87640166D01*
X127548333Y-87606833D01*
X127348333Y-87606833D01*
X127281666Y-87640166D01*
X127248333Y-87673500D01*
X127215000Y-87740166D01*
X127215000Y-87840166D01*
X127248333Y-87906833D01*
X127281666Y-87940166D01*
X127348333Y-87973500D01*
X127548333Y-87973500D01*
X127615000Y-87940166D01*
X127648333Y-87906833D01*
X127681666Y-87840166D01*
X127681666Y-87740166D01*
X127215000Y-88273500D02*
X127915000Y-88273500D01*
X127248333Y-88273500D02*
X127215000Y-88340166D01*
X127215000Y-88473500D01*
X127248333Y-88540166D01*
X127281666Y-88573500D01*
X127348333Y-88606833D01*
X127548333Y-88606833D01*
X127615000Y-88573500D01*
X127648333Y-88540166D01*
X127681666Y-88473500D01*
X127681666Y-88340166D01*
X127648333Y-88273500D01*
X127648333Y-89173500D02*
X127681666Y-89106833D01*
X127681666Y-88973500D01*
X127648333Y-88906833D01*
X127581666Y-88873500D01*
X127315000Y-88873500D01*
X127248333Y-88906833D01*
X127215000Y-88973500D01*
X127215000Y-89106833D01*
X127248333Y-89173500D01*
X127315000Y-89206833D01*
X127381666Y-89206833D01*
X127448333Y-88873500D01*
X127215000Y-89506833D02*
X127681666Y-89506833D01*
X127281666Y-89506833D02*
X127248333Y-89540166D01*
X127215000Y-89606833D01*
X127215000Y-89706833D01*
X127248333Y-89773500D01*
X127315000Y-89806833D01*
X127681666Y-89806833D01*
X127648333Y-90406833D02*
X127681666Y-90340166D01*
X127681666Y-90206833D01*
X127648333Y-90140166D01*
X127581666Y-90106833D01*
X127315000Y-90106833D01*
X127248333Y-90140166D01*
X127215000Y-90206833D01*
X127215000Y-90340166D01*
X127248333Y-90406833D01*
X127315000Y-90440166D01*
X127381666Y-90440166D01*
X127448333Y-90106833D01*
X127681666Y-91040166D02*
X126981666Y-91040166D01*
X127648333Y-91040166D02*
X127681666Y-90973500D01*
X127681666Y-90840166D01*
X127648333Y-90773500D01*
X127615000Y-90740166D01*
X127548333Y-90706833D01*
X127348333Y-90706833D01*
X127281666Y-90740166D01*
X127248333Y-90773500D01*
X127215000Y-90840166D01*
X127215000Y-90973500D01*
X127248333Y-91040166D01*
X127615000Y-91373500D02*
X127648333Y-91406833D01*
X127681666Y-91373500D01*
X127648333Y-91340166D01*
X127615000Y-91373500D01*
X127681666Y-91373500D01*
X127248333Y-91373500D02*
X127281666Y-91406833D01*
X127315000Y-91373500D01*
X127281666Y-91340166D01*
X127248333Y-91373500D01*
X127315000Y-91373500D01*
X127648333Y-92540166D02*
X127681666Y-92473500D01*
X127681666Y-92340166D01*
X127648333Y-92273500D01*
X127615000Y-92240166D01*
X127548333Y-92206833D01*
X127348333Y-92206833D01*
X127281666Y-92240166D01*
X127248333Y-92273500D01*
X127215000Y-92340166D01*
X127215000Y-92473500D01*
X127248333Y-92540166D01*
X127681666Y-92940166D02*
X127648333Y-92873500D01*
X127615000Y-92840166D01*
X127548333Y-92806833D01*
X127348333Y-92806833D01*
X127281666Y-92840166D01*
X127248333Y-92873500D01*
X127215000Y-92940166D01*
X127215000Y-93040166D01*
X127248333Y-93106833D01*
X127281666Y-93140166D01*
X127348333Y-93173500D01*
X127548333Y-93173500D01*
X127615000Y-93140166D01*
X127648333Y-93106833D01*
X127681666Y-93040166D01*
X127681666Y-92940166D01*
X127215000Y-93473500D02*
X127681666Y-93473500D01*
X127281666Y-93473500D02*
X127248333Y-93506833D01*
X127215000Y-93573500D01*
X127215000Y-93673500D01*
X127248333Y-93740166D01*
X127315000Y-93773500D01*
X127681666Y-93773500D01*
X127215000Y-94106833D02*
X127681666Y-94106833D01*
X127281666Y-94106833D02*
X127248333Y-94140166D01*
X127215000Y-94206833D01*
X127215000Y-94306833D01*
X127248333Y-94373500D01*
X127315000Y-94406833D01*
X127681666Y-94406833D01*
X127648333Y-95006833D02*
X127681666Y-94940166D01*
X127681666Y-94806833D01*
X127648333Y-94740166D01*
X127581666Y-94706833D01*
X127315000Y-94706833D01*
X127248333Y-94740166D01*
X127215000Y-94806833D01*
X127215000Y-94940166D01*
X127248333Y-95006833D01*
X127315000Y-95040166D01*
X127381666Y-95040166D01*
X127448333Y-94706833D01*
X127648333Y-95640166D02*
X127681666Y-95573500D01*
X127681666Y-95440166D01*
X127648333Y-95373500D01*
X127615000Y-95340166D01*
X127548333Y-95306833D01*
X127348333Y-95306833D01*
X127281666Y-95340166D01*
X127248333Y-95373500D01*
X127215000Y-95440166D01*
X127215000Y-95573500D01*
X127248333Y-95640166D01*
X127215000Y-95840166D02*
X127215000Y-96106833D01*
X126981666Y-95940166D02*
X127581666Y-95940166D01*
X127648333Y-95973500D01*
X127681666Y-96040166D01*
X127681666Y-96106833D01*
X127215000Y-96773499D02*
X127215000Y-97040166D01*
X126981666Y-96873499D02*
X127581666Y-96873499D01*
X127648333Y-96906833D01*
X127681666Y-96973499D01*
X127681666Y-97040166D01*
X127681666Y-97373499D02*
X127648333Y-97306833D01*
X127615000Y-97273499D01*
X127548333Y-97240166D01*
X127348333Y-97240166D01*
X127281666Y-97273499D01*
X127248333Y-97306833D01*
X127215000Y-97373499D01*
X127215000Y-97473499D01*
X127248333Y-97540166D01*
X127281666Y-97573499D01*
X127348333Y-97606833D01*
X127548333Y-97606833D01*
X127615000Y-97573499D01*
X127648333Y-97540166D01*
X127681666Y-97473499D01*
X127681666Y-97373499D01*
X126981666Y-98340166D02*
X127681666Y-98573500D01*
X126981666Y-98806833D01*
X127681666Y-99040166D02*
X126981666Y-99040166D01*
X127481666Y-99340166D02*
X127481666Y-99673500D01*
X127681666Y-99273500D02*
X126981666Y-99506833D01*
X127681666Y-99740166D01*
X127215000Y-99940166D02*
X127215000Y-100440166D01*
X126915000Y-100140166D02*
X127815000Y-99940166D01*
X127515000Y-100373500D02*
X127515000Y-99873500D01*
X127815000Y-100173500D02*
X126915000Y-100373500D01*
X127048333Y-100640166D02*
X127015000Y-100673500D01*
X126981666Y-100740166D01*
X126981666Y-100906833D01*
X127015000Y-100973500D01*
X127048333Y-101006833D01*
X127115000Y-101040166D01*
X127181666Y-101040166D01*
X127281666Y-101006833D01*
X127681666Y-100606833D01*
X127681666Y-101040166D01*
X127681666Y-101873500D02*
X126981666Y-101873500D01*
X126981666Y-102140166D01*
X127015000Y-102206833D01*
X127048333Y-102240166D01*
X127115000Y-102273500D01*
X127215000Y-102273500D01*
X127281666Y-102240166D01*
X127315000Y-102206833D01*
X127348333Y-102140166D01*
X127348333Y-101873500D01*
X127481666Y-102540166D02*
X127481666Y-102873500D01*
X127681666Y-102473500D02*
X126981666Y-102706833D01*
X127681666Y-102940166D01*
X127215000Y-103606833D02*
X127215000Y-103873500D01*
X126981666Y-103706833D02*
X127581666Y-103706833D01*
X127648333Y-103740166D01*
X127681666Y-103806833D01*
X127681666Y-103873500D01*
X127681666Y-104206833D02*
X127648333Y-104140166D01*
X127615000Y-104106833D01*
X127548333Y-104073500D01*
X127348333Y-104073500D01*
X127281666Y-104106833D01*
X127248333Y-104140166D01*
X127215000Y-104206833D01*
X127215000Y-104306833D01*
X127248333Y-104373500D01*
X127281666Y-104406833D01*
X127348333Y-104440166D01*
X127548333Y-104440166D01*
X127615000Y-104406833D01*
X127648333Y-104373500D01*
X127681666Y-104306833D01*
X127681666Y-104206833D01*
X127681666Y-105273500D02*
X126981666Y-105273500D01*
X127681666Y-105573500D02*
X127315000Y-105573500D01*
X127248333Y-105540166D01*
X127215000Y-105473500D01*
X127215000Y-105373500D01*
X127248333Y-105306833D01*
X127281666Y-105273500D01*
X127681666Y-106206833D02*
X127315000Y-106206833D01*
X127248333Y-106173500D01*
X127215000Y-106106833D01*
X127215000Y-105973500D01*
X127248333Y-105906833D01*
X127648333Y-106206833D02*
X127681666Y-106140166D01*
X127681666Y-105973500D01*
X127648333Y-105906833D01*
X127581666Y-105873500D01*
X127515000Y-105873500D01*
X127448333Y-105906833D01*
X127415000Y-105973500D01*
X127415000Y-106140166D01*
X127381666Y-106206833D01*
X127215000Y-106473500D02*
X127681666Y-106640166D01*
X127215000Y-106806833D01*
X127648333Y-107340166D02*
X127681666Y-107273500D01*
X127681666Y-107140166D01*
X127648333Y-107073500D01*
X127581666Y-107040166D01*
X127315000Y-107040166D01*
X127248333Y-107073500D01*
X127215000Y-107140166D01*
X127215000Y-107273500D01*
X127248333Y-107340166D01*
X127315000Y-107373500D01*
X127381666Y-107373500D01*
X127448333Y-107040166D01*
X127281666Y-108306833D02*
X127248333Y-108240166D01*
X127215000Y-108206833D01*
X127148333Y-108173500D01*
X127115000Y-108173500D01*
X127048333Y-108206833D01*
X127015000Y-108240166D01*
X126981666Y-108306833D01*
X126981666Y-108440166D01*
X127015000Y-108506833D01*
X127048333Y-108540166D01*
X127115000Y-108573500D01*
X127148333Y-108573500D01*
X127215000Y-108540166D01*
X127248333Y-108506833D01*
X127281666Y-108440166D01*
X127281666Y-108306833D01*
X127315000Y-108240166D01*
X127348333Y-108206833D01*
X127415000Y-108173500D01*
X127548333Y-108173500D01*
X127615000Y-108206833D01*
X127648333Y-108240166D01*
X127681666Y-108306833D01*
X127681666Y-108440166D01*
X127648333Y-108506833D01*
X127615000Y-108540166D01*
X127548333Y-108573500D01*
X127415000Y-108573500D01*
X127348333Y-108540166D01*
X127315000Y-108506833D01*
X127281666Y-108440166D01*
X127681666Y-108873500D02*
X126981666Y-108873500D01*
X127681666Y-109273500D02*
X127281666Y-108973500D01*
X126981666Y-109273500D02*
X127381666Y-108873500D01*
X127681666Y-110106833D02*
X126981666Y-110106833D01*
X127248333Y-110106833D02*
X127215000Y-110173500D01*
X127215000Y-110306833D01*
X127248333Y-110373500D01*
X127281666Y-110406833D01*
X127348333Y-110440166D01*
X127548333Y-110440166D01*
X127615000Y-110406833D01*
X127648333Y-110373500D01*
X127681666Y-110306833D01*
X127681666Y-110173500D01*
X127648333Y-110106833D01*
X127681666Y-111040166D02*
X127315000Y-111040166D01*
X127248333Y-111006833D01*
X127215000Y-110940166D01*
X127215000Y-110806833D01*
X127248333Y-110740166D01*
X127648333Y-111040166D02*
X127681666Y-110973500D01*
X127681666Y-110806833D01*
X127648333Y-110740166D01*
X127581666Y-110706833D01*
X127515000Y-110706833D01*
X127448333Y-110740166D01*
X127415000Y-110806833D01*
X127415000Y-110973500D01*
X127381666Y-111040166D01*
X127215000Y-111373500D02*
X127681666Y-111373500D01*
X127281666Y-111373500D02*
X127248333Y-111406833D01*
X127215000Y-111473500D01*
X127215000Y-111573500D01*
X127248333Y-111640166D01*
X127315000Y-111673500D01*
X127681666Y-111673500D01*
X127681666Y-112006833D02*
X126981666Y-112006833D01*
X127415000Y-112073500D02*
X127681666Y-112273500D01*
X127215000Y-112273500D02*
X127481666Y-112006833D01*
X127648333Y-112540166D02*
X127681666Y-112606833D01*
X127681666Y-112740166D01*
X127648333Y-112806833D01*
X127581666Y-112840166D01*
X127548333Y-112840166D01*
X127481666Y-112806833D01*
X127448333Y-112740166D01*
X127448333Y-112640166D01*
X127415000Y-112573500D01*
X127348333Y-112540166D01*
X127315000Y-112540166D01*
X127248333Y-112573500D01*
X127215000Y-112640166D01*
X127215000Y-112740166D01*
X127248333Y-112806833D01*
X147557666Y-88294166D02*
X147224333Y-88060833D01*
X147557666Y-87894166D02*
X146857666Y-87894166D01*
X146857666Y-88160833D01*
X146891000Y-88227500D01*
X146924333Y-88260833D01*
X146991000Y-88294166D01*
X147091000Y-88294166D01*
X147157666Y-88260833D01*
X147191000Y-88227500D01*
X147224333Y-88160833D01*
X147224333Y-87894166D01*
X146857666Y-88727500D02*
X146857666Y-88860833D01*
X146891000Y-88927500D01*
X146957666Y-88994166D01*
X147091000Y-89027500D01*
X147324333Y-89027500D01*
X147457666Y-88994166D01*
X147524333Y-88927500D01*
X147557666Y-88860833D01*
X147557666Y-88727500D01*
X147524333Y-88660833D01*
X147457666Y-88594166D01*
X147324333Y-88560833D01*
X147091000Y-88560833D01*
X146957666Y-88594166D01*
X146891000Y-88660833D01*
X146857666Y-88727500D01*
X147557666Y-89327500D02*
X146857666Y-89327500D01*
X147357666Y-89560833D01*
X146857666Y-89794166D01*
X147557666Y-89794166D01*
X147624333Y-89960833D02*
X147624333Y-90494166D01*
X147357666Y-90627500D02*
X147357666Y-90960833D01*
X147557666Y-90560833D02*
X146857666Y-90794166D01*
X147557666Y-91027500D01*
X147557666Y-91627500D02*
X147557666Y-91227500D01*
X147557666Y-91427500D02*
X146857666Y-91427500D01*
X146957666Y-91360833D01*
X147024333Y-91294166D01*
X147057666Y-91227500D01*
X147091000Y-92227500D02*
X147557666Y-92227500D01*
X146824333Y-92060833D02*
X147324333Y-91894166D01*
X147324333Y-92327500D01*
X148651333Y-88194166D02*
X148684666Y-88127500D01*
X148684666Y-87994166D01*
X148651333Y-87927500D01*
X148618000Y-87894166D01*
X148551333Y-87860833D01*
X148351333Y-87860833D01*
X148284666Y-87894166D01*
X148251333Y-87927500D01*
X148218000Y-87994166D01*
X148218000Y-88127500D01*
X148251333Y-88194166D01*
X148684666Y-88594166D02*
X148651333Y-88527500D01*
X148584666Y-88494166D01*
X147984666Y-88494166D01*
X148684666Y-88960833D02*
X148651333Y-88894166D01*
X148618000Y-88860833D01*
X148551333Y-88827500D01*
X148351333Y-88827500D01*
X148284666Y-88860833D01*
X148251333Y-88894166D01*
X148218000Y-88960833D01*
X148218000Y-89060833D01*
X148251333Y-89127500D01*
X148284666Y-89160833D01*
X148351333Y-89194166D01*
X148551333Y-89194166D01*
X148618000Y-89160833D01*
X148651333Y-89127500D01*
X148684666Y-89060833D01*
X148684666Y-88960833D01*
X148651333Y-89460833D02*
X148684666Y-89527500D01*
X148684666Y-89660833D01*
X148651333Y-89727500D01*
X148584666Y-89760833D01*
X148551333Y-89760833D01*
X148484666Y-89727500D01*
X148451333Y-89660833D01*
X148451333Y-89560833D01*
X148418000Y-89494166D01*
X148351333Y-89460833D01*
X148318000Y-89460833D01*
X148251333Y-89494166D01*
X148218000Y-89560833D01*
X148218000Y-89660833D01*
X148251333Y-89727500D01*
X148651333Y-90327500D02*
X148684666Y-90260833D01*
X148684666Y-90127500D01*
X148651333Y-90060833D01*
X148584666Y-90027500D01*
X148318000Y-90027500D01*
X148251333Y-90060833D01*
X148218000Y-90127500D01*
X148218000Y-90260833D01*
X148251333Y-90327500D01*
X148318000Y-90360833D01*
X148384666Y-90360833D01*
X148451333Y-90027500D01*
X148684666Y-90960833D02*
X147984666Y-90960833D01*
X148651333Y-90960833D02*
X148684666Y-90894166D01*
X148684666Y-90760833D01*
X148651333Y-90694166D01*
X148618000Y-90660833D01*
X148551333Y-90627500D01*
X148351333Y-90627500D01*
X148284666Y-90660833D01*
X148251333Y-90694166D01*
X148218000Y-90760833D01*
X148218000Y-90894166D01*
X148251333Y-90960833D01*
X148618000Y-91294166D02*
X148651333Y-91327500D01*
X148684666Y-91294166D01*
X148651333Y-91260833D01*
X148618000Y-91294166D01*
X148684666Y-91294166D01*
X148251333Y-91294166D02*
X148284666Y-91327500D01*
X148318000Y-91294166D01*
X148284666Y-91260833D01*
X148251333Y-91294166D01*
X148318000Y-91294166D01*
X148651333Y-92127500D02*
X148684666Y-92227500D01*
X148684666Y-92394166D01*
X148651333Y-92460833D01*
X148618000Y-92494166D01*
X148551333Y-92527500D01*
X148484666Y-92527500D01*
X148418000Y-92494166D01*
X148384666Y-92460833D01*
X148351333Y-92394166D01*
X148318000Y-92260833D01*
X148284666Y-92194166D01*
X148251333Y-92160833D01*
X148184666Y-92127500D01*
X148118000Y-92127500D01*
X148051333Y-92160833D01*
X148018000Y-92194166D01*
X147984666Y-92260833D01*
X147984666Y-92427500D01*
X148018000Y-92527500D01*
X147884666Y-92327500D02*
X148784666Y-92327500D01*
X148484666Y-92794166D02*
X148484666Y-93127500D01*
X148684666Y-92727500D02*
X147984666Y-92960833D01*
X148684666Y-93194166D01*
X147984666Y-93560833D02*
X147984666Y-93627500D01*
X148018000Y-93694166D01*
X148051333Y-93727500D01*
X148118000Y-93760833D01*
X148251333Y-93794166D01*
X148418000Y-93794166D01*
X148551333Y-93760833D01*
X148618000Y-93727500D01*
X148651333Y-93694166D01*
X148684666Y-93627500D01*
X148684666Y-93560833D01*
X148651333Y-93494166D01*
X148618000Y-93460833D01*
X148551333Y-93427500D01*
X148418000Y-93394166D01*
X148251333Y-93394166D01*
X148118000Y-93427500D01*
X148051333Y-93460833D01*
X148018000Y-93494166D01*
X147984666Y-93560833D01*
X147984666Y-94227500D02*
X147984666Y-94294166D01*
X148018000Y-94360833D01*
X148051333Y-94394166D01*
X148118000Y-94427500D01*
X148251333Y-94460833D01*
X148418000Y-94460833D01*
X148551333Y-94427500D01*
X148618000Y-94394166D01*
X148651333Y-94360833D01*
X148684666Y-94294166D01*
X148684666Y-94227500D01*
X148651333Y-94160833D01*
X148618000Y-94127500D01*
X148551333Y-94094166D01*
X148418000Y-94060833D01*
X148251333Y-94060833D01*
X148118000Y-94094166D01*
X148051333Y-94127500D01*
X148018000Y-94160833D01*
X147984666Y-94227500D01*
X147984666Y-94894166D02*
X147984666Y-94960833D01*
X148018000Y-95027500D01*
X148051333Y-95060833D01*
X148118000Y-95094166D01*
X148251333Y-95127500D01*
X148418000Y-95127500D01*
X148551333Y-95094166D01*
X148618000Y-95060833D01*
X148651333Y-95027500D01*
X148684666Y-94960833D01*
X148684666Y-94894166D01*
X148651333Y-94827500D01*
X148618000Y-94794166D01*
X148551333Y-94760833D01*
X148418000Y-94727500D01*
X148251333Y-94727500D01*
X148118000Y-94760833D01*
X148051333Y-94794166D01*
X148018000Y-94827500D01*
X147984666Y-94894166D01*
X148418000Y-95427500D02*
X148418000Y-95960833D01*
X148651333Y-96260833D02*
X148684666Y-96360833D01*
X148684666Y-96527500D01*
X148651333Y-96594166D01*
X148618000Y-96627500D01*
X148551333Y-96660833D01*
X148484666Y-96660833D01*
X148418000Y-96627500D01*
X148384666Y-96594166D01*
X148351333Y-96527500D01*
X148318000Y-96394166D01*
X148284666Y-96327500D01*
X148251333Y-96294166D01*
X148184666Y-96260833D01*
X148118000Y-96260833D01*
X148051333Y-96294166D01*
X148018000Y-96327500D01*
X147984666Y-96394166D01*
X147984666Y-96560833D01*
X148018000Y-96660833D01*
X147884666Y-96460833D02*
X148784666Y-96460833D01*
X148318000Y-97194166D02*
X148318000Y-96960833D01*
X148684666Y-96960833D02*
X147984666Y-96960833D01*
X147984666Y-97294166D01*
X148318000Y-97794166D02*
X148318000Y-97560833D01*
X148684666Y-97560833D02*
X147984666Y-97560833D01*
X147984666Y-97894166D01*
X148318000Y-98394166D02*
X148318000Y-98160833D01*
X148684666Y-98160833D02*
X147984666Y-98160833D01*
X147984666Y-98494166D01*
X148318000Y-98994166D02*
X148318000Y-98760833D01*
X148684666Y-98760833D02*
X147984666Y-98760833D01*
X147984666Y-99094166D01*
X148684666Y-99894166D02*
X148218000Y-99894166D01*
X147984666Y-99894166D02*
X148018000Y-99860833D01*
X148051333Y-99894166D01*
X148018000Y-99927500D01*
X147984666Y-99894166D01*
X148051333Y-99894166D01*
X148651333Y-100194166D02*
X148684666Y-100260833D01*
X148684666Y-100394166D01*
X148651333Y-100460833D01*
X148584666Y-100494166D01*
X148551333Y-100494166D01*
X148484666Y-100460833D01*
X148451333Y-100394166D01*
X148451333Y-100294166D01*
X148418000Y-100227500D01*
X148351333Y-100194166D01*
X148318000Y-100194166D01*
X148251333Y-100227500D01*
X148218000Y-100294166D01*
X148218000Y-100394166D01*
X148251333Y-100460833D01*
X148684666Y-101727500D02*
X148351333Y-101494166D01*
X148684666Y-101327500D02*
X147984666Y-101327500D01*
X147984666Y-101594166D01*
X148018000Y-101660833D01*
X148051333Y-101694166D01*
X148118000Y-101727500D01*
X148218000Y-101727500D01*
X148284666Y-101694166D01*
X148318000Y-101660833D01*
X148351333Y-101594166D01*
X148351333Y-101327500D01*
X147984666Y-102160833D02*
X147984666Y-102294166D01*
X148018000Y-102360833D01*
X148084666Y-102427500D01*
X148218000Y-102460833D01*
X148451333Y-102460833D01*
X148584666Y-102427500D01*
X148651333Y-102360833D01*
X148684666Y-102294166D01*
X148684666Y-102160833D01*
X148651333Y-102094166D01*
X148584666Y-102027500D01*
X148451333Y-101994166D01*
X148218000Y-101994166D01*
X148084666Y-102027500D01*
X148018000Y-102094166D01*
X147984666Y-102160833D01*
X148684666Y-102760833D02*
X147984666Y-102760833D01*
X148484666Y-102994166D01*
X147984666Y-103227500D01*
X148684666Y-103227500D01*
X148651333Y-103594166D02*
X148684666Y-103594166D01*
X148751333Y-103560833D01*
X148784666Y-103527500D01*
X148684666Y-104527500D02*
X148651333Y-104460833D01*
X148618000Y-104427500D01*
X148551333Y-104394166D01*
X148351333Y-104394166D01*
X148284666Y-104427500D01*
X148251333Y-104460833D01*
X148218000Y-104527500D01*
X148218000Y-104627500D01*
X148251333Y-104694166D01*
X148284666Y-104727500D01*
X148351333Y-104760833D01*
X148551333Y-104760833D01*
X148618000Y-104727500D01*
X148651333Y-104694166D01*
X148684666Y-104627500D01*
X148684666Y-104527500D01*
X148684666Y-105060833D02*
X148218000Y-105060833D01*
X148284666Y-105060833D02*
X148251333Y-105094166D01*
X148218000Y-105160833D01*
X148218000Y-105260833D01*
X148251333Y-105327500D01*
X148318000Y-105360833D01*
X148684666Y-105360833D01*
X148318000Y-105360833D02*
X148251333Y-105394166D01*
X148218000Y-105460833D01*
X148218000Y-105560833D01*
X148251333Y-105627500D01*
X148318000Y-105660833D01*
X148684666Y-105660833D01*
X148684666Y-105994166D02*
X148218000Y-105994166D01*
X147984666Y-105994166D02*
X148018000Y-105960833D01*
X148051333Y-105994166D01*
X148018000Y-106027500D01*
X147984666Y-105994166D01*
X148051333Y-105994166D01*
X148218000Y-106227500D02*
X148218000Y-106494166D01*
X147984666Y-106327500D02*
X148584666Y-106327500D01*
X148651333Y-106360833D01*
X148684666Y-106427500D01*
X148684666Y-106494166D01*
X148684666Y-107660833D02*
X148351333Y-107427500D01*
X148684666Y-107260833D02*
X147984666Y-107260833D01*
X147984666Y-107527500D01*
X148018000Y-107594166D01*
X148051333Y-107627500D01*
X148118000Y-107660833D01*
X148218000Y-107660833D01*
X148284666Y-107627500D01*
X148318000Y-107594166D01*
X148351333Y-107527500D01*
X148351333Y-107260833D01*
X148684666Y-108327499D02*
X148684666Y-107927499D01*
X148684666Y-108127499D02*
X147984666Y-108127499D01*
X148084666Y-108060833D01*
X148151333Y-107994166D01*
X148184666Y-107927499D01*
X148218000Y-108927499D02*
X148684666Y-108927499D01*
X147951333Y-108760833D02*
X148451333Y-108594166D01*
X148451333Y-109027499D01*
X149811666Y-87994166D02*
X149778333Y-87927500D01*
X149745000Y-87894166D01*
X149678333Y-87860833D01*
X149478333Y-87860833D01*
X149411666Y-87894166D01*
X149378333Y-87927500D01*
X149345000Y-87994166D01*
X149345000Y-88094166D01*
X149378333Y-88160833D01*
X149411666Y-88194166D01*
X149478333Y-88227500D01*
X149678333Y-88227500D01*
X149745000Y-88194166D01*
X149778333Y-88160833D01*
X149811666Y-88094166D01*
X149811666Y-87994166D01*
X149345000Y-88527500D02*
X150045000Y-88527500D01*
X149378333Y-88527500D02*
X149345000Y-88594166D01*
X149345000Y-88727500D01*
X149378333Y-88794166D01*
X149411666Y-88827500D01*
X149478333Y-88860833D01*
X149678333Y-88860833D01*
X149745000Y-88827500D01*
X149778333Y-88794166D01*
X149811666Y-88727500D01*
X149811666Y-88594166D01*
X149778333Y-88527500D01*
X149778333Y-89427500D02*
X149811666Y-89360833D01*
X149811666Y-89227500D01*
X149778333Y-89160833D01*
X149711666Y-89127500D01*
X149445000Y-89127500D01*
X149378333Y-89160833D01*
X149345000Y-89227500D01*
X149345000Y-89360833D01*
X149378333Y-89427500D01*
X149445000Y-89460833D01*
X149511666Y-89460833D01*
X149578333Y-89127500D01*
X149345000Y-89760833D02*
X149811666Y-89760833D01*
X149411666Y-89760833D02*
X149378333Y-89794166D01*
X149345000Y-89860833D01*
X149345000Y-89960833D01*
X149378333Y-90027500D01*
X149445000Y-90060833D01*
X149811666Y-90060833D01*
X149745000Y-90394166D02*
X149778333Y-90427500D01*
X149811666Y-90394166D01*
X149778333Y-90360833D01*
X149745000Y-90394166D01*
X149811666Y-90394166D01*
X149378333Y-90394166D02*
X149411666Y-90427500D01*
X149445000Y-90394166D01*
X149411666Y-90360833D01*
X149378333Y-90394166D01*
X149445000Y-90394166D01*
X149778333Y-91227500D02*
X149811666Y-91327500D01*
X149811666Y-91494166D01*
X149778333Y-91560833D01*
X149745000Y-91594166D01*
X149678333Y-91627500D01*
X149611666Y-91627500D01*
X149545000Y-91594166D01*
X149511666Y-91560833D01*
X149478333Y-91494166D01*
X149445000Y-91360833D01*
X149411666Y-91294166D01*
X149378333Y-91260833D01*
X149311666Y-91227500D01*
X149245000Y-91227500D01*
X149178333Y-91260833D01*
X149145000Y-91294166D01*
X149111666Y-91360833D01*
X149111666Y-91527500D01*
X149145000Y-91627500D01*
X149011666Y-91427500D02*
X149911666Y-91427500D01*
X149745000Y-92327500D02*
X149778333Y-92294166D01*
X149811666Y-92194166D01*
X149811666Y-92127500D01*
X149778333Y-92027500D01*
X149711666Y-91960833D01*
X149645000Y-91927500D01*
X149511666Y-91894166D01*
X149411666Y-91894166D01*
X149278333Y-91927500D01*
X149211666Y-91960833D01*
X149145000Y-92027500D01*
X149111666Y-92127500D01*
X149111666Y-92194166D01*
X149145000Y-92294166D01*
X149178333Y-92327500D01*
X149111666Y-92760833D02*
X149111666Y-92827500D01*
X149145000Y-92894166D01*
X149178333Y-92927500D01*
X149245000Y-92960833D01*
X149378333Y-92994166D01*
X149545000Y-92994166D01*
X149678333Y-92960833D01*
X149745000Y-92927500D01*
X149778333Y-92894166D01*
X149811666Y-92827500D01*
X149811666Y-92760833D01*
X149778333Y-92694166D01*
X149745000Y-92660833D01*
X149678333Y-92627500D01*
X149545000Y-92594166D01*
X149378333Y-92594166D01*
X149245000Y-92627500D01*
X149178333Y-92660833D01*
X149145000Y-92694166D01*
X149111666Y-92760833D01*
X149111666Y-93427500D02*
X149111666Y-93494166D01*
X149145000Y-93560833D01*
X149178333Y-93594166D01*
X149245000Y-93627500D01*
X149378333Y-93660833D01*
X149545000Y-93660833D01*
X149678333Y-93627500D01*
X149745000Y-93594166D01*
X149778333Y-93560833D01*
X149811666Y-93494166D01*
X149811666Y-93427500D01*
X149778333Y-93360833D01*
X149745000Y-93327500D01*
X149678333Y-93294166D01*
X149545000Y-93260833D01*
X149378333Y-93260833D01*
X149245000Y-93294166D01*
X149178333Y-93327500D01*
X149145000Y-93360833D01*
X149111666Y-93427500D01*
X149111666Y-94094166D02*
X149111666Y-94160833D01*
X149145000Y-94227500D01*
X149178333Y-94260833D01*
X149245000Y-94294166D01*
X149378333Y-94327500D01*
X149545000Y-94327500D01*
X149678333Y-94294166D01*
X149745000Y-94260833D01*
X149778333Y-94227500D01*
X149811666Y-94160833D01*
X149811666Y-94094166D01*
X149778333Y-94027500D01*
X149745000Y-93994166D01*
X149678333Y-93960833D01*
X149545000Y-93927500D01*
X149378333Y-93927500D01*
X149245000Y-93960833D01*
X149178333Y-93994166D01*
X149145000Y-94027500D01*
X149111666Y-94094166D01*
X149545000Y-94627500D02*
X149545000Y-95160833D01*
X149778333Y-95460833D02*
X149811666Y-95560833D01*
X149811666Y-95727500D01*
X149778333Y-95794166D01*
X149745000Y-95827500D01*
X149678333Y-95860833D01*
X149611666Y-95860833D01*
X149545000Y-95827500D01*
X149511666Y-95794166D01*
X149478333Y-95727500D01*
X149445000Y-95594166D01*
X149411666Y-95527500D01*
X149378333Y-95494166D01*
X149311666Y-95460833D01*
X149245000Y-95460833D01*
X149178333Y-95494166D01*
X149145000Y-95527500D01*
X149111666Y-95594166D01*
X149111666Y-95760833D01*
X149145000Y-95860833D01*
X149011666Y-95660833D02*
X149911666Y-95660833D01*
X149445000Y-96394166D02*
X149445000Y-96160833D01*
X149811666Y-96160833D02*
X149111666Y-96160833D01*
X149111666Y-96494166D01*
X149445000Y-96994166D02*
X149445000Y-96760833D01*
X149811666Y-96760833D02*
X149111666Y-96760833D01*
X149111666Y-97094166D01*
X149445000Y-97594166D02*
X149445000Y-97360833D01*
X149811666Y-97360833D02*
X149111666Y-97360833D01*
X149111666Y-97694166D01*
X149445000Y-98194166D02*
X149445000Y-97960833D01*
X149811666Y-97960833D02*
X149111666Y-97960833D01*
X149111666Y-98294166D01*
X149811666Y-99094166D02*
X149345000Y-99094166D01*
X149111666Y-99094166D02*
X149145000Y-99060833D01*
X149178333Y-99094166D01*
X149145000Y-99127500D01*
X149111666Y-99094166D01*
X149178333Y-99094166D01*
X149778333Y-99394166D02*
X149811666Y-99460833D01*
X149811666Y-99594166D01*
X149778333Y-99660833D01*
X149711666Y-99694166D01*
X149678333Y-99694166D01*
X149611666Y-99660833D01*
X149578333Y-99594166D01*
X149578333Y-99494166D01*
X149545000Y-99427500D01*
X149478333Y-99394166D01*
X149445000Y-99394166D01*
X149378333Y-99427500D01*
X149345000Y-99494166D01*
X149345000Y-99594166D01*
X149378333Y-99660833D01*
X149811666Y-100927500D02*
X149478333Y-100694166D01*
X149811666Y-100527500D02*
X149111666Y-100527500D01*
X149111666Y-100794166D01*
X149145000Y-100860833D01*
X149178333Y-100894166D01*
X149245000Y-100927500D01*
X149345000Y-100927500D01*
X149411666Y-100894166D01*
X149445000Y-100860833D01*
X149478333Y-100794166D01*
X149478333Y-100527500D01*
X149111666Y-101360833D02*
X149111666Y-101494166D01*
X149145000Y-101560833D01*
X149211666Y-101627500D01*
X149345000Y-101660833D01*
X149578333Y-101660833D01*
X149711666Y-101627500D01*
X149778333Y-101560833D01*
X149811666Y-101494166D01*
X149811666Y-101360833D01*
X149778333Y-101294166D01*
X149711666Y-101227500D01*
X149578333Y-101194166D01*
X149345000Y-101194166D01*
X149211666Y-101227500D01*
X149145000Y-101294166D01*
X149111666Y-101360833D01*
X149811666Y-101960833D02*
X149111666Y-101960833D01*
X149611666Y-102194166D01*
X149111666Y-102427500D01*
X149811666Y-102427500D01*
X149778333Y-102794166D02*
X149811666Y-102794166D01*
X149878333Y-102760833D01*
X149911666Y-102727500D01*
X149811666Y-103627499D02*
X149345000Y-103627499D01*
X149111666Y-103627499D02*
X149145000Y-103594166D01*
X149178333Y-103627499D01*
X149145000Y-103660833D01*
X149111666Y-103627499D01*
X149178333Y-103627499D01*
X149345000Y-103960833D02*
X149811666Y-103960833D01*
X149411666Y-103960833D02*
X149378333Y-103994166D01*
X149345000Y-104060833D01*
X149345000Y-104160833D01*
X149378333Y-104227499D01*
X149445000Y-104260833D01*
X149811666Y-104260833D01*
X149778333Y-104560833D02*
X149811666Y-104627499D01*
X149811666Y-104760833D01*
X149778333Y-104827499D01*
X149711666Y-104860833D01*
X149678333Y-104860833D01*
X149611666Y-104827499D01*
X149578333Y-104760833D01*
X149578333Y-104660833D01*
X149545000Y-104594166D01*
X149478333Y-104560833D01*
X149445000Y-104560833D01*
X149378333Y-104594166D01*
X149345000Y-104660833D01*
X149345000Y-104760833D01*
X149378333Y-104827499D01*
X149345000Y-105060833D02*
X149345000Y-105327499D01*
X149111666Y-105160833D02*
X149711666Y-105160833D01*
X149778333Y-105194166D01*
X149811666Y-105260833D01*
X149811666Y-105327499D01*
X149811666Y-105860833D02*
X149445000Y-105860833D01*
X149378333Y-105827499D01*
X149345000Y-105760833D01*
X149345000Y-105627499D01*
X149378333Y-105560833D01*
X149778333Y-105860833D02*
X149811666Y-105794166D01*
X149811666Y-105627499D01*
X149778333Y-105560833D01*
X149711666Y-105527499D01*
X149645000Y-105527499D01*
X149578333Y-105560833D01*
X149545000Y-105627499D01*
X149545000Y-105794166D01*
X149511666Y-105860833D01*
X149811666Y-106294166D02*
X149778333Y-106227499D01*
X149711666Y-106194166D01*
X149111666Y-106194166D01*
X149811666Y-106660833D02*
X149778333Y-106594166D01*
X149711666Y-106560833D01*
X149111666Y-106560833D01*
X149811666Y-107860833D02*
X149478333Y-107627499D01*
X149811666Y-107460833D02*
X149111666Y-107460833D01*
X149111666Y-107727499D01*
X149145000Y-107794166D01*
X149178333Y-107827499D01*
X149245000Y-107860833D01*
X149345000Y-107860833D01*
X149411666Y-107827499D01*
X149445000Y-107794166D01*
X149478333Y-107727499D01*
X149478333Y-107460833D01*
X149811666Y-108527499D02*
X149811666Y-108127499D01*
X149811666Y-108327499D02*
X149111666Y-108327499D01*
X149211666Y-108260833D01*
X149278333Y-108194166D01*
X149311666Y-108127499D01*
X149345000Y-109127499D02*
X149811666Y-109127499D01*
X149078333Y-108960833D02*
X149578333Y-108794166D01*
X149578333Y-109227499D01*
X150938666Y-91394166D02*
X150572000Y-91394166D01*
X150505333Y-91360833D01*
X150472000Y-91294166D01*
X150472000Y-91160833D01*
X150505333Y-91094166D01*
X150905333Y-91394166D02*
X150938666Y-91327500D01*
X150938666Y-91160833D01*
X150905333Y-91094166D01*
X150838666Y-91060833D01*
X150772000Y-91060833D01*
X150705333Y-91094166D01*
X150672000Y-91160833D01*
X150672000Y-91327500D01*
X150638666Y-91394166D01*
X150472000Y-91727500D02*
X150938666Y-91727500D01*
X150538666Y-91727500D02*
X150505333Y-91760833D01*
X150472000Y-91827500D01*
X150472000Y-91927500D01*
X150505333Y-91994166D01*
X150572000Y-92027500D01*
X150938666Y-92027500D01*
X150938666Y-92660833D02*
X150238666Y-92660833D01*
X150905333Y-92660833D02*
X150938666Y-92594166D01*
X150938666Y-92460833D01*
X150905333Y-92394166D01*
X150872000Y-92360833D01*
X150805333Y-92327500D01*
X150605333Y-92327500D01*
X150538666Y-92360833D01*
X150505333Y-92394166D01*
X150472000Y-92460833D01*
X150472000Y-92594166D01*
X150505333Y-92660833D01*
X150905333Y-93494166D02*
X150938666Y-93560833D01*
X150938666Y-93694166D01*
X150905333Y-93760833D01*
X150838666Y-93794166D01*
X150805333Y-93794166D01*
X150738666Y-93760833D01*
X150705333Y-93694166D01*
X150705333Y-93594166D01*
X150672000Y-93527500D01*
X150605333Y-93494166D01*
X150572000Y-93494166D01*
X150505333Y-93527500D01*
X150472000Y-93594166D01*
X150472000Y-93694166D01*
X150505333Y-93760833D01*
X150472000Y-94027500D02*
X150938666Y-94160833D01*
X150605333Y-94294166D01*
X150938666Y-94427500D01*
X150472000Y-94560833D01*
X150938666Y-94827500D02*
X150472000Y-94827500D01*
X150238666Y-94827500D02*
X150272000Y-94794166D01*
X150305333Y-94827500D01*
X150272000Y-94860833D01*
X150238666Y-94827500D01*
X150305333Y-94827500D01*
X150472000Y-95060833D02*
X150472000Y-95327500D01*
X150238666Y-95160833D02*
X150838666Y-95160833D01*
X150905333Y-95194166D01*
X150938666Y-95260833D01*
X150938666Y-95327500D01*
X150905333Y-95860833D02*
X150938666Y-95794166D01*
X150938666Y-95660833D01*
X150905333Y-95594166D01*
X150872000Y-95560833D01*
X150805333Y-95527500D01*
X150605333Y-95527500D01*
X150538666Y-95560833D01*
X150505333Y-95594166D01*
X150472000Y-95660833D01*
X150472000Y-95794166D01*
X150505333Y-95860833D01*
X150938666Y-96160833D02*
X150238666Y-96160833D01*
X150938666Y-96460833D02*
X150572000Y-96460833D01*
X150505333Y-96427500D01*
X150472000Y-96360833D01*
X150472000Y-96260833D01*
X150505333Y-96194166D01*
X150538666Y-96160833D01*
X150938666Y-97327500D02*
X150238666Y-97327500D01*
X150505333Y-97327500D02*
X150472000Y-97394166D01*
X150472000Y-97527500D01*
X150505333Y-97594166D01*
X150538666Y-97627500D01*
X150605333Y-97660833D01*
X150805333Y-97660833D01*
X150872000Y-97627500D01*
X150905333Y-97594166D01*
X150938666Y-97527500D01*
X150938666Y-97394166D01*
X150905333Y-97327500D01*
X150905333Y-98227500D02*
X150938666Y-98160833D01*
X150938666Y-98027500D01*
X150905333Y-97960833D01*
X150838666Y-97927500D01*
X150572000Y-97927500D01*
X150505333Y-97960833D01*
X150472000Y-98027500D01*
X150472000Y-98160833D01*
X150505333Y-98227500D01*
X150572000Y-98260833D01*
X150638666Y-98260833D01*
X150705333Y-97927500D01*
X150472000Y-98460833D02*
X150472000Y-98727500D01*
X150238666Y-98560833D02*
X150838666Y-98560833D01*
X150905333Y-98594166D01*
X150938666Y-98660833D01*
X150938666Y-98727500D01*
X150472000Y-98894166D02*
X150938666Y-99027500D01*
X150605333Y-99160833D01*
X150938666Y-99294166D01*
X150472000Y-99427500D01*
X150905333Y-99960833D02*
X150938666Y-99894166D01*
X150938666Y-99760833D01*
X150905333Y-99694166D01*
X150838666Y-99660833D01*
X150572000Y-99660833D01*
X150505333Y-99694166D01*
X150472000Y-99760833D01*
X150472000Y-99894166D01*
X150505333Y-99960833D01*
X150572000Y-99994166D01*
X150638666Y-99994166D01*
X150705333Y-99660833D01*
X150905333Y-100560833D02*
X150938666Y-100494166D01*
X150938666Y-100360833D01*
X150905333Y-100294166D01*
X150838666Y-100260833D01*
X150572000Y-100260833D01*
X150505333Y-100294166D01*
X150472000Y-100360833D01*
X150472000Y-100494166D01*
X150505333Y-100560833D01*
X150572000Y-100594166D01*
X150638666Y-100594166D01*
X150705333Y-100260833D01*
X150472000Y-100894166D02*
X150938666Y-100894166D01*
X150538666Y-100894166D02*
X150505333Y-100927500D01*
X150472000Y-100994166D01*
X150472000Y-101094166D01*
X150505333Y-101160833D01*
X150572000Y-101194166D01*
X150938666Y-101194166D01*
X150938666Y-102060833D02*
X150472000Y-102060833D01*
X150605333Y-102060833D02*
X150538666Y-102094166D01*
X150505333Y-102127500D01*
X150472000Y-102194166D01*
X150472000Y-102260833D01*
X150938666Y-102594166D02*
X150905333Y-102527500D01*
X150872000Y-102494166D01*
X150805333Y-102460833D01*
X150605333Y-102460833D01*
X150538666Y-102494166D01*
X150505333Y-102527500D01*
X150472000Y-102594166D01*
X150472000Y-102694166D01*
X150505333Y-102760833D01*
X150538666Y-102794166D01*
X150605333Y-102827500D01*
X150805333Y-102827500D01*
X150872000Y-102794166D01*
X150905333Y-102760833D01*
X150938666Y-102694166D01*
X150938666Y-102594166D01*
X150472000Y-103427500D02*
X150938666Y-103427500D01*
X150472000Y-103127500D02*
X150838666Y-103127500D01*
X150905333Y-103160833D01*
X150938666Y-103227500D01*
X150938666Y-103327500D01*
X150905333Y-103394166D01*
X150872000Y-103427500D01*
X150472000Y-103760833D02*
X150938666Y-103760833D01*
X150538666Y-103760833D02*
X150505333Y-103794166D01*
X150472000Y-103860833D01*
X150472000Y-103960833D01*
X150505333Y-104027500D01*
X150572000Y-104060833D01*
X150938666Y-104060833D01*
X150938666Y-104694166D02*
X150238666Y-104694166D01*
X150905333Y-104694166D02*
X150938666Y-104627500D01*
X150938666Y-104494166D01*
X150905333Y-104427500D01*
X150872000Y-104394166D01*
X150805333Y-104360833D01*
X150605333Y-104360833D01*
X150538666Y-104394166D01*
X150505333Y-104427500D01*
X150472000Y-104494166D01*
X150472000Y-104627500D01*
X150505333Y-104694166D01*
X150472000Y-105560833D02*
X151172000Y-105560833D01*
X150505333Y-105560833D02*
X150472000Y-105627500D01*
X150472000Y-105760833D01*
X150505333Y-105827500D01*
X150538666Y-105860833D01*
X150605333Y-105894166D01*
X150805333Y-105894166D01*
X150872000Y-105860833D01*
X150905333Y-105827500D01*
X150938666Y-105760833D01*
X150938666Y-105627500D01*
X150905333Y-105560833D01*
X150938666Y-106494166D02*
X150572000Y-106494166D01*
X150505333Y-106460833D01*
X150472000Y-106394166D01*
X150472000Y-106260833D01*
X150505333Y-106194166D01*
X150905333Y-106494166D02*
X150938666Y-106427500D01*
X150938666Y-106260833D01*
X150905333Y-106194166D01*
X150838666Y-106160833D01*
X150772000Y-106160833D01*
X150705333Y-106194166D01*
X150672000Y-106260833D01*
X150672000Y-106427500D01*
X150638666Y-106494166D01*
X150938666Y-107127500D02*
X150238666Y-107127500D01*
X150905333Y-107127500D02*
X150938666Y-107060833D01*
X150938666Y-106927500D01*
X150905333Y-106860833D01*
X150872000Y-106827500D01*
X150805333Y-106794166D01*
X150605333Y-106794166D01*
X150538666Y-106827500D01*
X150505333Y-106860833D01*
X150472000Y-106927500D01*
X150472000Y-107060833D01*
X150505333Y-107127500D01*
X150938666Y-108294166D02*
X150572000Y-108294166D01*
X150505333Y-108260833D01*
X150472000Y-108194166D01*
X150472000Y-108060833D01*
X150505333Y-107994166D01*
X150905333Y-108294166D02*
X150938666Y-108227500D01*
X150938666Y-108060833D01*
X150905333Y-107994166D01*
X150838666Y-107960833D01*
X150772000Y-107960833D01*
X150705333Y-107994166D01*
X150672000Y-108060833D01*
X150672000Y-108227500D01*
X150638666Y-108294166D01*
X150472000Y-108627500D02*
X150938666Y-108627500D01*
X150538666Y-108627500D02*
X150505333Y-108660833D01*
X150472000Y-108727500D01*
X150472000Y-108827500D01*
X150505333Y-108894166D01*
X150572000Y-108927500D01*
X150938666Y-108927500D01*
X150938666Y-109560833D02*
X150238666Y-109560833D01*
X150905333Y-109560833D02*
X150938666Y-109494166D01*
X150938666Y-109360833D01*
X150905333Y-109294166D01*
X150872000Y-109260833D01*
X150805333Y-109227500D01*
X150605333Y-109227500D01*
X150538666Y-109260833D01*
X150505333Y-109294166D01*
X150472000Y-109360833D01*
X150472000Y-109494166D01*
X150505333Y-109560833D01*
X150272000Y-110794166D02*
X150238666Y-110727500D01*
X150238666Y-110627500D01*
X150272000Y-110527500D01*
X150338666Y-110460833D01*
X150405333Y-110427500D01*
X150538666Y-110394166D01*
X150638666Y-110394166D01*
X150772000Y-110427500D01*
X150838666Y-110460833D01*
X150905333Y-110527500D01*
X150938666Y-110627500D01*
X150938666Y-110694166D01*
X150905333Y-110794166D01*
X150872000Y-110827500D01*
X150638666Y-110827500D01*
X150638666Y-110694166D01*
X150938666Y-111127500D02*
X150238666Y-111127500D01*
X150938666Y-111527500D01*
X150238666Y-111527500D01*
X150938666Y-111860833D02*
X150238666Y-111860833D01*
X150238666Y-112027500D01*
X150272000Y-112127500D01*
X150338666Y-112194166D01*
X150405333Y-112227500D01*
X150538666Y-112260833D01*
X150638666Y-112260833D01*
X150772000Y-112227500D01*
X150838666Y-112194166D01*
X150905333Y-112127500D01*
X150938666Y-112027500D01*
X150938666Y-111860833D01*
X152065666Y-88294166D02*
X151732333Y-88060833D01*
X152065666Y-87894166D02*
X151365666Y-87894166D01*
X151365666Y-88160833D01*
X151399000Y-88227500D01*
X151432333Y-88260833D01*
X151499000Y-88294166D01*
X151599000Y-88294166D01*
X151665666Y-88260833D01*
X151699000Y-88227500D01*
X151732333Y-88160833D01*
X151732333Y-87894166D01*
X151365666Y-88727500D02*
X151365666Y-88860833D01*
X151399000Y-88927500D01*
X151465666Y-88994166D01*
X151599000Y-89027500D01*
X151832333Y-89027500D01*
X151965666Y-88994166D01*
X152032333Y-88927500D01*
X152065666Y-88860833D01*
X152065666Y-88727500D01*
X152032333Y-88660833D01*
X151965666Y-88594166D01*
X151832333Y-88560833D01*
X151599000Y-88560833D01*
X151465666Y-88594166D01*
X151399000Y-88660833D01*
X151365666Y-88727500D01*
X152065666Y-89327500D02*
X151365666Y-89327500D01*
X151865666Y-89560833D01*
X151365666Y-89794166D01*
X152065666Y-89794166D01*
X152132333Y-89960833D02*
X152132333Y-90494166D01*
X151865666Y-90627500D02*
X151865666Y-90960833D01*
X152065666Y-90560833D02*
X151365666Y-90794166D01*
X152065666Y-91027500D01*
X152065666Y-91627500D02*
X152065666Y-91227500D01*
X152065666Y-91427500D02*
X151365666Y-91427500D01*
X151465666Y-91360833D01*
X151532333Y-91294166D01*
X151565666Y-91227500D01*
X151365666Y-92260833D02*
X151365666Y-91927500D01*
X151699000Y-91894166D01*
X151665666Y-91927500D01*
X151632333Y-91994166D01*
X151632333Y-92160833D01*
X151665666Y-92227500D01*
X151699000Y-92260833D01*
X151765666Y-92294166D01*
X151932333Y-92294166D01*
X151999000Y-92260833D01*
X152032333Y-92227500D01*
X152065666Y-92160833D01*
X152065666Y-91994166D01*
X152032333Y-91927500D01*
X151999000Y-91894166D01*
X153159333Y-88194166D02*
X153192666Y-88127500D01*
X153192666Y-87994166D01*
X153159333Y-87927500D01*
X153126000Y-87894166D01*
X153059333Y-87860833D01*
X152859333Y-87860833D01*
X152792666Y-87894166D01*
X152759333Y-87927500D01*
X152726000Y-87994166D01*
X152726000Y-88127500D01*
X152759333Y-88194166D01*
X153192666Y-88594166D02*
X153159333Y-88527500D01*
X153092666Y-88494166D01*
X152492666Y-88494166D01*
X153192666Y-88960833D02*
X153159333Y-88894166D01*
X153126000Y-88860833D01*
X153059333Y-88827500D01*
X152859333Y-88827500D01*
X152792666Y-88860833D01*
X152759333Y-88894166D01*
X152726000Y-88960833D01*
X152726000Y-89060833D01*
X152759333Y-89127500D01*
X152792666Y-89160833D01*
X152859333Y-89194166D01*
X153059333Y-89194166D01*
X153126000Y-89160833D01*
X153159333Y-89127500D01*
X153192666Y-89060833D01*
X153192666Y-88960833D01*
X153159333Y-89460833D02*
X153192666Y-89527500D01*
X153192666Y-89660833D01*
X153159333Y-89727500D01*
X153092666Y-89760833D01*
X153059333Y-89760833D01*
X152992666Y-89727500D01*
X152959333Y-89660833D01*
X152959333Y-89560833D01*
X152926000Y-89494166D01*
X152859333Y-89460833D01*
X152826000Y-89460833D01*
X152759333Y-89494166D01*
X152726000Y-89560833D01*
X152726000Y-89660833D01*
X152759333Y-89727500D01*
X153159333Y-90327500D02*
X153192666Y-90260833D01*
X153192666Y-90127500D01*
X153159333Y-90060833D01*
X153092666Y-90027500D01*
X152826000Y-90027500D01*
X152759333Y-90060833D01*
X152726000Y-90127500D01*
X152726000Y-90260833D01*
X152759333Y-90327500D01*
X152826000Y-90360833D01*
X152892666Y-90360833D01*
X152959333Y-90027500D01*
X153192666Y-90960833D02*
X152492666Y-90960833D01*
X153159333Y-90960833D02*
X153192666Y-90894166D01*
X153192666Y-90760833D01*
X153159333Y-90694166D01*
X153126000Y-90660833D01*
X153059333Y-90627500D01*
X152859333Y-90627500D01*
X152792666Y-90660833D01*
X152759333Y-90694166D01*
X152726000Y-90760833D01*
X152726000Y-90894166D01*
X152759333Y-90960833D01*
X153126000Y-91294166D02*
X153159333Y-91327500D01*
X153192666Y-91294166D01*
X153159333Y-91260833D01*
X153126000Y-91294166D01*
X153192666Y-91294166D01*
X152759333Y-91294166D02*
X152792666Y-91327500D01*
X152826000Y-91294166D01*
X152792666Y-91260833D01*
X152759333Y-91294166D01*
X152826000Y-91294166D01*
X152492666Y-92094166D02*
X152492666Y-92527500D01*
X152759333Y-92294166D01*
X152759333Y-92394166D01*
X152792666Y-92460833D01*
X152826000Y-92494166D01*
X152892666Y-92527500D01*
X153059333Y-92527500D01*
X153126000Y-92494166D01*
X153159333Y-92460833D01*
X153192666Y-92394166D01*
X153192666Y-92194166D01*
X153159333Y-92127500D01*
X153126000Y-92094166D01*
X152559333Y-92794166D02*
X152526000Y-92827500D01*
X152492666Y-92894166D01*
X152492666Y-93060833D01*
X152526000Y-93127500D01*
X152559333Y-93160833D01*
X152626000Y-93194166D01*
X152692666Y-93194166D01*
X152792666Y-93160833D01*
X153192666Y-92760833D01*
X153192666Y-93194166D01*
X153192666Y-93494166D02*
X152492666Y-93494166D01*
X153192666Y-93894166D02*
X152792666Y-93594166D01*
X152492666Y-93894166D02*
X152892666Y-93494166D01*
X153192666Y-95127500D02*
X152859333Y-94894166D01*
X153192666Y-94727500D02*
X152492666Y-94727500D01*
X152492666Y-94994166D01*
X152526000Y-95060833D01*
X152559333Y-95094166D01*
X152626000Y-95127500D01*
X152726000Y-95127500D01*
X152792666Y-95094166D01*
X152826000Y-95060833D01*
X152859333Y-94994166D01*
X152859333Y-94727500D01*
X152492666Y-95560833D02*
X152492666Y-95694166D01*
X152526000Y-95760833D01*
X152592666Y-95827500D01*
X152726000Y-95860833D01*
X152959333Y-95860833D01*
X153092666Y-95827500D01*
X153159333Y-95760833D01*
X153192666Y-95694166D01*
X153192666Y-95560833D01*
X153159333Y-95494166D01*
X153092666Y-95427500D01*
X152959333Y-95394166D01*
X152726000Y-95394166D01*
X152592666Y-95427500D01*
X152526000Y-95494166D01*
X152492666Y-95560833D01*
X153192666Y-96160833D02*
X152492666Y-96160833D01*
X152992666Y-96394166D01*
X152492666Y-96627500D01*
X153192666Y-96627500D01*
X153192666Y-97594166D02*
X153159333Y-97527500D01*
X153126000Y-97494166D01*
X153059333Y-97460833D01*
X152859333Y-97460833D01*
X152792666Y-97494166D01*
X152759333Y-97527500D01*
X152726000Y-97594166D01*
X152726000Y-97694166D01*
X152759333Y-97760833D01*
X152792666Y-97794166D01*
X152859333Y-97827500D01*
X153059333Y-97827500D01*
X153126000Y-97794166D01*
X153159333Y-97760833D01*
X153192666Y-97694166D01*
X153192666Y-97594166D01*
X153192666Y-98127500D02*
X152726000Y-98127500D01*
X152859333Y-98127500D02*
X152792666Y-98160833D01*
X152759333Y-98194166D01*
X152726000Y-98260833D01*
X152726000Y-98327500D01*
X152726000Y-99394166D02*
X153192666Y-99394166D01*
X152726000Y-99094166D02*
X153092666Y-99094166D01*
X153159333Y-99127500D01*
X153192666Y-99194166D01*
X153192666Y-99294166D01*
X153159333Y-99360833D01*
X153126000Y-99394166D01*
X152726000Y-99727500D02*
X153426000Y-99727500D01*
X152759333Y-99727500D02*
X152726000Y-99794166D01*
X152726000Y-99927500D01*
X152759333Y-99994166D01*
X152792666Y-100027500D01*
X152859333Y-100060833D01*
X153059333Y-100060833D01*
X153126000Y-100027500D01*
X153159333Y-99994166D01*
X153192666Y-99927500D01*
X153192666Y-99794166D01*
X153159333Y-99727500D01*
X152726000Y-100360833D02*
X153426000Y-100360833D01*
X152759333Y-100360833D02*
X152726000Y-100427500D01*
X152726000Y-100560833D01*
X152759333Y-100627500D01*
X152792666Y-100660833D01*
X152859333Y-100694166D01*
X153059333Y-100694166D01*
X153126000Y-100660833D01*
X153159333Y-100627500D01*
X153192666Y-100560833D01*
X153192666Y-100427500D01*
X153159333Y-100360833D01*
X153159333Y-101260833D02*
X153192666Y-101194166D01*
X153192666Y-101060833D01*
X153159333Y-100994166D01*
X153092666Y-100960833D01*
X152826000Y-100960833D01*
X152759333Y-100994166D01*
X152726000Y-101060833D01*
X152726000Y-101194166D01*
X152759333Y-101260833D01*
X152826000Y-101294166D01*
X152892666Y-101294166D01*
X152959333Y-100960833D01*
X153192666Y-101594166D02*
X152726000Y-101594166D01*
X152859333Y-101594166D02*
X152792666Y-101627500D01*
X152759333Y-101660833D01*
X152726000Y-101727500D01*
X152726000Y-101794166D01*
X153192666Y-102560833D02*
X152492666Y-102560833D01*
X153192666Y-102860833D02*
X152826000Y-102860833D01*
X152759333Y-102827500D01*
X152726000Y-102760833D01*
X152726000Y-102660833D01*
X152759333Y-102594166D01*
X152792666Y-102560833D01*
X153192666Y-103494166D02*
X152826000Y-103494166D01*
X152759333Y-103460833D01*
X152726000Y-103394166D01*
X152726000Y-103260833D01*
X152759333Y-103194166D01*
X153159333Y-103494166D02*
X153192666Y-103427500D01*
X153192666Y-103260833D01*
X153159333Y-103194166D01*
X153092666Y-103160833D01*
X153026000Y-103160833D01*
X152959333Y-103194166D01*
X152926000Y-103260833D01*
X152926000Y-103427500D01*
X152892666Y-103494166D01*
X153192666Y-103927500D02*
X153159333Y-103860833D01*
X153092666Y-103827500D01*
X152492666Y-103827500D01*
X152726000Y-104094166D02*
X152726000Y-104360833D01*
X153192666Y-104194166D02*
X152592666Y-104194166D01*
X152526000Y-104227500D01*
X152492666Y-104294166D01*
X152492666Y-104360833D01*
X153192666Y-105227500D02*
X153159333Y-105160833D01*
X153126000Y-105127500D01*
X153059333Y-105094166D01*
X152859333Y-105094166D01*
X152792666Y-105127500D01*
X152759333Y-105160833D01*
X152726000Y-105227500D01*
X152726000Y-105327500D01*
X152759333Y-105394166D01*
X152792666Y-105427500D01*
X152859333Y-105460833D01*
X153059333Y-105460833D01*
X153126000Y-105427500D01*
X153159333Y-105394166D01*
X153192666Y-105327500D01*
X153192666Y-105227500D01*
X153192666Y-105760833D02*
X152726000Y-105760833D01*
X152859333Y-105760833D02*
X152792666Y-105794166D01*
X152759333Y-105827500D01*
X152726000Y-105894166D01*
X152726000Y-105960833D01*
X152492666Y-107027500D02*
X152492666Y-106894166D01*
X152526000Y-106827500D01*
X152559333Y-106794166D01*
X152659333Y-106727500D01*
X152792666Y-106694166D01*
X153059333Y-106694166D01*
X153126000Y-106727500D01*
X153159333Y-106760833D01*
X153192666Y-106827500D01*
X153192666Y-106960833D01*
X153159333Y-107027500D01*
X153126000Y-107060833D01*
X153059333Y-107094166D01*
X152892666Y-107094166D01*
X152826000Y-107060833D01*
X152792666Y-107027500D01*
X152759333Y-106960833D01*
X152759333Y-106827500D01*
X152792666Y-106760833D01*
X152826000Y-106727500D01*
X152892666Y-106694166D01*
X152726000Y-107694166D02*
X153192666Y-107694166D01*
X152459333Y-107527500D02*
X152959333Y-107360833D01*
X152959333Y-107794166D01*
X153192666Y-108060833D02*
X152492666Y-108060833D01*
X153192666Y-108460833D02*
X152792666Y-108160833D01*
X152492666Y-108460833D02*
X152892666Y-108060833D01*
X153192666Y-109694166D02*
X152859333Y-109460833D01*
X153192666Y-109294166D02*
X152492666Y-109294166D01*
X152492666Y-109560833D01*
X152526000Y-109627500D01*
X152559333Y-109660833D01*
X152626000Y-109694166D01*
X152726000Y-109694166D01*
X152792666Y-109660833D01*
X152826000Y-109627500D01*
X152859333Y-109560833D01*
X152859333Y-109294166D01*
X152492666Y-110127500D02*
X152492666Y-110260833D01*
X152526000Y-110327500D01*
X152592666Y-110394166D01*
X152726000Y-110427500D01*
X152959333Y-110427500D01*
X153092666Y-110394166D01*
X153159333Y-110327500D01*
X153192666Y-110260833D01*
X153192666Y-110127500D01*
X153159333Y-110060833D01*
X153092666Y-109994166D01*
X152959333Y-109960833D01*
X152726000Y-109960833D01*
X152592666Y-109994166D01*
X152526000Y-110060833D01*
X152492666Y-110127500D01*
X153192666Y-110727500D02*
X152492666Y-110727500D01*
X152992666Y-110960833D01*
X152492666Y-111194166D01*
X153192666Y-111194166D01*
X153159333Y-111560833D02*
X153192666Y-111560833D01*
X153259333Y-111527500D01*
X153292666Y-111494166D01*
X153192666Y-112494166D02*
X153159333Y-112427500D01*
X153126000Y-112394166D01*
X153059333Y-112360833D01*
X152859333Y-112360833D01*
X152792666Y-112394166D01*
X152759333Y-112427500D01*
X152726000Y-112494166D01*
X152726000Y-112594166D01*
X152759333Y-112660833D01*
X152792666Y-112694166D01*
X152859333Y-112727500D01*
X153059333Y-112727500D01*
X153126000Y-112694166D01*
X153159333Y-112660833D01*
X153192666Y-112594166D01*
X153192666Y-112494166D01*
X153192666Y-113027500D02*
X152726000Y-113027500D01*
X152792666Y-113027500D02*
X152759333Y-113060833D01*
X152726000Y-113127500D01*
X152726000Y-113227500D01*
X152759333Y-113294166D01*
X152826000Y-113327500D01*
X153192666Y-113327500D01*
X152826000Y-113327500D02*
X152759333Y-113360833D01*
X152726000Y-113427500D01*
X152726000Y-113527500D01*
X152759333Y-113594166D01*
X152826000Y-113627500D01*
X153192666Y-113627500D01*
X153192666Y-113960833D02*
X152726000Y-113960833D01*
X152492666Y-113960833D02*
X152526000Y-113927500D01*
X152559333Y-113960833D01*
X152526000Y-113994166D01*
X152492666Y-113960833D01*
X152559333Y-113960833D01*
X152726000Y-114194166D02*
X152726000Y-114460833D01*
X152492666Y-114294166D02*
X153092666Y-114294166D01*
X153159333Y-114327500D01*
X153192666Y-114394166D01*
X153192666Y-114460833D01*
X153192666Y-115627500D02*
X152859333Y-115394166D01*
X153192666Y-115227500D02*
X152492666Y-115227500D01*
X152492666Y-115494166D01*
X152526000Y-115560833D01*
X152559333Y-115594166D01*
X152626000Y-115627500D01*
X152726000Y-115627500D01*
X152792666Y-115594166D01*
X152826000Y-115560833D01*
X152859333Y-115494166D01*
X152859333Y-115227500D01*
X153192666Y-116294166D02*
X153192666Y-115894166D01*
X153192666Y-116094166D02*
X152492666Y-116094166D01*
X152592666Y-116027500D01*
X152659333Y-115960833D01*
X152692666Y-115894166D01*
X152492666Y-116927500D02*
X152492666Y-116594166D01*
X152826000Y-116560833D01*
X152792666Y-116594166D01*
X152759333Y-116660833D01*
X152759333Y-116827500D01*
X152792666Y-116894166D01*
X152826000Y-116927500D01*
X152892666Y-116960833D01*
X153059333Y-116960833D01*
X153126000Y-116927500D01*
X153159333Y-116894166D01*
X153192666Y-116827500D01*
X153192666Y-116660833D01*
X153159333Y-116594166D01*
X153126000Y-116560833D01*
X154319666Y-87994166D02*
X154286333Y-87927500D01*
X154253000Y-87894166D01*
X154186333Y-87860833D01*
X153986333Y-87860833D01*
X153919666Y-87894166D01*
X153886333Y-87927500D01*
X153853000Y-87994166D01*
X153853000Y-88094166D01*
X153886333Y-88160833D01*
X153919666Y-88194166D01*
X153986333Y-88227500D01*
X154186333Y-88227500D01*
X154253000Y-88194166D01*
X154286333Y-88160833D01*
X154319666Y-88094166D01*
X154319666Y-87994166D01*
X153853000Y-88527500D02*
X154553000Y-88527500D01*
X153886333Y-88527500D02*
X153853000Y-88594166D01*
X153853000Y-88727500D01*
X153886333Y-88794166D01*
X153919666Y-88827500D01*
X153986333Y-88860833D01*
X154186333Y-88860833D01*
X154253000Y-88827500D01*
X154286333Y-88794166D01*
X154319666Y-88727500D01*
X154319666Y-88594166D01*
X154286333Y-88527500D01*
X154286333Y-89427500D02*
X154319666Y-89360833D01*
X154319666Y-89227500D01*
X154286333Y-89160833D01*
X154219666Y-89127500D01*
X153953000Y-89127500D01*
X153886333Y-89160833D01*
X153853000Y-89227500D01*
X153853000Y-89360833D01*
X153886333Y-89427500D01*
X153953000Y-89460833D01*
X154019666Y-89460833D01*
X154086333Y-89127500D01*
X153853000Y-89760833D02*
X154319666Y-89760833D01*
X153919666Y-89760833D02*
X153886333Y-89794166D01*
X153853000Y-89860833D01*
X153853000Y-89960833D01*
X153886333Y-90027500D01*
X153953000Y-90060833D01*
X154319666Y-90060833D01*
X154253000Y-90394166D02*
X154286333Y-90427500D01*
X154319666Y-90394166D01*
X154286333Y-90360833D01*
X154253000Y-90394166D01*
X154319666Y-90394166D01*
X153886333Y-90394166D02*
X153919666Y-90427500D01*
X153953000Y-90394166D01*
X153919666Y-90360833D01*
X153886333Y-90394166D01*
X153953000Y-90394166D01*
X154319666Y-91260833D02*
X153853000Y-91260833D01*
X153619666Y-91260833D02*
X153653000Y-91227500D01*
X153686333Y-91260833D01*
X153653000Y-91294166D01*
X153619666Y-91260833D01*
X153686333Y-91260833D01*
X153853000Y-91594166D02*
X154319666Y-91594166D01*
X153919666Y-91594166D02*
X153886333Y-91627500D01*
X153853000Y-91694166D01*
X153853000Y-91794166D01*
X153886333Y-91860833D01*
X153953000Y-91894166D01*
X154319666Y-91894166D01*
X154286333Y-92194166D02*
X154319666Y-92260833D01*
X154319666Y-92394166D01*
X154286333Y-92460833D01*
X154219666Y-92494166D01*
X154186333Y-92494166D01*
X154119666Y-92460833D01*
X154086333Y-92394166D01*
X154086333Y-92294166D01*
X154053000Y-92227500D01*
X153986333Y-92194166D01*
X153953000Y-92194166D01*
X153886333Y-92227500D01*
X153853000Y-92294166D01*
X153853000Y-92394166D01*
X153886333Y-92460833D01*
X153853000Y-92694166D02*
X153853000Y-92960833D01*
X153619666Y-92794166D02*
X154219666Y-92794166D01*
X154286333Y-92827500D01*
X154319666Y-92894166D01*
X154319666Y-92960833D01*
X154319666Y-93494166D02*
X153953000Y-93494166D01*
X153886333Y-93460833D01*
X153853000Y-93394166D01*
X153853000Y-93260833D01*
X153886333Y-93194166D01*
X154286333Y-93494166D02*
X154319666Y-93427500D01*
X154319666Y-93260833D01*
X154286333Y-93194166D01*
X154219666Y-93160833D01*
X154153000Y-93160833D01*
X154086333Y-93194166D01*
X154053000Y-93260833D01*
X154053000Y-93427500D01*
X154019666Y-93494166D01*
X154319666Y-93927500D02*
X154286333Y-93860833D01*
X154219666Y-93827500D01*
X153619666Y-93827500D01*
X154319666Y-94294166D02*
X154286333Y-94227500D01*
X154219666Y-94194166D01*
X153619666Y-94194166D01*
X154319666Y-95494166D02*
X153986333Y-95260833D01*
X154319666Y-95094166D02*
X153619666Y-95094166D01*
X153619666Y-95360833D01*
X153653000Y-95427500D01*
X153686333Y-95460833D01*
X153753000Y-95494166D01*
X153853000Y-95494166D01*
X153919666Y-95460833D01*
X153953000Y-95427500D01*
X153986333Y-95360833D01*
X153986333Y-95094166D01*
X154319666Y-96160833D02*
X154319666Y-95760833D01*
X154319666Y-95960833D02*
X153619666Y-95960833D01*
X153719666Y-95894166D01*
X153786333Y-95827500D01*
X153819666Y-95760833D01*
X153619666Y-96794166D02*
X153619666Y-96460833D01*
X153953000Y-96427500D01*
X153919666Y-96460833D01*
X153886333Y-96527500D01*
X153886333Y-96694166D01*
X153919666Y-96760833D01*
X153953000Y-96794166D01*
X154019666Y-96827500D01*
X154186333Y-96827500D01*
X154253000Y-96794166D01*
X154286333Y-96760833D01*
X154319666Y-96694166D01*
X154319666Y-96527500D01*
X154286333Y-96460833D01*
X154253000Y-96427500D01*
X154319666Y-97960833D02*
X153953000Y-97960833D01*
X153886333Y-97927500D01*
X153853000Y-97860833D01*
X153853000Y-97727500D01*
X153886333Y-97660833D01*
X154286333Y-97960833D02*
X154319666Y-97894166D01*
X154319666Y-97727500D01*
X154286333Y-97660833D01*
X154219666Y-97627500D01*
X154153000Y-97627500D01*
X154086333Y-97660833D01*
X154053000Y-97727500D01*
X154053000Y-97894166D01*
X154019666Y-97960833D01*
X153853000Y-98294166D02*
X154319666Y-98294166D01*
X153919666Y-98294166D02*
X153886333Y-98327500D01*
X153853000Y-98394166D01*
X153853000Y-98494166D01*
X153886333Y-98560833D01*
X153953000Y-98594166D01*
X154319666Y-98594166D01*
X154319666Y-99227500D02*
X153619666Y-99227500D01*
X154286333Y-99227500D02*
X154319666Y-99160833D01*
X154319666Y-99027500D01*
X154286333Y-98960833D01*
X154253000Y-98927500D01*
X154186333Y-98894166D01*
X153986333Y-98894166D01*
X153919666Y-98927500D01*
X153886333Y-98960833D01*
X153853000Y-99027500D01*
X153853000Y-99160833D01*
X153886333Y-99227500D01*
X154286333Y-100060833D02*
X154319666Y-100127500D01*
X154319666Y-100260833D01*
X154286333Y-100327500D01*
X154219666Y-100360833D01*
X154186333Y-100360833D01*
X154119666Y-100327500D01*
X154086333Y-100260833D01*
X154086333Y-100160833D01*
X154053000Y-100094166D01*
X153986333Y-100060833D01*
X153953000Y-100060833D01*
X153886333Y-100094166D01*
X153853000Y-100160833D01*
X153853000Y-100260833D01*
X153886333Y-100327500D01*
X153853000Y-100594166D02*
X154319666Y-100727500D01*
X153986333Y-100860833D01*
X154319666Y-100994166D01*
X153853000Y-101127500D01*
X154319666Y-101394166D02*
X153853000Y-101394166D01*
X153619666Y-101394166D02*
X153653000Y-101360833D01*
X153686333Y-101394166D01*
X153653000Y-101427500D01*
X153619666Y-101394166D01*
X153686333Y-101394166D01*
X153853000Y-101627500D02*
X153853000Y-101894166D01*
X153619666Y-101727500D02*
X154219666Y-101727500D01*
X154286333Y-101760833D01*
X154319666Y-101827500D01*
X154319666Y-101894166D01*
X154286333Y-102427500D02*
X154319666Y-102360833D01*
X154319666Y-102227500D01*
X154286333Y-102160833D01*
X154253000Y-102127500D01*
X154186333Y-102094166D01*
X153986333Y-102094166D01*
X153919666Y-102127500D01*
X153886333Y-102160833D01*
X153853000Y-102227500D01*
X153853000Y-102360833D01*
X153886333Y-102427500D01*
X154319666Y-102727500D02*
X153619666Y-102727500D01*
X154319666Y-103027500D02*
X153953000Y-103027500D01*
X153886333Y-102994166D01*
X153853000Y-102927500D01*
X153853000Y-102827500D01*
X153886333Y-102760833D01*
X153919666Y-102727500D01*
X154319666Y-103894166D02*
X153619666Y-103894166D01*
X153886333Y-103894166D02*
X153853000Y-103960833D01*
X153853000Y-104094166D01*
X153886333Y-104160833D01*
X153919666Y-104194166D01*
X153986333Y-104227500D01*
X154186333Y-104227500D01*
X154253000Y-104194166D01*
X154286333Y-104160833D01*
X154319666Y-104094166D01*
X154319666Y-103960833D01*
X154286333Y-103894166D01*
X154286333Y-104794166D02*
X154319666Y-104727500D01*
X154319666Y-104594166D01*
X154286333Y-104527500D01*
X154219666Y-104494166D01*
X153953000Y-104494166D01*
X153886333Y-104527500D01*
X153853000Y-104594166D01*
X153853000Y-104727500D01*
X153886333Y-104794166D01*
X153953000Y-104827500D01*
X154019666Y-104827500D01*
X154086333Y-104494166D01*
X153853000Y-105027500D02*
X153853000Y-105294166D01*
X153619666Y-105127500D02*
X154219666Y-105127500D01*
X154286333Y-105160833D01*
X154319666Y-105227500D01*
X154319666Y-105294166D01*
X153853000Y-105460833D02*
X154319666Y-105594166D01*
X153986333Y-105727500D01*
X154319666Y-105860833D01*
X153853000Y-105994166D01*
X154286333Y-106527500D02*
X154319666Y-106460833D01*
X154319666Y-106327500D01*
X154286333Y-106260833D01*
X154219666Y-106227500D01*
X153953000Y-106227500D01*
X153886333Y-106260833D01*
X153853000Y-106327500D01*
X153853000Y-106460833D01*
X153886333Y-106527500D01*
X153953000Y-106560833D01*
X154019666Y-106560833D01*
X154086333Y-106227500D01*
X154286333Y-107127500D02*
X154319666Y-107060833D01*
X154319666Y-106927500D01*
X154286333Y-106860833D01*
X154219666Y-106827500D01*
X153953000Y-106827500D01*
X153886333Y-106860833D01*
X153853000Y-106927500D01*
X153853000Y-107060833D01*
X153886333Y-107127500D01*
X153953000Y-107160833D01*
X154019666Y-107160833D01*
X154086333Y-106827500D01*
X153853000Y-107460833D02*
X154319666Y-107460833D01*
X153919666Y-107460833D02*
X153886333Y-107494166D01*
X153853000Y-107560833D01*
X153853000Y-107660833D01*
X153886333Y-107727500D01*
X153953000Y-107760833D01*
X154319666Y-107760833D01*
X154319666Y-108627500D02*
X153853000Y-108627500D01*
X153986333Y-108627500D02*
X153919666Y-108660833D01*
X153886333Y-108694166D01*
X153853000Y-108760833D01*
X153853000Y-108827500D01*
X154319666Y-109160833D02*
X154286333Y-109094166D01*
X154253000Y-109060833D01*
X154186333Y-109027500D01*
X153986333Y-109027500D01*
X153919666Y-109060833D01*
X153886333Y-109094166D01*
X153853000Y-109160833D01*
X153853000Y-109260833D01*
X153886333Y-109327500D01*
X153919666Y-109360833D01*
X153986333Y-109394166D01*
X154186333Y-109394166D01*
X154253000Y-109360833D01*
X154286333Y-109327500D01*
X154319666Y-109260833D01*
X154319666Y-109160833D01*
X153853000Y-109994166D02*
X154319666Y-109994166D01*
X153853000Y-109694166D02*
X154219666Y-109694166D01*
X154286333Y-109727500D01*
X154319666Y-109794166D01*
X154319666Y-109894166D01*
X154286333Y-109960833D01*
X154253000Y-109994166D01*
X153853000Y-110327500D02*
X154319666Y-110327500D01*
X153919666Y-110327500D02*
X153886333Y-110360833D01*
X153853000Y-110427500D01*
X153853000Y-110527500D01*
X153886333Y-110594166D01*
X153953000Y-110627500D01*
X154319666Y-110627500D01*
X154319666Y-111260833D02*
X153619666Y-111260833D01*
X154286333Y-111260833D02*
X154319666Y-111194166D01*
X154319666Y-111060833D01*
X154286333Y-110994166D01*
X154253000Y-110960833D01*
X154186333Y-110927500D01*
X153986333Y-110927500D01*
X153919666Y-110960833D01*
X153886333Y-110994166D01*
X153853000Y-111060833D01*
X153853000Y-111194166D01*
X153886333Y-111260833D01*
X153853000Y-112127500D02*
X154553000Y-112127500D01*
X153886333Y-112127500D02*
X153853000Y-112194166D01*
X153853000Y-112327500D01*
X153886333Y-112394166D01*
X153919666Y-112427500D01*
X153986333Y-112460833D01*
X154186333Y-112460833D01*
X154253000Y-112427500D01*
X154286333Y-112394166D01*
X154319666Y-112327500D01*
X154319666Y-112194166D01*
X154286333Y-112127500D01*
X154319666Y-113060833D02*
X153953000Y-113060833D01*
X153886333Y-113027500D01*
X153853000Y-112960833D01*
X153853000Y-112827500D01*
X153886333Y-112760833D01*
X154286333Y-113060833D02*
X154319666Y-112994166D01*
X154319666Y-112827500D01*
X154286333Y-112760833D01*
X154219666Y-112727500D01*
X154153000Y-112727500D01*
X154086333Y-112760833D01*
X154053000Y-112827500D01*
X154053000Y-112994166D01*
X154019666Y-113060833D01*
X154319666Y-113694166D02*
X153619666Y-113694166D01*
X154286333Y-113694166D02*
X154319666Y-113627500D01*
X154319666Y-113494166D01*
X154286333Y-113427500D01*
X154253000Y-113394166D01*
X154186333Y-113360833D01*
X153986333Y-113360833D01*
X153919666Y-113394166D01*
X153886333Y-113427500D01*
X153853000Y-113494166D01*
X153853000Y-113627500D01*
X153886333Y-113694166D01*
X154319666Y-114860833D02*
X153953000Y-114860833D01*
X153886333Y-114827500D01*
X153853000Y-114760833D01*
X153853000Y-114627500D01*
X153886333Y-114560833D01*
X154286333Y-114860833D02*
X154319666Y-114794166D01*
X154319666Y-114627500D01*
X154286333Y-114560833D01*
X154219666Y-114527500D01*
X154153000Y-114527500D01*
X154086333Y-114560833D01*
X154053000Y-114627500D01*
X154053000Y-114794166D01*
X154019666Y-114860833D01*
X153853000Y-115194166D02*
X154319666Y-115194166D01*
X153919666Y-115194166D02*
X153886333Y-115227500D01*
X153853000Y-115294166D01*
X153853000Y-115394166D01*
X153886333Y-115460833D01*
X153953000Y-115494166D01*
X154319666Y-115494166D01*
X154319666Y-116127500D02*
X153619666Y-116127500D01*
X154286333Y-116127500D02*
X154319666Y-116060833D01*
X154319666Y-115927500D01*
X154286333Y-115860833D01*
X154253000Y-115827500D01*
X154186333Y-115794166D01*
X153986333Y-115794166D01*
X153919666Y-115827500D01*
X153886333Y-115860833D01*
X153853000Y-115927500D01*
X153853000Y-116060833D01*
X153886333Y-116127500D01*
X153653000Y-117360833D02*
X153619666Y-117294166D01*
X153619666Y-117194166D01*
X153653000Y-117094166D01*
X153719666Y-117027500D01*
X153786333Y-116994166D01*
X153919666Y-116960833D01*
X154019666Y-116960833D01*
X154153000Y-116994166D01*
X154219666Y-117027500D01*
X154286333Y-117094166D01*
X154319666Y-117194166D01*
X154319666Y-117260833D01*
X154286333Y-117360833D01*
X154253000Y-117394166D01*
X154019666Y-117394166D01*
X154019666Y-117260833D01*
X154319666Y-117694166D02*
X153619666Y-117694166D01*
X154319666Y-118094166D01*
X153619666Y-118094166D01*
X154319666Y-118427500D02*
X153619666Y-118427500D01*
X153619666Y-118594166D01*
X153653000Y-118694166D01*
X153719666Y-118760833D01*
X153786333Y-118794166D01*
X153919666Y-118827500D01*
X154019666Y-118827500D01*
X154153000Y-118794166D01*
X154219666Y-118760833D01*
X154286333Y-118694166D01*
X154319666Y-118594166D01*
X154319666Y-118427500D01*
X113545166Y-88260833D02*
X113545166Y-87860833D01*
X113545166Y-88060833D02*
X112845166Y-88060833D01*
X112945166Y-87994166D01*
X113011833Y-87927500D01*
X113045166Y-87860833D01*
X112845166Y-88894166D02*
X112845166Y-88560833D01*
X113178500Y-88527500D01*
X113145166Y-88560833D01*
X113111833Y-88627500D01*
X113111833Y-88794166D01*
X113145166Y-88860833D01*
X113178500Y-88894166D01*
X113245166Y-88927500D01*
X113411833Y-88927500D01*
X113478500Y-88894166D01*
X113511833Y-88860833D01*
X113545166Y-88794166D01*
X113545166Y-88627500D01*
X113511833Y-88560833D01*
X113478500Y-88527500D01*
X113078500Y-89527500D02*
X113545166Y-89527500D01*
X112811833Y-89360833D02*
X113311833Y-89194166D01*
X113311833Y-89627500D01*
X113545166Y-90260833D02*
X113545166Y-89860833D01*
X113545166Y-90060833D02*
X112845166Y-90060833D01*
X112945166Y-89994166D01*
X113011833Y-89927500D01*
X113045166Y-89860833D01*
X113278500Y-90560833D02*
X113278500Y-91094166D01*
X113545166Y-91827500D02*
X113211833Y-91594166D01*
X113545166Y-91427500D02*
X112845166Y-91427500D01*
X112845166Y-91694166D01*
X112878500Y-91760833D01*
X112911833Y-91794166D01*
X112978500Y-91827500D01*
X113078500Y-91827500D01*
X113145166Y-91794166D01*
X113178500Y-91760833D01*
X113211833Y-91694166D01*
X113211833Y-91427500D01*
X113345166Y-92094166D02*
X113345166Y-92427500D01*
X113545166Y-92027500D02*
X112845166Y-92260833D01*
X113545166Y-92494166D01*
X113545166Y-92727500D02*
X112845166Y-92727500D01*
X113345166Y-92960833D01*
X112845166Y-93194166D01*
X113545166Y-93194166D01*
X113178500Y-93760833D02*
X113211833Y-93860833D01*
X113245166Y-93894166D01*
X113311833Y-93927500D01*
X113411833Y-93927500D01*
X113478500Y-93894166D01*
X113511833Y-93860833D01*
X113545166Y-93794166D01*
X113545166Y-93527500D01*
X112845166Y-93527500D01*
X112845166Y-93760833D01*
X112878500Y-93827500D01*
X112911833Y-93860833D01*
X112978500Y-93894166D01*
X113045166Y-93894166D01*
X113111833Y-93860833D01*
X113145166Y-93827500D01*
X113178500Y-93760833D01*
X113178500Y-93527500D01*
X112845166Y-94360833D02*
X112845166Y-94494166D01*
X112878500Y-94560833D01*
X112945166Y-94627500D01*
X113078500Y-94660833D01*
X113311833Y-94660833D01*
X113445166Y-94627500D01*
X113511833Y-94560833D01*
X113545166Y-94494166D01*
X113545166Y-94360833D01*
X113511833Y-94294166D01*
X113445166Y-94227500D01*
X113311833Y-94194166D01*
X113078500Y-94194166D01*
X112945166Y-94227500D01*
X112878500Y-94294166D01*
X112845166Y-94360833D01*
X113545166Y-95260833D02*
X113178500Y-95260833D01*
X113111833Y-95227500D01*
X113078500Y-95160833D01*
X113078500Y-95027500D01*
X113111833Y-94960833D01*
X113511833Y-95260833D02*
X113545166Y-95194166D01*
X113545166Y-95027500D01*
X113511833Y-94960833D01*
X113445166Y-94927500D01*
X113378500Y-94927500D01*
X113311833Y-94960833D01*
X113278500Y-95027500D01*
X113278500Y-95194166D01*
X113245166Y-95260833D01*
X113545166Y-95594166D02*
X113078500Y-95594166D01*
X113211833Y-95594166D02*
X113145166Y-95627500D01*
X113111833Y-95660833D01*
X113078500Y-95727500D01*
X113078500Y-95794166D01*
X113545166Y-96327499D02*
X112845166Y-96327499D01*
X113511833Y-96327499D02*
X113545166Y-96260833D01*
X113545166Y-96127499D01*
X113511833Y-96060833D01*
X113478500Y-96027499D01*
X113411833Y-95994166D01*
X113211833Y-95994166D01*
X113145166Y-96027499D01*
X113111833Y-96060833D01*
X113078500Y-96127499D01*
X113078500Y-96260833D01*
X113111833Y-96327499D01*
X113778500Y-96594166D02*
X113778500Y-96760833D01*
X112778500Y-96760833D01*
X112778500Y-96594166D01*
X113778500Y-97327499D02*
X113778500Y-97160833D01*
X112778500Y-97160833D01*
X112778500Y-97327499D01*
X113078500Y-98060833D02*
X113545166Y-98227499D01*
X113078500Y-98394166D01*
X113545166Y-99027499D02*
X113545166Y-98627499D01*
X113545166Y-98827499D02*
X112845166Y-98827499D01*
X112945166Y-98760833D01*
X113011833Y-98694166D01*
X113045166Y-98627499D01*
X113478500Y-99327499D02*
X113511833Y-99360833D01*
X113545166Y-99327499D01*
X113511833Y-99294166D01*
X113478500Y-99327499D01*
X113545166Y-99327499D01*
X112845166Y-99794166D02*
X112845166Y-99860833D01*
X112878500Y-99927499D01*
X112911833Y-99960833D01*
X112978500Y-99994166D01*
X113111833Y-100027499D01*
X113278500Y-100027499D01*
X113411833Y-99994166D01*
X113478500Y-99960833D01*
X113511833Y-99927499D01*
X113545166Y-99860833D01*
X113545166Y-99794166D01*
X113511833Y-99727499D01*
X113478500Y-99694166D01*
X113411833Y-99660833D01*
X113278500Y-99627499D01*
X113111833Y-99627499D01*
X112978500Y-99660833D01*
X112911833Y-99694166D01*
X112878500Y-99727499D01*
X112845166Y-99794166D01*
X114938833Y-88094166D02*
X114905500Y-88060833D01*
X114805500Y-87994166D01*
X114738833Y-87960833D01*
X114638833Y-87927500D01*
X114472166Y-87894166D01*
X114338833Y-87894166D01*
X114172166Y-87927500D01*
X114072166Y-87960833D01*
X114005500Y-87994166D01*
X113905500Y-88060833D01*
X113872166Y-88094166D01*
X114638833Y-88660833D02*
X114672166Y-88594166D01*
X114672166Y-88460833D01*
X114638833Y-88394166D01*
X114605500Y-88360833D01*
X114538833Y-88327500D01*
X114338833Y-88327500D01*
X114272166Y-88360833D01*
X114238833Y-88394166D01*
X114205500Y-88460833D01*
X114205500Y-88594166D01*
X114238833Y-88660833D01*
X114938833Y-88894166D02*
X114905500Y-88927500D01*
X114805500Y-88994166D01*
X114738833Y-89027500D01*
X114638833Y-89060833D01*
X114472166Y-89094166D01*
X114338833Y-89094166D01*
X114172166Y-89060833D01*
X114072166Y-89027500D01*
X114005500Y-88994166D01*
X113905500Y-88927500D01*
X113872166Y-88894166D01*
X114672166Y-89960833D02*
X113972166Y-89960833D01*
X113972166Y-90194166D02*
X114672166Y-90427500D01*
X113972166Y-90660833D01*
X114038833Y-91394166D02*
X114005500Y-91427500D01*
X113972166Y-91494166D01*
X113972166Y-91660833D01*
X114005500Y-91727500D01*
X114038833Y-91760833D01*
X114105500Y-91794166D01*
X114172166Y-91794166D01*
X114272166Y-91760833D01*
X114672166Y-91360833D01*
X114672166Y-91794166D01*
X113972166Y-92227500D02*
X113972166Y-92294166D01*
X114005500Y-92360833D01*
X114038833Y-92394166D01*
X114105500Y-92427500D01*
X114238833Y-92460833D01*
X114405500Y-92460833D01*
X114538833Y-92427500D01*
X114605500Y-92394166D01*
X114638833Y-92360833D01*
X114672166Y-92294166D01*
X114672166Y-92227500D01*
X114638833Y-92160833D01*
X114605500Y-92127500D01*
X114538833Y-92094166D01*
X114405500Y-92060833D01*
X114238833Y-92060833D01*
X114105500Y-92094166D01*
X114038833Y-92127500D01*
X114005500Y-92160833D01*
X113972166Y-92227500D01*
X114038833Y-92727500D02*
X114005500Y-92760833D01*
X113972166Y-92827500D01*
X113972166Y-92994166D01*
X114005500Y-93060833D01*
X114038833Y-93094166D01*
X114105500Y-93127500D01*
X114172166Y-93127500D01*
X114272166Y-93094166D01*
X114672166Y-92694166D01*
X114672166Y-93127500D01*
X114205500Y-93727500D02*
X114672166Y-93727500D01*
X113938833Y-93560833D02*
X114438833Y-93394166D01*
X114438833Y-93827500D01*
X114672166Y-94627500D02*
X113972166Y-94627500D01*
X114472166Y-94860833D01*
X113972166Y-95094166D01*
X114672166Y-95094166D01*
X114672166Y-95727500D02*
X114305500Y-95727500D01*
X114238833Y-95694166D01*
X114205500Y-95627500D01*
X114205500Y-95494166D01*
X114238833Y-95427500D01*
X114638833Y-95727500D02*
X114672166Y-95660833D01*
X114672166Y-95494166D01*
X114638833Y-95427500D01*
X114572166Y-95394166D01*
X114505500Y-95394166D01*
X114438833Y-95427500D01*
X114405500Y-95494166D01*
X114405500Y-95660833D01*
X114372166Y-95727500D01*
X114638833Y-96360833D02*
X114672166Y-96294166D01*
X114672166Y-96160833D01*
X114638833Y-96094166D01*
X114605500Y-96060833D01*
X114538833Y-96027500D01*
X114338833Y-96027500D01*
X114272166Y-96060833D01*
X114238833Y-96094166D01*
X114205500Y-96160833D01*
X114205500Y-96294166D01*
X114238833Y-96360833D01*
X114672166Y-96660833D02*
X114205500Y-96660833D01*
X113972166Y-96660833D02*
X114005500Y-96627500D01*
X114038833Y-96660833D01*
X114005500Y-96694166D01*
X113972166Y-96660833D01*
X114038833Y-96660833D01*
X114638833Y-97260833D02*
X114672166Y-97194166D01*
X114672166Y-97060833D01*
X114638833Y-96994166D01*
X114572166Y-96960833D01*
X114305500Y-96960833D01*
X114238833Y-96994166D01*
X114205500Y-97060833D01*
X114205500Y-97194166D01*
X114238833Y-97260833D01*
X114305500Y-97294166D01*
X114372166Y-97294166D01*
X114438833Y-96960833D01*
X114205500Y-97594166D02*
X114805500Y-97594166D01*
X114872166Y-97560833D01*
X114905500Y-97494166D01*
X114905500Y-97460833D01*
X113972166Y-97594166D02*
X114005500Y-97560833D01*
X114038833Y-97594166D01*
X114005500Y-97627500D01*
X113972166Y-97594166D01*
X114038833Y-97594166D01*
X113972166Y-98394166D02*
X114672166Y-98560833D01*
X114172166Y-98694166D01*
X114672166Y-98827500D01*
X113972166Y-98994166D01*
X114672166Y-99260833D02*
X114205500Y-99260833D01*
X113972166Y-99260833D02*
X114005500Y-99227500D01*
X114038833Y-99260833D01*
X114005500Y-99294166D01*
X113972166Y-99260833D01*
X114038833Y-99260833D01*
X114205500Y-99494166D02*
X114205500Y-99760833D01*
X113972166Y-99594166D02*
X114572166Y-99594166D01*
X114638833Y-99627500D01*
X114672166Y-99694166D01*
X114672166Y-99760833D01*
X114672166Y-99994166D02*
X113972166Y-99994166D01*
X114405500Y-100060833D02*
X114672166Y-100260833D01*
X114205500Y-100260833D02*
X114472166Y-99994166D01*
X114672166Y-100660833D02*
X114638833Y-100594166D01*
X114605500Y-100560833D01*
X114538833Y-100527500D01*
X114338833Y-100527500D01*
X114272166Y-100560833D01*
X114238833Y-100594166D01*
X114205500Y-100660833D01*
X114205500Y-100760833D01*
X114238833Y-100827500D01*
X114272166Y-100860833D01*
X114338833Y-100894166D01*
X114538833Y-100894166D01*
X114605500Y-100860833D01*
X114638833Y-100827500D01*
X114672166Y-100760833D01*
X114672166Y-100660833D01*
X114205500Y-101127500D02*
X114672166Y-101260833D01*
X114338833Y-101394166D01*
X114672166Y-101527500D01*
X114205500Y-101660833D01*
X114672166Y-101927500D02*
X114205500Y-101927500D01*
X113972166Y-101927500D02*
X114005500Y-101894166D01*
X114038833Y-101927500D01*
X114005500Y-101960833D01*
X113972166Y-101927500D01*
X114038833Y-101927500D01*
X114672166Y-102560833D02*
X114305500Y-102560833D01*
X114238833Y-102527500D01*
X114205500Y-102460833D01*
X114205500Y-102327500D01*
X114238833Y-102260833D01*
X114638833Y-102560833D02*
X114672166Y-102494166D01*
X114672166Y-102327500D01*
X114638833Y-102260833D01*
X114572166Y-102227500D01*
X114505500Y-102227500D01*
X114438833Y-102260833D01*
X114405500Y-102327500D01*
X114405500Y-102494166D01*
X114372166Y-102560833D01*
X114672166Y-102894166D02*
X113972166Y-102894166D01*
X114405500Y-102960833D02*
X114672166Y-103160833D01*
X114205500Y-103160833D02*
X114472166Y-102894166D01*
X114638833Y-103494166D02*
X114672166Y-103494166D01*
X114738833Y-103460833D01*
X114772166Y-103427500D01*
X114205500Y-104860833D02*
X114405500Y-104327500D01*
X114605500Y-104860833D01*
X114205500Y-105127500D02*
X114672166Y-105294166D01*
X114205500Y-105460833D02*
X114672166Y-105294166D01*
X114838833Y-105227500D01*
X114872166Y-105194166D01*
X114905500Y-105127500D01*
X114205500Y-105627500D02*
X114205500Y-105894166D01*
X113972166Y-105727500D02*
X114572166Y-105727500D01*
X114638833Y-105760833D01*
X114672166Y-105827500D01*
X114672166Y-105894166D01*
X114672166Y-106127500D02*
X114205500Y-106127500D01*
X114272166Y-106127500D02*
X114238833Y-106160833D01*
X114205500Y-106227500D01*
X114205500Y-106327500D01*
X114238833Y-106394166D01*
X114305500Y-106427500D01*
X114672166Y-106427500D01*
X114305500Y-106427500D02*
X114238833Y-106460833D01*
X114205500Y-106527500D01*
X114205500Y-106627500D01*
X114238833Y-106694166D01*
X114305500Y-106727500D01*
X114672166Y-106727500D01*
X114338833Y-107494166D02*
X114305500Y-107460833D01*
X114272166Y-107394166D01*
X114272166Y-107327500D01*
X114305500Y-107260833D01*
X114338833Y-107227500D01*
X114405500Y-107194166D01*
X114472166Y-107194166D01*
X114538833Y-107227500D01*
X114572166Y-107260833D01*
X114605500Y-107327500D01*
X114605500Y-107394166D01*
X114572166Y-107460833D01*
X114538833Y-107494166D01*
X114272166Y-107494166D02*
X114538833Y-107494166D01*
X114572166Y-107527500D01*
X114572166Y-107560833D01*
X114538833Y-107627500D01*
X114472166Y-107660833D01*
X114305500Y-107660833D01*
X114205500Y-107594166D01*
X114138833Y-107494166D01*
X114105500Y-107360833D01*
X114138833Y-107227500D01*
X114205500Y-107127500D01*
X114305500Y-107060833D01*
X114438833Y-107027500D01*
X114572166Y-107060833D01*
X114672166Y-107127500D01*
X114738833Y-107227500D01*
X114772166Y-107360833D01*
X114738833Y-107494166D01*
X114672166Y-107594166D01*
X114638833Y-108227500D02*
X114672166Y-108160833D01*
X114672166Y-108027500D01*
X114638833Y-107960833D01*
X114572166Y-107927500D01*
X114305500Y-107927500D01*
X114238833Y-107960833D01*
X114205500Y-108027500D01*
X114205500Y-108160833D01*
X114238833Y-108227500D01*
X114305500Y-108260833D01*
X114372166Y-108260833D01*
X114438833Y-107927500D01*
X114672166Y-108660833D02*
X114638833Y-108594166D01*
X114572166Y-108560833D01*
X113972166Y-108560833D01*
X114205500Y-108860833D02*
X114672166Y-109027500D01*
X114205500Y-109194166D02*
X114672166Y-109027500D01*
X114838833Y-108960833D01*
X114872166Y-108927500D01*
X114905500Y-108860833D01*
X114638833Y-109427500D02*
X114672166Y-109494166D01*
X114672166Y-109627500D01*
X114638833Y-109694166D01*
X114572166Y-109727500D01*
X114538833Y-109727500D01*
X114472166Y-109694166D01*
X114438833Y-109627500D01*
X114438833Y-109527500D01*
X114405500Y-109460833D01*
X114338833Y-109427500D01*
X114305500Y-109427500D01*
X114238833Y-109460833D01*
X114205500Y-109527500D01*
X114205500Y-109627500D01*
X114238833Y-109694166D01*
X114672166Y-110027500D02*
X114205500Y-110027500D01*
X113972166Y-110027500D02*
X114005500Y-109994166D01*
X114038833Y-110027500D01*
X114005500Y-110060833D01*
X113972166Y-110027500D01*
X114038833Y-110027500D01*
X114205500Y-110660833D02*
X114672166Y-110660833D01*
X114205500Y-110360833D02*
X114572166Y-110360833D01*
X114638833Y-110394166D01*
X114672166Y-110460833D01*
X114672166Y-110560833D01*
X114638833Y-110627500D01*
X114605500Y-110660833D01*
X114672166Y-110994166D02*
X114205500Y-110994166D01*
X114272166Y-110994166D02*
X114238833Y-111027500D01*
X114205500Y-111094166D01*
X114205500Y-111194166D01*
X114238833Y-111260833D01*
X114305500Y-111294166D01*
X114672166Y-111294166D01*
X114305500Y-111294166D02*
X114238833Y-111327500D01*
X114205500Y-111394166D01*
X114205500Y-111494166D01*
X114238833Y-111560833D01*
X114305500Y-111594166D01*
X114672166Y-111594166D01*
X114605500Y-111927500D02*
X114638833Y-111960833D01*
X114672166Y-111927500D01*
X114638833Y-111894166D01*
X114605500Y-111927500D01*
X114672166Y-111927500D01*
X114205500Y-112260833D02*
X114905500Y-112260833D01*
X114238833Y-112260833D02*
X114205500Y-112327500D01*
X114205500Y-112460833D01*
X114238833Y-112527500D01*
X114272166Y-112560833D01*
X114338833Y-112594166D01*
X114538833Y-112594166D01*
X114605500Y-112560833D01*
X114638833Y-112527500D01*
X114672166Y-112460833D01*
X114672166Y-112327500D01*
X114638833Y-112260833D01*
X114672166Y-112994166D02*
X114638833Y-112927500D01*
X114572166Y-112894166D01*
X113972166Y-112894166D01*
X114205500Y-113260833D02*
X114405500Y-113794166D01*
X114605500Y-113260833D01*
X130315666Y-87824309D02*
X130815666Y-87824309D01*
X130915666Y-87790976D01*
X130982333Y-87724309D01*
X131015666Y-87624309D01*
X131015666Y-87557643D01*
X131015666Y-88524309D02*
X131015666Y-88124309D01*
X131015666Y-88324309D02*
X130315666Y-88324309D01*
X130415666Y-88257643D01*
X130482333Y-88190976D01*
X130515666Y-88124309D01*
X131942666Y-87590976D02*
X131942666Y-87924309D01*
X132142666Y-87524309D02*
X131442666Y-87757643D01*
X132142666Y-87990976D01*
X132142666Y-88590976D02*
X132142666Y-88190976D01*
X132142666Y-88390976D02*
X131442666Y-88390976D01*
X131542666Y-88324309D01*
X131609333Y-88257643D01*
X131642666Y-88190976D01*
X131676000Y-89190976D02*
X132142666Y-89190976D01*
X131409333Y-89024309D02*
X131909333Y-88857643D01*
X131909333Y-89290976D01*
X131676000Y-89990976D02*
X131676000Y-90257643D01*
X132142666Y-90090976D02*
X131542666Y-90090976D01*
X131476000Y-90124309D01*
X131442666Y-90190976D01*
X131442666Y-90257643D01*
X132142666Y-90490976D02*
X131676000Y-90490976D01*
X131809333Y-90490976D02*
X131742666Y-90524309D01*
X131709333Y-90557643D01*
X131676000Y-90624309D01*
X131676000Y-90690976D01*
X132142666Y-91024309D02*
X132109333Y-90957643D01*
X132076000Y-90924309D01*
X132009333Y-90890976D01*
X131809333Y-90890976D01*
X131742666Y-90924309D01*
X131709333Y-90957643D01*
X131676000Y-91024309D01*
X131676000Y-91124309D01*
X131709333Y-91190976D01*
X131742666Y-91224309D01*
X131809333Y-91257643D01*
X132009333Y-91257643D01*
X132076000Y-91224309D01*
X132109333Y-91190976D01*
X132142666Y-91124309D01*
X132142666Y-91024309D01*
X132142666Y-91557643D02*
X131676000Y-91557643D01*
X131742666Y-91557643D02*
X131709333Y-91590976D01*
X131676000Y-91657643D01*
X131676000Y-91757643D01*
X131709333Y-91824309D01*
X131776000Y-91857643D01*
X132142666Y-91857643D01*
X131776000Y-91857643D02*
X131709333Y-91890976D01*
X131676000Y-91957643D01*
X131676000Y-92057643D01*
X131709333Y-92124309D01*
X131776000Y-92157643D01*
X132142666Y-92157643D01*
X132076000Y-93424309D02*
X132109333Y-93390976D01*
X132142666Y-93290976D01*
X132142666Y-93224309D01*
X132109333Y-93124309D01*
X132042666Y-93057643D01*
X131976000Y-93024309D01*
X131842666Y-92990976D01*
X131742666Y-92990976D01*
X131609333Y-93024309D01*
X131542666Y-93057643D01*
X131476000Y-93124309D01*
X131442666Y-93224309D01*
X131442666Y-93290976D01*
X131476000Y-93390976D01*
X131509333Y-93424309D01*
X132142666Y-93724309D02*
X131442666Y-93724309D01*
X131442666Y-93990976D01*
X131476000Y-94057643D01*
X131509333Y-94090976D01*
X131576000Y-94124309D01*
X131676000Y-94124309D01*
X131742666Y-94090976D01*
X131776000Y-94057643D01*
X131809333Y-93990976D01*
X131809333Y-93724309D01*
X131442666Y-94424309D02*
X132009333Y-94424309D01*
X132076000Y-94457643D01*
X132109333Y-94490976D01*
X132142666Y-94557643D01*
X132142666Y-94690976D01*
X132109333Y-94757643D01*
X132076000Y-94790976D01*
X132009333Y-94824309D01*
X131442666Y-94824309D01*
X132409333Y-95890976D02*
X132376000Y-95857643D01*
X132276000Y-95790976D01*
X132209333Y-95757643D01*
X132109333Y-95724309D01*
X131942666Y-95690976D01*
X131809333Y-95690976D01*
X131642666Y-95724309D01*
X131542666Y-95757643D01*
X131476000Y-95790976D01*
X131376000Y-95857643D01*
X131342666Y-95890976D01*
X131442666Y-96157643D02*
X132009333Y-96157643D01*
X132076000Y-96190976D01*
X132109333Y-96224309D01*
X132142666Y-96290976D01*
X132142666Y-96424309D01*
X132109333Y-96490976D01*
X132076000Y-96524309D01*
X132009333Y-96557643D01*
X131442666Y-96557643D01*
X131442666Y-96824309D02*
X131442666Y-97257643D01*
X131709333Y-97024309D01*
X131709333Y-97124309D01*
X131742666Y-97190976D01*
X131776000Y-97224309D01*
X131842666Y-97257643D01*
X132009333Y-97257643D01*
X132076000Y-97224309D01*
X132109333Y-97190976D01*
X132142666Y-97124309D01*
X132142666Y-96924309D01*
X132109333Y-96857643D01*
X132076000Y-96824309D01*
X132409333Y-97490976D02*
X132376000Y-97524309D01*
X132276000Y-97590976D01*
X132209333Y-97624309D01*
X132109333Y-97657643D01*
X131942666Y-97690976D01*
X131809333Y-97690976D01*
X131642666Y-97657643D01*
X131542666Y-97624309D01*
X131476000Y-97590976D01*
X131376000Y-97524309D01*
X131342666Y-97490976D01*
X131676000Y-98557643D02*
X132376000Y-98557643D01*
X131709333Y-98557643D02*
X131676000Y-98624309D01*
X131676000Y-98757643D01*
X131709333Y-98824309D01*
X131742666Y-98857643D01*
X131809333Y-98890976D01*
X132009333Y-98890976D01*
X132076000Y-98857643D01*
X132109333Y-98824309D01*
X132142666Y-98757643D01*
X132142666Y-98624309D01*
X132109333Y-98557643D01*
X132142666Y-99190976D02*
X131676000Y-99190976D01*
X131442666Y-99190976D02*
X131476000Y-99157643D01*
X131509333Y-99190976D01*
X131476000Y-99224309D01*
X131442666Y-99190976D01*
X131509333Y-99190976D01*
X131676000Y-99524309D02*
X132142666Y-99524309D01*
X131742666Y-99524309D02*
X131709333Y-99557643D01*
X131676000Y-99624309D01*
X131676000Y-99724309D01*
X131709333Y-99790976D01*
X131776000Y-99824309D01*
X132142666Y-99824309D01*
X131509333Y-100657643D02*
X131476000Y-100690976D01*
X131442666Y-100757643D01*
X131442666Y-100924309D01*
X131476000Y-100990976D01*
X131509333Y-101024309D01*
X131576000Y-101057643D01*
X131642666Y-101057643D01*
X131742666Y-101024309D01*
X132142666Y-100624309D01*
X132142666Y-101057643D01*
X131676000Y-101657643D02*
X132142666Y-101657643D01*
X131409333Y-101490976D02*
X131909333Y-101324309D01*
X131909333Y-101757643D01*
X133269666Y-88024309D02*
X132936333Y-87790976D01*
X133269666Y-87624309D02*
X132569666Y-87624309D01*
X132569666Y-87890976D01*
X132603000Y-87957643D01*
X132636333Y-87990976D01*
X132703000Y-88024309D01*
X132803000Y-88024309D01*
X132869666Y-87990976D01*
X132903000Y-87957643D01*
X132936333Y-87890976D01*
X132936333Y-87624309D01*
X132536333Y-88824309D02*
X133436333Y-88224309D01*
X132372000Y-88890976D02*
X132372000Y-89690976D01*
X132569666Y-88990976D02*
X133269666Y-89157643D01*
X132769666Y-89290976D01*
X133269666Y-89424309D01*
X132569666Y-89590976D01*
X132803000Y-90290976D02*
X132803000Y-90557643D01*
X133269666Y-90390976D02*
X132669666Y-90390976D01*
X132603000Y-90424309D01*
X132569666Y-90490976D01*
X132569666Y-90557643D01*
X133269666Y-90790976D02*
X132803000Y-90790976D01*
X132936333Y-90790976D02*
X132869666Y-90824309D01*
X132836333Y-90857643D01*
X132803000Y-90924309D01*
X132803000Y-90990976D01*
X133269666Y-91324309D02*
X133236333Y-91257643D01*
X133203000Y-91224309D01*
X133136333Y-91190976D01*
X132936333Y-91190976D01*
X132869666Y-91224309D01*
X132836333Y-91257643D01*
X132803000Y-91324309D01*
X132803000Y-91424309D01*
X132836333Y-91490976D01*
X132869666Y-91524309D01*
X132936333Y-91557643D01*
X133136333Y-91557643D01*
X133203000Y-91524309D01*
X133236333Y-91490976D01*
X133269666Y-91424309D01*
X133269666Y-91324309D01*
X133269666Y-91857643D02*
X132803000Y-91857643D01*
X132869666Y-91857643D02*
X132836333Y-91890976D01*
X132803000Y-91957643D01*
X132803000Y-92057643D01*
X132836333Y-92124309D01*
X132903000Y-92157643D01*
X133269666Y-92157643D01*
X132903000Y-92157643D02*
X132836333Y-92190976D01*
X132803000Y-92257643D01*
X132803000Y-92357643D01*
X132836333Y-92424309D01*
X132903000Y-92457643D01*
X133269666Y-92457643D01*
X132569666Y-93224309D02*
X133269666Y-93457643D01*
X132569666Y-93690976D01*
X133269666Y-93924309D02*
X132569666Y-93924309D01*
X133069666Y-94224309D02*
X133069666Y-94557643D01*
X133269666Y-94157643D02*
X132569666Y-94390976D01*
X133269666Y-94624309D01*
X133536333Y-95590976D02*
X133503000Y-95557642D01*
X133403000Y-95490976D01*
X133336333Y-95457642D01*
X133236333Y-95424309D01*
X133069666Y-95390976D01*
X132936333Y-95390976D01*
X132769666Y-95424309D01*
X132669666Y-95457642D01*
X132603000Y-95490976D01*
X132503000Y-95557642D01*
X132469666Y-95590976D01*
X132569666Y-95857643D02*
X133136333Y-95857643D01*
X133203000Y-95890976D01*
X133236333Y-95924309D01*
X133269666Y-95990976D01*
X133269666Y-96124309D01*
X133236333Y-96190976D01*
X133203000Y-96224309D01*
X133136333Y-96257643D01*
X132569666Y-96257643D01*
X132569666Y-96890976D02*
X132569666Y-96757642D01*
X132603000Y-96690976D01*
X132636333Y-96657642D01*
X132736333Y-96590976D01*
X132869666Y-96557642D01*
X133136333Y-96557642D01*
X133203000Y-96590976D01*
X133236333Y-96624309D01*
X133269666Y-96690976D01*
X133269666Y-96824309D01*
X133236333Y-96890976D01*
X133203000Y-96924309D01*
X133136333Y-96957642D01*
X132969666Y-96957642D01*
X132903000Y-96924309D01*
X132869666Y-96890976D01*
X132836333Y-96824309D01*
X132836333Y-96690976D01*
X132869666Y-96624309D01*
X132903000Y-96590976D01*
X132969666Y-96557642D01*
X132536333Y-97757643D02*
X133436333Y-97157643D01*
X132569666Y-97990976D02*
X133136333Y-97990976D01*
X133203000Y-98024309D01*
X133236333Y-98057642D01*
X133269666Y-98124309D01*
X133269666Y-98257642D01*
X133236333Y-98324309D01*
X133203000Y-98357642D01*
X133136333Y-98390976D01*
X132569666Y-98390976D01*
X132869666Y-98824309D02*
X132836333Y-98757642D01*
X132803000Y-98724309D01*
X132736333Y-98690976D01*
X132703000Y-98690976D01*
X132636333Y-98724309D01*
X132603000Y-98757642D01*
X132569666Y-98824309D01*
X132569666Y-98957642D01*
X132603000Y-99024309D01*
X132636333Y-99057642D01*
X132703000Y-99090976D01*
X132736333Y-99090976D01*
X132803000Y-99057642D01*
X132836333Y-99024309D01*
X132869666Y-98957642D01*
X132869666Y-98824309D01*
X132903000Y-98757642D01*
X132936333Y-98724309D01*
X133003000Y-98690976D01*
X133136333Y-98690976D01*
X133203000Y-98724309D01*
X133236333Y-98757642D01*
X133269666Y-98824309D01*
X133269666Y-98957642D01*
X133236333Y-99024309D01*
X133203000Y-99057642D01*
X133136333Y-99090976D01*
X133003000Y-99090976D01*
X132936333Y-99057642D01*
X132903000Y-99024309D01*
X132869666Y-98957642D01*
X133536333Y-99324309D02*
X133503000Y-99357642D01*
X133403000Y-99424309D01*
X133336333Y-99457642D01*
X133236333Y-99490976D01*
X133069666Y-99524309D01*
X132936333Y-99524309D01*
X132769666Y-99490976D01*
X132669666Y-99457642D01*
X132603000Y-99424309D01*
X132503000Y-99357642D01*
X132469666Y-99324309D01*
X132803000Y-100390976D02*
X133503000Y-100390976D01*
X132836333Y-100390976D02*
X132803000Y-100457642D01*
X132803000Y-100590976D01*
X132836333Y-100657642D01*
X132869666Y-100690976D01*
X132936333Y-100724309D01*
X133136333Y-100724309D01*
X133203000Y-100690976D01*
X133236333Y-100657642D01*
X133269666Y-100590976D01*
X133269666Y-100457642D01*
X133236333Y-100390976D01*
X133269666Y-101024309D02*
X132803000Y-101024309D01*
X132569666Y-101024309D02*
X132603000Y-100990976D01*
X132636333Y-101024309D01*
X132603000Y-101057642D01*
X132569666Y-101024309D01*
X132636333Y-101024309D01*
X132803000Y-101357642D02*
X133269666Y-101357642D01*
X132869666Y-101357642D02*
X132836333Y-101390976D01*
X132803000Y-101457642D01*
X132803000Y-101557642D01*
X132836333Y-101624309D01*
X132903000Y-101657642D01*
X133269666Y-101657642D01*
X132636333Y-102490976D02*
X132603000Y-102524309D01*
X132569666Y-102590976D01*
X132569666Y-102757643D01*
X132603000Y-102824309D01*
X132636333Y-102857643D01*
X132703000Y-102890976D01*
X132769666Y-102890976D01*
X132869666Y-102857643D01*
X133269666Y-102457643D01*
X133269666Y-102890976D01*
X132636333Y-103157643D02*
X132603000Y-103190976D01*
X132569666Y-103257643D01*
X132569666Y-103424309D01*
X132603000Y-103490976D01*
X132636333Y-103524309D01*
X132703000Y-103557643D01*
X132769666Y-103557643D01*
X132869666Y-103524309D01*
X133269666Y-103124309D01*
X133269666Y-103557643D01*
X133269666Y-104490976D02*
X133236333Y-104424309D01*
X133203000Y-104390976D01*
X133136333Y-104357643D01*
X132936333Y-104357643D01*
X132869666Y-104390976D01*
X132836333Y-104424309D01*
X132803000Y-104490976D01*
X132803000Y-104590976D01*
X132836333Y-104657643D01*
X132869666Y-104690976D01*
X132936333Y-104724309D01*
X133136333Y-104724309D01*
X133203000Y-104690976D01*
X133236333Y-104657643D01*
X133269666Y-104590976D01*
X133269666Y-104490976D01*
X133269666Y-105024309D02*
X132803000Y-105024309D01*
X132936333Y-105024309D02*
X132869666Y-105057643D01*
X132836333Y-105090976D01*
X132803000Y-105157643D01*
X132803000Y-105224309D01*
X133203000Y-106390976D02*
X133236333Y-106357643D01*
X133269666Y-106257643D01*
X133269666Y-106190976D01*
X133236333Y-106090976D01*
X133169666Y-106024309D01*
X133103000Y-105990976D01*
X132969666Y-105957643D01*
X132869666Y-105957643D01*
X132736333Y-105990976D01*
X132669666Y-106024309D01*
X132603000Y-106090976D01*
X132569666Y-106190976D01*
X132569666Y-106257643D01*
X132603000Y-106357643D01*
X132636333Y-106390976D01*
X133269666Y-106690976D02*
X132569666Y-106690976D01*
X132569666Y-106957643D01*
X132603000Y-107024309D01*
X132636333Y-107057643D01*
X132703000Y-107090976D01*
X132803000Y-107090976D01*
X132869666Y-107057643D01*
X132903000Y-107024309D01*
X132936333Y-106957643D01*
X132936333Y-106690976D01*
X132569666Y-107390976D02*
X133136333Y-107390976D01*
X133203000Y-107424309D01*
X133236333Y-107457643D01*
X133269666Y-107524309D01*
X133269666Y-107657643D01*
X133236333Y-107724309D01*
X133203000Y-107757643D01*
X133136333Y-107790976D01*
X132569666Y-107790976D01*
X133536333Y-108857643D02*
X133503000Y-108824309D01*
X133403000Y-108757643D01*
X133336333Y-108724309D01*
X133236333Y-108690976D01*
X133069666Y-108657643D01*
X132936333Y-108657643D01*
X132769666Y-108690976D01*
X132669666Y-108724309D01*
X132603000Y-108757643D01*
X132503000Y-108824309D01*
X132469666Y-108857643D01*
X132569666Y-109124309D02*
X133136333Y-109124309D01*
X133203000Y-109157643D01*
X133236333Y-109190976D01*
X133269666Y-109257643D01*
X133269666Y-109390976D01*
X133236333Y-109457643D01*
X133203000Y-109490976D01*
X133136333Y-109524309D01*
X132569666Y-109524309D01*
X132569666Y-109790976D02*
X132569666Y-110224309D01*
X132836333Y-109990976D01*
X132836333Y-110090976D01*
X132869666Y-110157643D01*
X132903000Y-110190976D01*
X132969666Y-110224309D01*
X133136333Y-110224309D01*
X133203000Y-110190976D01*
X133236333Y-110157643D01*
X133269666Y-110090976D01*
X133269666Y-109890976D01*
X133236333Y-109824309D01*
X133203000Y-109790976D01*
X133536333Y-110457643D02*
X133503000Y-110490976D01*
X133403000Y-110557643D01*
X133336333Y-110590976D01*
X133236333Y-110624309D01*
X133069666Y-110657643D01*
X132936333Y-110657643D01*
X132769666Y-110624309D01*
X132669666Y-110590976D01*
X132603000Y-110557643D01*
X132503000Y-110490976D01*
X132469666Y-110457643D01*
X132803000Y-111524309D02*
X133503000Y-111524309D01*
X132836333Y-111524309D02*
X132803000Y-111590976D01*
X132803000Y-111724309D01*
X132836333Y-111790976D01*
X132869666Y-111824309D01*
X132936333Y-111857643D01*
X133136333Y-111857643D01*
X133203000Y-111824309D01*
X133236333Y-111790976D01*
X133269666Y-111724309D01*
X133269666Y-111590976D01*
X133236333Y-111524309D01*
X133269666Y-112157643D02*
X132803000Y-112157643D01*
X132569666Y-112157643D02*
X132603000Y-112124309D01*
X132636333Y-112157643D01*
X132603000Y-112190976D01*
X132569666Y-112157643D01*
X132636333Y-112157643D01*
X132803000Y-112490976D02*
X133269666Y-112490976D01*
X132869666Y-112490976D02*
X132836333Y-112524309D01*
X132803000Y-112590976D01*
X132803000Y-112690976D01*
X132836333Y-112757643D01*
X132903000Y-112790976D01*
X133269666Y-112790976D01*
X132569666Y-113590976D02*
X132569666Y-114024309D01*
X132836333Y-113790976D01*
X132836333Y-113890976D01*
X132869666Y-113957643D01*
X132903000Y-113990976D01*
X132969666Y-114024309D01*
X133136333Y-114024309D01*
X133203000Y-113990976D01*
X133236333Y-113957643D01*
X133269666Y-113890976D01*
X133269666Y-113690976D01*
X133236333Y-113624309D01*
X133203000Y-113590976D01*
X132803000Y-114624309D02*
X133269666Y-114624309D01*
X132536333Y-114457643D02*
X133036333Y-114290976D01*
X133036333Y-114724309D01*
%LPC*%
D11*
X117856000Y-88392000D03*
D12*
X163830000Y-103632000D03*
D13*
X163830000Y-111252000D03*
D12*
X163830000Y-113792000D03*
D13*
X163830000Y-121412000D03*
D14*
X113030000Y-118359000D03*
D15*
X113030000Y-115819000D03*
D14*
X116840000Y-118359000D03*
D15*
X116840000Y-115819000D03*
D16*
X141229000Y-121681000D03*
X141229000Y-119141000D03*
X141229000Y-116601000D03*
X141229000Y-114061000D03*
X141229000Y-111521000D03*
X141229000Y-108981000D03*
X141229000Y-106441000D03*
X141229000Y-103901000D03*
X141229000Y-101361000D03*
X141229000Y-98821000D03*
X141229000Y-96281000D03*
X141229000Y-93741000D03*
X141229000Y-91201000D03*
X141229000Y-88661000D03*
X156469000Y-88661000D03*
X156469000Y-91201000D03*
X156469000Y-93741000D03*
X156469000Y-96281000D03*
X156469000Y-98821000D03*
X156469000Y-101361000D03*
X156469000Y-103901000D03*
X156469000Y-106441000D03*
X156469000Y-108981000D03*
X156469000Y-111521000D03*
X156469000Y-114061000D03*
X156469000Y-116601000D03*
X156469000Y-119141000D03*
D17*
X156469000Y-121681000D03*
X160121000Y-121681000D03*
D16*
X160121000Y-119141000D03*
X160121000Y-116601000D03*
X160121000Y-114061000D03*
X160121000Y-111521000D03*
X160121000Y-108981000D03*
X160121000Y-106441000D03*
X160121000Y-103901000D03*
X160121000Y-101361000D03*
X160121000Y-98821000D03*
X160121000Y-96281000D03*
X160121000Y-93741000D03*
X160121000Y-91201000D03*
X160121000Y-88661000D03*
X144881000Y-88661000D03*
X144881000Y-91201000D03*
X144881000Y-93741000D03*
X144881000Y-96281000D03*
X144881000Y-98821000D03*
X144881000Y-101361000D03*
X144881000Y-103901000D03*
X144881000Y-106441000D03*
X144881000Y-108981000D03*
X144881000Y-111521000D03*
X144881000Y-114061000D03*
X144881000Y-116601000D03*
X144881000Y-119141000D03*
X144881000Y-121681000D03*
D14*
X163830000Y-88646000D03*
D15*
X163830000Y-91186000D03*
D17*
X118608000Y-110754000D03*
D16*
X118608000Y-108214000D03*
X118608000Y-105674000D03*
X118608000Y-103134000D03*
X118608000Y-100594000D03*
X118608000Y-98054000D03*
X118608000Y-95514000D03*
X118608000Y-92974000D03*
X110988000Y-92974000D03*
X110988000Y-95514000D03*
X110988000Y-98054000D03*
X110988000Y-100594000D03*
X110988000Y-103134000D03*
X110988000Y-105674000D03*
X110988000Y-108214000D03*
X110988000Y-110754000D03*
D14*
X163830000Y-96271000D03*
D15*
X163830000Y-98811000D03*
D17*
X137673000Y-121681000D03*
D16*
X137673000Y-119141000D03*
X137673000Y-116601000D03*
X137673000Y-114061000D03*
X137673000Y-111521000D03*
X137673000Y-108981000D03*
X137673000Y-106441000D03*
X137673000Y-103901000D03*
X137673000Y-101361000D03*
X137673000Y-98821000D03*
X137673000Y-96281000D03*
X137673000Y-93741000D03*
X137673000Y-91201000D03*
X137673000Y-88661000D03*
X122433000Y-88661000D03*
X122433000Y-91201000D03*
X122433000Y-93741000D03*
X122433000Y-96281000D03*
X122433000Y-98821000D03*
X122433000Y-101361000D03*
X122433000Y-103901000D03*
X122433000Y-106441000D03*
X122433000Y-108981000D03*
X122433000Y-111521000D03*
X122433000Y-114061000D03*
X122433000Y-116601000D03*
X122433000Y-119141000D03*
X122433000Y-121681000D03*
D15*
X116078000Y-123952000D03*
D14*
X113538000Y-123952000D03*
M02*
