%FSLAX45Y45*%
G04 Gerber Fmt 4.5, Leading zero omitted, Abs format (unit mm)*
G04 Created by KiCad (PCBNEW (6.0.5)) date 2024-04-06 13:46:18*
%MOMM*%
%LPD*%
G01*
G04 APERTURE LIST*
%TA.AperFunction,Profile*%
%ADD10C,0.100000*%
%TD*%
%ADD11C,0.200000*%
%ADD12C,0.250000*%
G04 APERTURE END LIST*
D10*
X16764000Y-8559800D02*
X16764000Y-12623800D01*
X16764000Y-12623800D02*
X10896600Y-12623800D01*
X10896600Y-8559800D02*
X16764000Y-8559800D01*
X10896600Y-12623800D02*
X10896600Y-8559800D01*
D11*
D12*
X11660600Y-8714200D02*
X11910600Y-8964200D01*
X11910600Y-8714200D02*
X11660600Y-8964200D01*
D11*
X11149219Y-12939276D02*
X11149219Y-12739276D01*
X11196838Y-12739276D01*
X11225409Y-12748800D01*
X11244457Y-12767848D01*
X11253981Y-12786895D01*
X11263505Y-12824990D01*
X11263505Y-12853562D01*
X11253981Y-12891657D01*
X11244457Y-12910705D01*
X11225409Y-12929752D01*
X11196838Y-12939276D01*
X11149219Y-12939276D01*
X11349219Y-12939276D02*
X11349219Y-12805943D01*
X11349219Y-12844038D02*
X11358743Y-12824990D01*
X11368267Y-12815467D01*
X11387314Y-12805943D01*
X11406362Y-12805943D01*
X11473028Y-12939276D02*
X11473028Y-12805943D01*
X11473028Y-12739276D02*
X11463505Y-12748800D01*
X11473028Y-12758324D01*
X11482552Y-12748800D01*
X11473028Y-12739276D01*
X11473028Y-12758324D01*
X11596838Y-12939276D02*
X11577790Y-12929752D01*
X11568267Y-12910705D01*
X11568267Y-12739276D01*
X11701600Y-12939276D02*
X11682552Y-12929752D01*
X11673028Y-12910705D01*
X11673028Y-12739276D01*
X11930171Y-12939276D02*
X11930171Y-12739276D01*
X11996838Y-12882133D01*
X12063505Y-12739276D01*
X12063505Y-12939276D01*
X12244457Y-12939276D02*
X12244457Y-12834514D01*
X12234933Y-12815467D01*
X12215886Y-12805943D01*
X12177790Y-12805943D01*
X12158743Y-12815467D01*
X12244457Y-12929752D02*
X12225409Y-12939276D01*
X12177790Y-12939276D01*
X12158743Y-12929752D01*
X12149219Y-12910705D01*
X12149219Y-12891657D01*
X12158743Y-12872609D01*
X12177790Y-12863086D01*
X12225409Y-12863086D01*
X12244457Y-12853562D01*
X12339695Y-12805943D02*
X12339695Y-13005943D01*
X12339695Y-12815467D02*
X12358743Y-12805943D01*
X12396838Y-12805943D01*
X12415886Y-12815467D01*
X12425409Y-12824990D01*
X12434933Y-12844038D01*
X12434933Y-12901181D01*
X12425409Y-12920228D01*
X12415886Y-12929752D01*
X12396838Y-12939276D01*
X12358743Y-12939276D01*
X12339695Y-12929752D01*
X12520648Y-12920228D02*
X12530171Y-12929752D01*
X12520648Y-12939276D01*
X12511124Y-12929752D01*
X12520648Y-12920228D01*
X12520648Y-12939276D01*
X12520648Y-12815467D02*
X12530171Y-12824990D01*
X12520648Y-12834514D01*
X12511124Y-12824990D01*
X12520648Y-12815467D01*
X12520648Y-12834514D01*
X10691600Y-13168800D02*
X10891600Y-13368800D01*
X10891600Y-13168800D02*
X10691600Y-13368800D01*
X11139695Y-13178324D02*
X11149219Y-13168800D01*
X11168267Y-13159276D01*
X11215886Y-13159276D01*
X11234933Y-13168800D01*
X11244457Y-13178324D01*
X11253981Y-13197371D01*
X11253981Y-13216419D01*
X11244457Y-13244990D01*
X11130171Y-13359276D01*
X11253981Y-13359276D01*
X11339695Y-13340228D02*
X11349219Y-13349752D01*
X11339695Y-13359276D01*
X11330171Y-13349752D01*
X11339695Y-13340228D01*
X11339695Y-13359276D01*
X11530171Y-13159276D02*
X11434933Y-13159276D01*
X11425409Y-13254514D01*
X11434933Y-13244990D01*
X11453981Y-13235467D01*
X11501600Y-13235467D01*
X11520648Y-13244990D01*
X11530171Y-13254514D01*
X11539695Y-13273562D01*
X11539695Y-13321181D01*
X11530171Y-13340228D01*
X11520648Y-13349752D01*
X11501600Y-13359276D01*
X11453981Y-13359276D01*
X11434933Y-13349752D01*
X11425409Y-13340228D01*
X11663505Y-13159276D02*
X11682552Y-13159276D01*
X11701600Y-13168800D01*
X11711124Y-13178324D01*
X11720648Y-13197371D01*
X11730171Y-13235467D01*
X11730171Y-13283086D01*
X11720648Y-13321181D01*
X11711124Y-13340228D01*
X11701600Y-13349752D01*
X11682552Y-13359276D01*
X11663505Y-13359276D01*
X11644457Y-13349752D01*
X11634933Y-13340228D01*
X11625409Y-13321181D01*
X11615886Y-13283086D01*
X11615886Y-13235467D01*
X11625409Y-13197371D01*
X11634933Y-13178324D01*
X11644457Y-13168800D01*
X11663505Y-13159276D01*
X11853981Y-13159276D02*
X11873028Y-13159276D01*
X11892076Y-13168800D01*
X11901600Y-13178324D01*
X11911124Y-13197371D01*
X11920648Y-13235467D01*
X11920648Y-13283086D01*
X11911124Y-13321181D01*
X11901600Y-13340228D01*
X11892076Y-13349752D01*
X11873028Y-13359276D01*
X11853981Y-13359276D01*
X11834933Y-13349752D01*
X11825409Y-13340228D01*
X11815886Y-13321181D01*
X11806362Y-13283086D01*
X11806362Y-13235467D01*
X11815886Y-13197371D01*
X11825409Y-13178324D01*
X11834933Y-13168800D01*
X11853981Y-13159276D01*
X12006362Y-13359276D02*
X12006362Y-13225943D01*
X12006362Y-13244990D02*
X12015886Y-13235467D01*
X12034933Y-13225943D01*
X12063505Y-13225943D01*
X12082552Y-13235467D01*
X12092076Y-13254514D01*
X12092076Y-13359276D01*
X12092076Y-13254514D02*
X12101600Y-13235467D01*
X12120648Y-13225943D01*
X12149219Y-13225943D01*
X12168267Y-13235467D01*
X12177790Y-13254514D01*
X12177790Y-13359276D01*
X12273028Y-13359276D02*
X12273028Y-13225943D01*
X12273028Y-13244990D02*
X12282552Y-13235467D01*
X12301600Y-13225943D01*
X12330171Y-13225943D01*
X12349219Y-13235467D01*
X12358743Y-13254514D01*
X12358743Y-13359276D01*
X12358743Y-13254514D02*
X12368267Y-13235467D01*
X12387314Y-13225943D01*
X12415886Y-13225943D01*
X12434933Y-13235467D01*
X12444457Y-13254514D01*
X12444457Y-13359276D01*
X12834933Y-13149752D02*
X12663505Y-13406895D01*
X13092076Y-13159276D02*
X13111124Y-13159276D01*
X13130171Y-13168800D01*
X13139695Y-13178324D01*
X13149219Y-13197371D01*
X13158743Y-13235467D01*
X13158743Y-13283086D01*
X13149219Y-13321181D01*
X13139695Y-13340228D01*
X13130171Y-13349752D01*
X13111124Y-13359276D01*
X13092076Y-13359276D01*
X13073028Y-13349752D01*
X13063505Y-13340228D01*
X13053981Y-13321181D01*
X13044457Y-13283086D01*
X13044457Y-13235467D01*
X13053981Y-13197371D01*
X13063505Y-13178324D01*
X13073028Y-13168800D01*
X13092076Y-13159276D01*
X13244457Y-13340228D02*
X13253981Y-13349752D01*
X13244457Y-13359276D01*
X13234933Y-13349752D01*
X13244457Y-13340228D01*
X13244457Y-13359276D01*
X13377790Y-13159276D02*
X13396838Y-13159276D01*
X13415886Y-13168800D01*
X13425409Y-13178324D01*
X13434933Y-13197371D01*
X13444457Y-13235467D01*
X13444457Y-13283086D01*
X13434933Y-13321181D01*
X13425409Y-13340228D01*
X13415886Y-13349752D01*
X13396838Y-13359276D01*
X13377790Y-13359276D01*
X13358743Y-13349752D01*
X13349219Y-13340228D01*
X13339695Y-13321181D01*
X13330171Y-13283086D01*
X13330171Y-13235467D01*
X13339695Y-13197371D01*
X13349219Y-13178324D01*
X13358743Y-13168800D01*
X13377790Y-13159276D01*
X13539695Y-13359276D02*
X13577790Y-13359276D01*
X13596838Y-13349752D01*
X13606362Y-13340228D01*
X13625409Y-13311657D01*
X13634933Y-13273562D01*
X13634933Y-13197371D01*
X13625409Y-13178324D01*
X13615886Y-13168800D01*
X13596838Y-13159276D01*
X13558743Y-13159276D01*
X13539695Y-13168800D01*
X13530171Y-13178324D01*
X13520648Y-13197371D01*
X13520648Y-13244990D01*
X13530171Y-13264038D01*
X13539695Y-13273562D01*
X13558743Y-13283086D01*
X13596838Y-13283086D01*
X13615886Y-13273562D01*
X13625409Y-13264038D01*
X13634933Y-13244990D01*
X13749219Y-13244990D02*
X13730171Y-13235467D01*
X13720648Y-13225943D01*
X13711124Y-13206895D01*
X13711124Y-13197371D01*
X13720648Y-13178324D01*
X13730171Y-13168800D01*
X13749219Y-13159276D01*
X13787314Y-13159276D01*
X13806362Y-13168800D01*
X13815886Y-13178324D01*
X13825409Y-13197371D01*
X13825409Y-13206895D01*
X13815886Y-13225943D01*
X13806362Y-13235467D01*
X13787314Y-13244990D01*
X13749219Y-13244990D01*
X13730171Y-13254514D01*
X13720648Y-13264038D01*
X13711124Y-13283086D01*
X13711124Y-13321181D01*
X13720648Y-13340228D01*
X13730171Y-13349752D01*
X13749219Y-13359276D01*
X13787314Y-13359276D01*
X13806362Y-13349752D01*
X13815886Y-13340228D01*
X13825409Y-13321181D01*
X13825409Y-13283086D01*
X13815886Y-13264038D01*
X13806362Y-13254514D01*
X13787314Y-13244990D01*
X13996838Y-13225943D02*
X13996838Y-13359276D01*
X13949219Y-13149752D02*
X13901600Y-13292609D01*
X14025409Y-13292609D01*
X14092076Y-13159276D02*
X14092076Y-13197371D01*
X14168267Y-13159276D02*
X14168267Y-13197371D01*
X14463505Y-13435467D02*
X14453981Y-13425943D01*
X14434933Y-13397371D01*
X14425409Y-13378324D01*
X14415886Y-13349752D01*
X14406362Y-13302133D01*
X14406362Y-13264038D01*
X14415886Y-13216419D01*
X14425409Y-13187848D01*
X14434933Y-13168800D01*
X14453981Y-13140228D01*
X14463505Y-13130705D01*
X14644457Y-13359276D02*
X14530171Y-13359276D01*
X14587314Y-13359276D02*
X14587314Y-13159276D01*
X14568267Y-13187848D01*
X14549219Y-13206895D01*
X14530171Y-13216419D01*
X14882552Y-13359276D02*
X14882552Y-13159276D01*
X14968267Y-13359276D02*
X14968267Y-13254514D01*
X14958743Y-13235467D01*
X14939695Y-13225943D01*
X14911124Y-13225943D01*
X14892076Y-13235467D01*
X14882552Y-13244990D01*
X15092076Y-13359276D02*
X15073028Y-13349752D01*
X15063505Y-13340228D01*
X15053981Y-13321181D01*
X15053981Y-13264038D01*
X15063505Y-13244990D01*
X15073028Y-13235467D01*
X15092076Y-13225943D01*
X15120648Y-13225943D01*
X15139695Y-13235467D01*
X15149219Y-13244990D01*
X15158743Y-13264038D01*
X15158743Y-13321181D01*
X15149219Y-13340228D01*
X15139695Y-13349752D01*
X15120648Y-13359276D01*
X15092076Y-13359276D01*
X15273028Y-13359276D02*
X15253981Y-13349752D01*
X15244457Y-13330705D01*
X15244457Y-13159276D01*
X15425409Y-13349752D02*
X15406362Y-13359276D01*
X15368267Y-13359276D01*
X15349219Y-13349752D01*
X15339695Y-13330705D01*
X15339695Y-13254514D01*
X15349219Y-13235467D01*
X15368267Y-13225943D01*
X15406362Y-13225943D01*
X15425409Y-13235467D01*
X15434933Y-13254514D01*
X15434933Y-13273562D01*
X15339695Y-13292609D01*
X15501600Y-13435467D02*
X15511124Y-13425943D01*
X15530171Y-13397371D01*
X15539695Y-13378324D01*
X15549219Y-13349752D01*
X15558743Y-13302133D01*
X15558743Y-13264038D01*
X15549219Y-13216419D01*
X15539695Y-13187848D01*
X15530171Y-13168800D01*
X15511124Y-13140228D01*
X15501600Y-13130705D01*
X15863505Y-13435467D02*
X15853981Y-13425943D01*
X15834933Y-13397371D01*
X15825409Y-13378324D01*
X15815886Y-13349752D01*
X15806362Y-13302133D01*
X15806362Y-13264038D01*
X15815886Y-13216419D01*
X15825409Y-13187848D01*
X15834933Y-13168800D01*
X15853981Y-13140228D01*
X15863505Y-13130705D01*
X15939695Y-13225943D02*
X15939695Y-13359276D01*
X15939695Y-13244990D02*
X15949219Y-13235467D01*
X15968267Y-13225943D01*
X15996838Y-13225943D01*
X16015886Y-13235467D01*
X16025409Y-13254514D01*
X16025409Y-13359276D01*
X16149219Y-13359276D02*
X16130171Y-13349752D01*
X16120648Y-13340228D01*
X16111124Y-13321181D01*
X16111124Y-13264038D01*
X16120648Y-13244990D01*
X16130171Y-13235467D01*
X16149219Y-13225943D01*
X16177790Y-13225943D01*
X16196838Y-13235467D01*
X16206362Y-13244990D01*
X16215886Y-13264038D01*
X16215886Y-13321181D01*
X16206362Y-13340228D01*
X16196838Y-13349752D01*
X16177790Y-13359276D01*
X16149219Y-13359276D01*
X16273028Y-13225943D02*
X16349219Y-13225943D01*
X16301600Y-13159276D02*
X16301600Y-13330705D01*
X16311124Y-13349752D01*
X16330171Y-13359276D01*
X16349219Y-13359276D01*
X16568267Y-13225943D02*
X16568267Y-13425943D01*
X16568267Y-13235467D02*
X16587314Y-13225943D01*
X16625409Y-13225943D01*
X16644457Y-13235467D01*
X16653981Y-13244990D01*
X16663505Y-13264038D01*
X16663505Y-13321181D01*
X16653981Y-13340228D01*
X16644457Y-13349752D01*
X16625409Y-13359276D01*
X16587314Y-13359276D01*
X16568267Y-13349752D01*
X16777790Y-13359276D02*
X16758743Y-13349752D01*
X16749219Y-13330705D01*
X16749219Y-13159276D01*
X16939695Y-13359276D02*
X16939695Y-13254514D01*
X16930171Y-13235467D01*
X16911124Y-13225943D01*
X16873029Y-13225943D01*
X16853981Y-13235467D01*
X16939695Y-13349752D02*
X16920648Y-13359276D01*
X16873029Y-13359276D01*
X16853981Y-13349752D01*
X16844457Y-13330705D01*
X16844457Y-13311657D01*
X16853981Y-13292609D01*
X16873029Y-13283086D01*
X16920648Y-13283086D01*
X16939695Y-13273562D01*
X17006362Y-13225943D02*
X17082552Y-13225943D01*
X17034933Y-13159276D02*
X17034933Y-13330705D01*
X17044457Y-13349752D01*
X17063505Y-13359276D01*
X17082552Y-13359276D01*
X17225410Y-13349752D02*
X17206362Y-13359276D01*
X17168267Y-13359276D01*
X17149219Y-13349752D01*
X17139695Y-13330705D01*
X17139695Y-13254514D01*
X17149219Y-13235467D01*
X17168267Y-13225943D01*
X17206362Y-13225943D01*
X17225410Y-13235467D01*
X17234933Y-13254514D01*
X17234933Y-13273562D01*
X17139695Y-13292609D01*
X17406362Y-13359276D02*
X17406362Y-13159276D01*
X17406362Y-13349752D02*
X17387314Y-13359276D01*
X17349219Y-13359276D01*
X17330171Y-13349752D01*
X17320648Y-13340228D01*
X17311124Y-13321181D01*
X17311124Y-13264038D01*
X17320648Y-13244990D01*
X17330171Y-13235467D01*
X17349219Y-13225943D01*
X17387314Y-13225943D01*
X17406362Y-13235467D01*
X17482552Y-13435467D02*
X17492076Y-13425943D01*
X17511124Y-13397371D01*
X17520648Y-13378324D01*
X17530171Y-13349752D01*
X17539695Y-13302133D01*
X17539695Y-13264038D01*
X17530171Y-13216419D01*
X17520648Y-13187848D01*
X17511124Y-13168800D01*
X17492076Y-13140228D01*
X17482552Y-13130705D01*
M02*
