M48
; DRILL file {KiCad (6.0.5)} date Sat Apr 20 13:37:28 2024
; FORMAT={-:-/ absolute / metric / decimal}
; #@! TF.CreationDate,2024-04-20T13:37:28+02:00
; #@! TF.GenerationSoftware,Kicad,Pcbnew,(6.0.5)
; #@! TF.FileFunction,Plated,1,2,PTH
FMAT,2
METRIC
; #@! TA.AperFunction,Plated,PTH,ViaDrill
T1C0.400
; #@! TA.AperFunction,Plated,PTH,ComponentDrill
T2C0.800
; #@! TA.AperFunction,Plated,PTH,ComponentDrill
T3C1.000
%
G90
G05
T1
X115.854Y-121.306
X115.954Y-113.228
X124.687Y-108.227
X139.357Y-94.66
X139.7Y-92.346
X142.408Y-107.759
X142.938Y-120.411
X147.099Y-111.338
X152.506Y-107.032
X153.297Y-116.359
T2
X110.988Y-92.974
X110.988Y-95.514
X110.988Y-98.054
X110.988Y-100.594
X110.988Y-103.134
X110.988Y-105.674
X110.988Y-108.214
X110.988Y-110.754
X118.608Y-92.974
X118.608Y-95.514
X118.608Y-98.054
X118.608Y-100.594
X118.608Y-103.134
X118.608Y-105.674
X118.608Y-108.214
X118.608Y-110.754
X122.433Y-88.661
X122.433Y-91.201
X122.433Y-93.741
X122.433Y-96.281
X122.433Y-98.821
X122.433Y-101.361
X122.433Y-103.901
X122.433Y-106.441
X122.433Y-108.981
X122.433Y-111.521
X122.433Y-114.061
X122.433Y-116.601
X122.433Y-119.141
X122.433Y-121.681
X137.673Y-88.661
X137.673Y-91.201
X137.673Y-93.741
X137.673Y-96.281
X137.673Y-98.821
X137.673Y-101.361
X137.673Y-103.901
X137.673Y-106.441
X137.673Y-108.981
X137.673Y-111.521
X137.673Y-114.061
X137.673Y-116.601
X137.673Y-119.141
X137.673Y-121.681
X141.229Y-88.661
X141.229Y-91.201
X141.229Y-93.741
X141.229Y-96.281
X141.229Y-98.821
X141.229Y-101.361
X141.229Y-103.901
X141.229Y-106.441
X141.229Y-108.981
X141.229Y-111.521
X141.229Y-114.061
X141.229Y-116.601
X141.229Y-119.141
X141.229Y-121.681
X144.881Y-88.661
X144.881Y-91.201
X144.881Y-93.741
X144.881Y-96.281
X144.881Y-98.821
X144.881Y-101.361
X144.881Y-103.901
X144.881Y-106.441
X144.881Y-108.981
X144.881Y-111.521
X144.881Y-114.061
X144.881Y-116.601
X144.881Y-119.141
X144.881Y-121.681
X156.469Y-88.661
X156.469Y-91.201
X156.469Y-93.741
X156.469Y-96.281
X156.469Y-98.821
X156.469Y-101.361
X156.469Y-103.901
X156.469Y-106.441
X156.469Y-108.981
X156.469Y-111.521
X156.469Y-114.061
X156.469Y-116.601
X156.469Y-119.141
X156.469Y-121.681
X160.121Y-88.661
X160.121Y-91.201
X160.121Y-93.741
X160.121Y-96.281
X160.121Y-98.821
X160.121Y-101.361
X160.121Y-103.901
X160.121Y-106.441
X160.121Y-108.981
X160.121Y-111.521
X160.121Y-114.061
X160.121Y-116.601
X160.121Y-119.141
X160.121Y-121.681
X163.83Y-103.632
X163.83Y-111.252
X163.83Y-113.792
X163.83Y-121.412
T3
X113.03Y-115.819
X113.03Y-118.359
X113.538Y-123.952
X116.078Y-123.952
X116.84Y-115.819
X116.84Y-118.359
X163.83Y-88.646
X163.83Y-91.186
X163.83Y-96.271
X163.83Y-98.811
T0
M30
